SplineFontDB: 2.0
FontName: Loma-BoldOblique
FullName: Loma Bold Oblique
FamilyName: Loma
Weight: Bold
Copyright: Copyright (c) NECTEC, 2003. All rights reserved.\nModified under GNU General Public License by TLWG.
Version: 0.9.11: 2007-12-07
ItalicAngle: -12
UnderlinePosition: -170
UnderlineWidth: 10
Ascent: 1638
Descent: 410
NeedsXUIDChange: 1
FSType: 0
OS2Version: 0
OS2_WeightWidthSlopeOnly: 0
OS2_UseTypoMetrics: 0
CreationTime: 1153662534
ModificationTime: 1197016635
PfmFamily: 33
TTFWeight: 700
TTFWidth: 5
LineGap: 0
VLineGap: 0
Panose: 2 11 6 4 2 2 2 2 2 4
OS2TypoAscent: 0
OS2TypoAOffset: 1
OS2TypoDescent: 0
OS2TypoDOffset: 1
OS2TypoLinegap: 0
OS2WinAscent: 0
OS2WinAOffset: 1
OS2WinDescent: 0
OS2WinDOffset: 1
HheadAscent: 0
HheadAOffset: 1
HheadDescent: 0
HheadDOffset: 1
OS2Vendor: 'PfEd'
Lookup: 6 0 0 "'ccmp' Glyph Composition/Decomposition in Thai lookup 0"  {"'ccmp' Glyph Composition/Decomposition in Thai lookup 0"  } ['ccmp' ('thai' <'KUY ' 'PAL ' 'THA ' 'dflt' > ) ]
Lookup: 6 0 0 "'ccmp' Glyph Composition/Decomposition in Thai lookup 1"  {"'ccmp' Glyph Composition/Decomposition in Thai lookup 1"  } ['ccmp' ('thai' <'KUY ' 'PAL ' 'THA ' 'dflt' > ) ]
Lookup: 5 0 0 "Required Feature in Thai lookup 2"  {"Required Feature in Thai lookup 2"  } [' RQD' ('thai' <'PAL ' > ) ]
Lookup: 1 0 0 "Single Substitution lookup 3"  {"Single Substitution lookup 3"  } []
Lookup: 2 0 0 "Multiple Substitution lookup 4"  {"Multiple Substitution lookup 4"  } []
Lookup: 1 0 0 "Single Substitution lookup 5"  {"Single Substitution lookup 5"  } []
Lookup: 2 0 0 "Multiple Substitution lookup 6"  {"Multiple Substitution lookup 6"  } []
Lookup: 1 0 0 "Single Substitution lookup 7"  {"Single Substitution lookup 7"  } []
Lookup: 1 0 0 "Single Substitution lookup 8"  {"Single Substitution lookup 8"  } []
Lookup: 1 0 0 "Single Substitution lookup 9"  {"Single Substitution lookup 9"  } []

StartChar: .notdef
Encoding: 0 -1 0
Width: 1536
Flags: W
HStem: 0 32<295 1255> 1248 32<553 1513>
Fore
256 0 m 1
 528 1280 l 1
 1552 1280 l 1
 1280 0 l 1
 256 0 l 1
295 32 m 1
 1255 32 l 1
 1513 1248 l 1
 553 1248 l 1
 295 32 l 1
EndSplineSet
EndChar
StartChar: uni0E4D.high
Encoding: 271 63262 2
Width: 0
VWidth: 2561
Flags: W
HStem: 1719 104<93.5771 188.116> 1928 107<86.0393 191.555>
VStem: -24 106<1823.17 1923.21> 193 105<1827.11 1927.24>
AnchorPoint: "AboveMark" 108 1740 mark 0
Fore
-24 1842 m 0
 -24 1932 62 2035 172 2035 c 0
 252 2035 298 1978 298 1911 c 0
 298 1813 208 1719 104 1719 c 0
 17 1719 -24 1786 -24 1842 c 0
82 1861 m 0
 82 1831 113 1823 126 1823 c 0
 168 1823 193 1859 193 1887 c 0
 193 1912 176 1928 149 1928 c 0
 115 1928 82 1902 82 1861 c 0
EndSplineSet
EndChar
StartChar: exclam
Encoding: 3 33 5
Width: 569
Flags: W
HStem: 0 194<218 400> 1430 20G<472.743 716>
VStem: 177 539<0 1450>
Fore
381 999 m 1
 477 1450 l 1
 716 1450 l 1
 620 999 l 1
 443 365 l 1
 291 365 l 1
 381 999 l 1
218 194 m 1
 441 194 l 1
 400 0 l 1
 177 0 l 1
 218 194 l 1
EndSplineSet
EndChar
StartChar: quotedbl
Encoding: 4 34 6
Width: 727
Flags: W
HStem: 1430 20G<409.794 644 692.794 927>
VStem: 357 570<947 1450>
Fore
357 947 m 1
 365 1217 l 1
 414 1450 l 1
 644 1450 l 1
 595 1217 l 1
 492 947 l 1
 357 947 l 1
638 947 m 1
 648 1217 l 1
 697 1450 l 1
 927 1450 l 1
 878 1217 l 1
 773 947 l 1
 638 947 l 1
EndSplineSet
EndChar
StartChar: numbersign
Encoding: 5 35 7
Width: 1139
Flags: W
HStem: -10 21G<55 303.986 514 769.548> 355 240<147 219 540 677 998 1188> 865 240<256 432 753 882 1212 1297> 1450 20G<668.014 917 1127.01 1376>
Fore
55 -10 m 1
 219 355 l 1
 96 355 l 1
 147 595 l 1
 309 595 l 1
 432 865 l 1
 205 865 l 1
 256 1105 l 1
 513 1105 l 1
 677 1470 l 1
 917 1470 l 1
 753 1105 l 1
 972 1105 l 1
 1136 1470 l 1
 1376 1470 l 1
 1212 1105 l 1
 1348 1105 l 1
 1297 865 l 1
 1122 864 l 1
 998 595 l 1
 1239 595 l 1
 1188 355 l 1
 917 355 l 1
 761 -10 l 1
 514 -10 l 1
 677 355 l 1
 459 355 l 1
 295 -10 l 1
 55 -10 l 1
540 595 m 1
 758 595 l 1
 882 865 l 1
 663 865 l 1
 540 595 l 1
EndSplineSet
EndChar
StartChar: dollar
Encoding: 6 36 8
Width: 1139
Flags: W
VStem: 148 213<208.229 368.718> 314 218<883.12 1137.48> 919 219<291.456 553.932> 1030 208<1053.18 1170.47>
Fore
838 820 m 1x50
 898 808 1138 757 1138 504 c 0
 1138 274 965 -17 657 -35 c 1
 639 -118 l 1
 437 -118 l 1
 454 -37 l 1
 257 -12 148 91 148 276 c 0
 148 325 157 374 165 417 c 1
 374 417 l 1
 365 380 361 350 361 323 c 0xa0
 361 255 389 192 495 153 c 1
 594 621 l 1
 459 649 314 748 314 936 c 0
 314 1144 462 1400 766 1429 c 1
 778 1488 l 1
 980 1488 l 1
 968 1429 l 1
 1148 1408 1238 1312 1238 1140 c 0
 1238 1112 1236 1082 1231 1050 c 1
 1028 1050 l 1
 1029 1058 1030 1066 1030 1075 c 0
 1030 1121 1013 1208 927 1239 c 1
 838 820 l 1x50
726 1241 m 1
 638 1234 532 1140 532 990 c 0x40
 532 921 567 871 641 840 c 1
 726 1241 l 1
919 448 m 0x20
 919 536 878 572 791 599 c 1
 697 153 l 1
 850 188 919 332 919 448 c 0x20
EndSplineSet
EndChar
StartChar: percent
Encoding: 7 37 9
Width: 1821
Flags: W
HStem: -53 177<1330.79 1500.4> 546 175<1405.56 1552.92> 717 169<545.519 708.521> 1317 174<621.466 786.585>
VStem: 340 191<898.569 1129.52> 801 193<1004.63 1302.86> 1124 192<136.4 433.395> 1590 191<235.811 533.228>
Fore
340 978 m 0xbf
 340 1175.21 456.069 1491 743 1491 c 0
 901.399 1491 994 1394.66 994 1227 c 0
 994 989.164 838.14 717 580 717 c 0
 427.557 717 340 814.205 340 978 c 0xbf
801 1205 m 0
 801 1299.49 747 1317 711 1317 c 0
 567 1317 531 1063.8 531 999 c 0
 531 907.156 583.8 886 619 886 c 0
 764.6 886 801 1134.66 801 1205 c 0
1487 1491 m 1
 1764 1491 l 1
 686 -10 l 1
 409 -10 l 1
 1487 1491 l 1
1365 -53 m 0
 1172.2 -53 1124 92.75 1124 210 c 0
 1124 416.139 1247.52 721 1529 721 c 0xdf
 1730.6 721 1781 569.364 1781 454 c 0
 1781 213.675 1622.2 -53 1365 -53 c 0
1590 432 m 0
 1590 533.263 1528.01 546 1497 546 c 0
 1350.75 546 1316 305.517 1316 237 c 0
 1316 144.005 1370.6 124 1407 124 c 0
 1553.64 124 1590 356.461 1590 432 c 0
EndSplineSet
EndChar
StartChar: ampersand
Encoding: 8 38 10
Width: 1366
Flags: W
HStem: -22 207<459.872 748.847> 1286 205<802.656 977.537>
VStem: 165 244<236.503 496.488> 510 247<1007.96 1240.34> 989 246<1079.23 1259.41>
Fore
1235 1246 m 0
 1235 1076 1110 924 895 821 c 1
 1037 522 l 1
 1079 579 1117 648 1150 727 c 1
 1359 649 l 1
 1307 540 1244 442 1171 357 c 1
 1219 270 1279 195 1352 132 c 1
 1159 -67 l 1
 1097 -19 1037 50 978 140 c 1
 886 60 741 -22 571 -22 c 0
 330 -22 165 96 165 319 c 0
 165 552 348 756 588 852 c 1
 541 927 510 989 510 1081 c 0
 510 1308 713 1491 954 1491 c 0
 1118 1491 1235 1392 1235 1246 c 0
900 1286 m 0
 837 1286 757 1226 757 1137 c 0
 757 1091 777 1039 818 983 c 1
 908 1018 989 1106 989 1199 c 0
 989 1228 973 1284 900 1286 c 0
409 361 m 0
 409 287 442 185 579 185 c 0
 674 185 798 235 869 326 c 1
 673 671 l 1
 506 585 409 485 409 361 c 0
EndSplineSet
EndChar
StartChar: quotesingle
Encoding: 9 39 11
Width: 391
Flags: W
HStem: 1446 20G<368.755 636>
VStem: 308 328<947 1466>
Fore
308 947 m 1
 321 1221 l 1
 373 1466 l 1
 636 1466 l 1
 584 1221 l 1
 477 947 l 1
 308 947 l 1
EndSplineSet
EndChar
StartChar: parenleft
Encoding: 10 40 12
Width: 682
Flags: W
VStem: 165 270<-96.3302 577.438>
Fore
344 -431 m 1
 208 -194 165 53 165 254 c 0
 165 818 501 1229 753 1491 c 1
 973 1491 l 1
 686 1147 435 728 435 200 c 0
 435 -10 478 -221 564 -431 c 1
 344 -431 l 1
EndSplineSet
EndChar
StartChar: parenright
Encoding: 11 41 13
Width: 682
Flags: W
VStem: 531.825 271.175<510.938 1151.4>
Fore
803 837 m 0
 803 285.438 472.145 -167.855 209 -431 c 1
 -13 -431 l 5
 274.003 -87.0264 531.825 360.715 531.825 888.525 c 0
 531.825 1093.59 486.703 1227.01 396 1491 c 1
 618 1491 l 1
 747.99 1248.16 803 1048.63 803 837 c 0
EndSplineSet
EndChar
StartChar: asterisk
Encoding: 12 42 14
Width: 797
Flags: W
HStem: 858 633<623 692>
VStem: 315 662<1176 1360>
Fore
315 1176 m 1
 395 1357 l 1
 551 1301 l 1
 562 1296 573 1290 583 1284 c 1
 587 1327 593 1365 600 1399 c 1
 623 1491 l 1
 800 1491 l 1
 775 1349 l 1
 769 1328 762 1305 754 1282 c 1
 798 1302 865 1326 955 1353 c 0
 967 1357 967 1357 977 1360 c 1
 972 1179 l 1
 888 1153 824 1137 777 1131 c 2
 753 1128 l 1
 778 1101 815 1048 864 967 c 2
 866 962 l 1
 692 858 l 1
 666 909 639 970 613 1041 c 1
 570 982 520 924 468 869 c 2
 460 862 l 1
 332 968 l 1
 425 1059 485 1115 512 1136 c 1
 350 1167 l 2
 339 1170 327 1173 315 1176 c 1
EndSplineSet
EndChar
StartChar: plus
Encoding: 13 43 15
Width: 1196
Flags: W
HStem: 611 226<292 613 891 1212>
VStem: 244 1016<611 837>
Fore
533 237 m 1
 613 611 l 1
 244 611 l 1
 292 837 l 1
 661 837 l 1
 739 1206 l 1
 969 1206 l 1
 891 837 l 1
 1260 837 l 1
 1212 611 l 1
 843 611 l 1
 763 237 l 1
 533 237 l 1
EndSplineSet
EndChar
StartChar: comma
Encoding: 14 44 16
Width: 569
Flags: W
VStem: 67 401<-207 231>
Fore
117 -22 m 1
 171 231 l 1
 468 231 l 1
 414 -22 l 2
 375.222 -207.075 293.652 -260.921 204 -300 c 1
 67 -207 l 1
 194.308 -154.824 230.665 -53.9504 239 -22 c 1
 117 -22 l 1
EndSplineSet
EndChar
StartChar: hyphen
Encoding: 15 45 17
Width: 682
Flags: W
HStem: 388 266<204 700>
VStem: 147 610<388 654>
Fore
147 388 m 1
 204 654 l 1
 757 654 l 1
 700 388 l 1
 147 388 l 1
EndSplineSet
EndChar
StartChar: period
Encoding: 16 46 18
Width: 569
Flags: W
HStem: 0 220<201 430>
VStem: 154 323<0 220>
Fore
154 0 m 1
 201 220 l 1
 477 220 l 1
 430 0 l 1
 154 0 l 1
EndSplineSet
EndChar
StartChar: slash
Encoding: 17 47 19
Width: 595
Flags: W
HStem: -10 21G<-112 140.162> 1450 20G<776.824 1028>
Fore
-112 -10 m 1
 789 1470 l 1
 1028 1470 l 1
 128 -10 l 1
 -112 -10 l 1
EndSplineSet
EndChar
StartChar: zero
Encoding: 18 48 20
Width: 1139
Flags: W
HStem: -10 267<511.8 733.884> 1213 269<690.49 918.795>
VStem: 203 261<303.792 668.204> 969 267<804.217 1162.32>
Fore
561 -10 m 0
 346 -10 203 103 203 411 c 0
 203 587 260 899 363 1115 c 0
 479 1360 651 1482 878 1482 c 0
 1164 1482 1236 1278 1236 1062 c 0
 1236 839 1156 518 1065 337 c 0
 950 114 782 -1 561 -10 c 0
817 1213 m 0
 689 1213 574 1105 496 735 c 0
 475 634 464 550 464 481 c 0
 464 332 514 257 615 257 c 0
 766 268 876 400 954 821 c 0
 964 883 969 938 969 986 c 0
 969 1137 918 1213 817 1213 c 0
EndSplineSet
EndChar
StartChar: one
Encoding: 19 49 21
Width: 1139
Flags: W
HStem: 0 21G<525 767.253> 1452 20G<795.397 1076>
VStem: 402 674<844 1472>
Fore
763 0 m 1
 525 0 l 1
 747 1045 l 1
 599.384 909.126 466.792 858.725 402 844 c 1
 458 1104 l 1
 655.352 1188.86 752.795 1291.68 838 1472 c 1
 1076 1472 l 1
 763 0 l 1
EndSplineSet
EndChar
StartChar: two
Encoding: 20 50 22
Width: 1139
Flags: W
HStem: 0 223<429 1031> 1273 209<686.419 967.088>
VStem: 1026.78 242.22<983.424 1214>
Fore
887 1482 m 0
 1192.68 1482 1269 1298 1269 1167 c 0
 1269 1020 1177.56 851.658 1023 705 c 0
 875.419 557.419 568.996 382.996 429 223 c 1
 1078 223 l 1
 1031 0 l 1
 62 0 l 1
 120.832 199.673 277.924 370.171 376 450 c 0
 587.239 629.256 1026.78 863.732 1026.78 1114.23 c 0
 1026.78 1218.69 921.207 1273 839 1273 c 0
 693 1273 586.722 1175.35 552 1039 c 1
 317 1039 l 1
 370.61 1292.26 584.85 1482 887 1482 c 0
EndSplineSet
EndChar
StartChar: three
Encoding: 21 51 23
Width: 1139
Flags: W
HStem: -10 216<476.407 761.776> 668 215<628 827.319> 1070 21G<331 576> 1268 214<673.745 930.483>
VStem: 166 240<273.469 414.95> 905 251<359.1 596.778> 978 239<1044.08 1219.22>
Fore
1156 577 m 0xfc
 1156 228 859 -7 550 -10 c 0
 327 -10 166 127 166 332 c 0
 166 370 172 409 177 427 c 1
 407 427 l 1
 406 419 406 411 406 403 c 0
 406 286 487 206 597 206 c 0
 808 206 905 383 905 488 c 0xfc
 905 595 807 668 679 668 c 0
 646 668 613 663 580 654 c 1
 628 882 l 1
 704 883 l 2
 968 901 978 1115 978 1131 c 0
 978 1202 902 1268 819 1268 c 0
 691 1268 592 1181 560 1070 c 1
 331 1070 l 1
 380 1298 605 1482 860 1482 c 0
 1078 1482 1217 1360 1217 1185 c 0xfa
 1217 1060 1139 828 981 794 c 1
 1099 772 1156 705 1156 577 c 0xfc
EndSplineSet
EndChar
StartChar: four
Encoding: 22 52 24
Width: 1139
Flags: W
HStem: 0 21G<662 896.281> 327 225<438 732 1009 1140> 1057 20G<873.743 886.733> 1452 20G<957.565 1205>
Fore
662 0 m 1
 732 327 l 1
 126 327 l 1
 173 552 l 1
 975 1472 l 1
 1205 1472 l 1
 1009 552 l 1
 1187 552 l 1
 1140 327 l 1
 962 327 l 1
 892 0 l 1
 662 0 l 1
779 552 m 1
 891 1077 l 1
 438 552 l 1
 779 552 l 1
EndSplineSet
EndChar
StartChar: five
Encoding: 23 53 25
Width: 1139
Flags: W
HStem: -10 214<462.216 747.889> 777 230<645.718 867.362> 1244 228<737 1252>
VStem: 169 245<252.377 414.04> 934 246<410.98 712.614>
Fore
554 -10 m 0
 246 -10 169 182 169 346 c 0
 169 368 171 391 173 415 c 1
 418 415 l 1
 416 398 414 383 414 368 c 0
 414 237 519 204 599 204 c 0
 801 204 934 405 934 589 c 0
 934 739 816 777 718 777 c 0
 619 777 568 747 501 686 c 1
 267 708 l 1
 572 1472 l 1
 1301 1472 l 1
 1252 1244 l 1
 737 1244 l 1
 604 940 l 1
 686 987 735 1007 805 1007 c 0
 1070 1003 1180 830 1180 641 c 0
 1179 339 953 -10 554 -10 c 0
EndSplineSet
EndChar
StartChar: six
Encoding: 24 54 26
Width: 1139
Flags: W
HStem: -10 210<502.268 770.752> 764 213<603.456 868.878> 1257 225<708.492 994.688>
VStem: 193 251<258.522 546.147> 931 231<383.196 702.988>
Fore
918 1482 m 0
 1134 1482 1263 1356 1263 1188 c 0
 1263 1161 1259 1133 1253 1103 c 1
 1042 1104 l 1
 1034 1204 967 1257 867 1257 c 0
 582 1257 515 911 497 858 c 1
 579 937 679 977 797 977 c 0
 1015 977 1162 825 1162 603 c 0
 1162 322 946 -10 584 -10 c 0
 322 -10 193 138 193 426 c 0
 193 507 204 599 226 701 c 0
 313 1109 503 1482 918 1482 c 0
741 764 m 0
 530 764 444 539 444 397 c 0
 444 313 481 200 628 200 c 0
 835 200 931 416 931 570 c 0
 931 687 862 764 741 764 c 0
EndSplineSet
EndChar
StartChar: seven
Encoding: 25 55 27
Width: 1139
Flags: W
HStem: 0 21G<253 527> 1233 239<410 1017>
Fore
359 1233 m 1
 410 1472 l 1
 1359 1472 l 1
 1308 1233 l 1
 1162 1107 905 835 822 692 c 0
 609 328 543 145 511 0 c 1
 253 0 l 1
 306 243 426 502 611 776 c 0
 684 885 848 1067 1017 1233 c 1
 359 1233 l 1
EndSplineSet
EndChar
StartChar: eight
Encoding: 26 56 28
Width: 1139
Flags: W
HStem: -10 209<471.189 769.6> 651 267<636.443 856.851> 1284 198<698.511 960.793>
VStem: 164 244<259.883 527.238> 368 231<954.625 1189.45> 910 241<341.109 598.029> 1000 233<1014.09 1242.22>
Fore
164 330 m 0xf4
 164 508 259 739 533 805 c 1
 423 849 368 923 368 1027 c 0
 368 1221 534 1482 878 1482 c 0
 1081 1482 1233 1383 1233 1186 c 0xea
 1233 1034 1157 892 944 805 c 1
 1102 749 1151 658 1151 536 c 0
 1151 196 832 -10 564 -10 c 0
 306 -10 164 133 164 330 c 0xf4
838 1284 m 0
 714 1284 599 1194 599 1058 c 0
 599 969 662 918 762 918 c 0
 917 918 1000 1039 1000 1145 c 0
 1000 1228 937 1284 838 1284 c 0
910 490 m 0xf4
 910 597 829 651 701 651 c 0
 520 651 408 529 408 379 c 0
 408 271 487 199 610 199 c 0
 815 199 910 363 910 490 c 0xf4
EndSplineSet
EndChar
StartChar: nine
Encoding: 27 57 29
Width: 1139
Flags: W
HStem: -10 229<467.538 779.457> 495 227<613.379 878.57> 1257 225<710.795 960.815>
VStem: 308 250<775.432 1079.48> 1019 259<923.789 1202.36>
Fore
553 -10 m 0
 346 -10 208 108 208 285 c 0
 208 312 211 340 217 369 c 1
 432 369 l 1
 431 362 431 355 431 348 c 0
 431 245 524 219 613 219 c 0
 814 219 888 347 948 579 c 1
 865 511 787 495 669 495 c 0
 433 495 308 663 308 856 c 0
 308 1145 531 1482 887 1482 c 0
 1200 1482 1278 1268 1278 1049 c 0
 1278 967 1267 874 1245 771 c 0
 1158 363 968 -10 553 -10 c 0
737 722 m 0
 938 722 1019 936 1019 1071 c 0
 1019 1181 957 1257 846 1257 c 0
 652 1257 558 1056 558 907 c 0
 558 792 624 722 737 722 c 0
EndSplineSet
EndChar
StartChar: colon
Encoding: 28 58 30
Width: 569
Flags: W
HStem: 0 230<209 415> 832 230<386 592>
VStem: 160 481<0 1062>
Fore
337 832 m 1
 386 1062 l 1
 641 1062 l 1
 592 832 l 1
 337 832 l 1
160 0 m 1
 209 230 l 1
 464 230 l 1
 415 0 l 1
 160 0 l 1
EndSplineSet
EndChar
StartChar: semicolon
Encoding: 29 59 31
Width: 569
Flags: W
HStem: 832 230<383 589>
VStem: 100 538<-213 1062>
Fore
334 832 m 1
 383 1062 l 1
 638 1062 l 1
 589 832 l 1
 334 832 l 1
157 0 m 1
 201 205 l 1
 456 205 l 1
 412 0 l 2
 377 -163 309 -262 207 -297 c 1
 100 -213 l 1
 184.256 -179.026 230.222 -111 259 0 c 1
 157 0 l 1
EndSplineSet
EndChar
StartChar: less
Encoding: 30 60 32
Width: 1196
Flags: W
HStem: 226 993<1131 1342>
Fore
248 641 m 1
 284 809 l 1
 1342 1219 l 1
 1293 990 l 1
 577 724 l 1
 1180 455 l 1
 1131 226 l 1
 248 641 l 1
EndSplineSet
EndChar
StartChar: equal
Encoding: 31 61 33
Width: 1196
Flags: W
HStem: 417 218<249 1171> 812 218<333 1255>
Fore
1255 812 m 1
 287 812 l 1
 333 1030 l 1
 1301 1030 l 1
 1255 812 l 1
1171 417 m 1
 203 417 l 1
 249 635 l 1
 1217 635 l 1
 1171 417 l 1
EndSplineSet
EndChar
StartChar: greater
Encoding: 32 62 34
Width: 1196
Flags: W
HStem: 226 993<160 371>
Fore
1219 641 m 1
 160 226 l 1
 209 455 l 1
 904 724 l 1
 322 990 l 1
 371 1219 l 1
 1255 809 l 1
 1219 641 l 1
EndSplineSet
EndChar
StartChar: question
Encoding: 33 63 35
Width: 1139
Flags: W
HStem: 0 235<471 695> 1291 213<703.586 994.036>
VStem: 1050 226<999 1235.87>
Fore
885 1504 m 0
 1130 1504 1276 1372 1276 1181 c 0
 1276 1021 1202 908 1061 782 c 2
 939 676 l 2
 815 568 763 441 751 361 c 1
 509 361 l 1
 577 645 690 713 810 803 c 0
 967 925 1050 1025 1050 1136 c 0
 1050 1238 956 1291 842 1291 c 0
 698 1291 587 1166 546 1046 c 1
 312 1046 l 1
 381 1300 594 1504 885 1504 c 0
421 0 m 1
 471 235 l 1
 745 235 l 1
 695 0 l 1
 421 0 l 1
EndSplineSet
EndChar
StartChar: at
Encoding: 34 64 36
Width: 2079
Flags: W
HStem: -431 200<767.435 1381.16> -33 252<1304.5 1539.35> -3 241<745.5 1066.93> 849 235<1062.32 1302.58> 1279 214<1101.57 1580.84>
VStem: 183 231<73.6216 537.431> 584 248<267.765 552.636> 1904 223<632.396 1016.23>
Fore
1347 -33 m 0xdf
 1262 -33 1185 -9 1185 88 c 0
 1185 98 1185 109 1187 121 c 1
 1098 38 986 -3 853 -3 c 0xbf
 638 -3 584 189 584 321 c 0
 584 695 925 1084 1241 1084 c 0
 1421 1084 1466 986 1476 949 c 1
 1476 945 1477 941 1477 938 c 1
 1541 1079 l 1
 1755 1079 l 1
 1410 268 l 1
 1411 256 1422 219 1469 219 c 0
 1666 219 1904 556 1904 831 c 0
 1904 1106 1672 1279 1287 1279 c 0
 781 1279 414 682 414 302 c 0
 414 89 513 -231 1071 -231 c 0
 1355 -231 1524 -165 1752 19 c 1
 2009 19 l 1
 1829 -239 1470 -431 1031 -431 c 0
 333 -431 183 -32 183 235 c 0
 183 748 605 1493 1419 1493 c 0
 1854 1493 2127 1246 2127 886 c 0
 2127 431 1704 -33 1347 -33 c 0xdf
832 389 m 0
 832 300 872 238 957 238 c 0
 1120 238 1257 414 1310 583 c 2
 1325 643 l 2
 1330 667 1332 688 1332 708 c 0
 1332 821 1257 849 1193 849 c 0
 996 849 832 573 832 389 c 0
EndSplineSet
EndChar
StartChar: A
Encoding: 35 65 37
Width: 1366
Flags: W
HStem: 0 21G<-2 285.979 1073.97 1368> 433 240<648 970> 1430 20G<855.014 1080.03>
Fore
867 1450 m 1
 1076 1450 l 1
 1368 0 l 1
 1079 0 l 1
 970 433 l 1
 554 433 l 1
 273 0 l 1
 -2 0 l 1
 867 1450 l 1
976 673 m 1
 895 1109 l 1
 648 673 l 1
 976 673 l 1
EndSplineSet
EndChar
StartChar: B
Encoding: 36 66 38
Width: 1366
Flags: W
HStem: 0 220<431 994.5> 629 213<563 975.959> 1231 219<646 1148.1>
VStem: 1113 246<322.608 586.05> 1185 239<966.433 1195.5>
Fore
164 0 m 1xf0
 472 1450 l 1
 1008 1450 l 2
 1255 1450 1424 1370 1424 1154 c 0
 1424 985 1323 836 1185 772 c 1xe8
 1301 736 1359 656 1359 531 c 0
 1359 230 1145 0 709 0 c 2
 164 0 l 1xf0
1185 1107 m 0
 1185 1225 1080 1231 899 1231 c 2
 646 1231 l 1
 563 842 l 1
 840 842 l 2
 1120 842 1185 960 1185 1107 c 0
431 220 m 1
 756 220 l 2
 935 220 1113 245 1113 488 c 0xf0
 1113 650 895 629 817 629 c 2
 518 629 l 1
 431 220 l 1
EndSplineSet
EndChar
StartChar: C
Encoding: 37 67 39
Width: 1479
Flags: W
HStem: -10 220<657.819 1037.56> 1257 220<845.952 1257.99>
VStem: 235 247<396.045 813.659> 1366 230<1050 1180.61>
Fore
833 210 m 0
 1034 210 1222 339 1270 480 c 1
 1500 480 l 1
 1310 75 1008 -10 789 -10 c 0
 346 -10 235 282 235 525 c 0
 235 998 569 1477 1108 1477 c 0
 1398 1477 1574 1327 1596 1050 c 1
 1366 1050 l 1
 1351 1188 1235 1257 1057 1257 c 0
 663 1257 482 873 482 599 c 0
 482 379 610 210 833 210 c 0
EndSplineSet
EndChar
StartChar: D
Encoding: 38 68 40
Width: 1479
Flags: W
HStem: 0 213<435 920.531> 1237 213<653 1146.63>
VStem: 1317 247<656.441 1077.66>
Fore
981 1450 m 2
 1412 1450 1564 1259 1564 972 c 0
 1564 720 1445 0 697 0 c 2
 168 0 l 1
 476 1450 l 1
 981 1450 l 2
1317 895 m 0
 1317 1169 1115 1237 933 1237 c 2
 653 1237 l 1
 435 213 l 1
 720 213 l 2
 1095 213 1317 550 1317 895 c 0
EndSplineSet
EndChar
StartChar: E
Encoding: 39 69 41
Width: 1366
Flags: W
HStem: 0 229<450 1222> 621 230<582 1153> 1218 232<660 1481>
Fore
162 0 m 1
 470 1450 l 1
 1530 1450 l 1
 1481 1218 l 1
 660 1218 l 1
 582 851 l 1
 1202 851 l 1
 1153 621 l 1
 533 621 l 1
 450 229 l 1
 1271 229 l 1
 1222 0 l 1
 162 0 l 1
EndSplineSet
EndChar
StartChar: F
Encoding: 40 70 42
Width: 1251
Flags: W
HStem: 0 21G<167 410.251> 621 230<587 1140> 1218 232<665 1417>
Fore
167 0 m 1
 475 1450 l 1
 1466 1450 l 1
 1417 1218 l 1
 665 1218 l 1
 587 851 l 1
 1189 851 l 1
 1140 621 l 1
 538 621 l 1
 406 0 l 1
 167 0 l 1
EndSplineSet
EndChar
StartChar: G
Encoding: 41 71 43
Width: 1479
Flags: W
HStem: -10 220<652.88 1068.91> 464 220<1050 1263> 1236 241<850.48 1236.53>
VStem: 235 246<396.552 817.443>
Fore
481 598 m 0
 481 445 551 210 833 210 c 0
 1052 210 1222 301 1263 464 c 1
 1004 464 l 1
 1050 684 l 1
 1549 684 l 1
 1543 636 1532 591 1520 546 c 0
 1420 175 1177 -10 789 -10 c 0
 346 -10 235 288 235 528 c 0
 235 1011 580 1477 1108 1477 c 0
 1400 1477 1574 1328 1596 1050 c 1
 1338 1050 l 1
 1312 1177 1202 1236 1053 1236 c 0
 749 1236 481 953 481 598 c 0
EndSplineSet
EndChar
StartChar: H
Encoding: 42 72 44
Width: 1479
Flags: W
HStem: 0 21G<164 408.265 1074 1318.25> 619 244<587 1206> 1430 20G<467.752 712 1377.74 1622>
Fore
164 0 m 1
 472 1450 l 1
 712 1450 l 1
 587 863 l 1
 1257 863 l 1
 1382 1450 l 1
 1622 1450 l 1
 1314 0 l 1
 1074 0 l 1
 1206 619 l 1
 536 619 l 1
 404 0 l 1
 164 0 l 1
EndSplineSet
EndChar
StartChar: I
Encoding: 43 73 45
Width: 650
Flags: W
HStem: 0 210<70 250 490 625> 1250 200<333 471 711 891>
VStem: 25 908<0 1450>
Fore
670 210 m 1
 625 0 l 1
 25 0 l 1
 70 210 l 1
 250 210 l 1
 471 1250 l 1
 291 1250 l 1
 333 1450 l 1
 933 1450 l 1
 891 1250 l 1
 711 1250 l 1
 490 210 l 1
 670 210 l 1
EndSplineSet
EndChar
StartChar: J
Encoding: 44 74 46
Width: 1024
Flags: W
HStem: -10 225<423.036 627.302> 1235 215<716 908>
VStem: 142 248<245.676 409.119>
Fore
390 373 m 0
 390 240 464 215 514 215 c 0
 635 215 716 338 745 471 c 2
 908 1235 l 1
 671 1235 l 1
 716 1450 l 1
 1173 1450 l 1
 962 456 l 2
 938 345 862 -10 461 -10 c 0
 203 -10 142 125 142 284 c 0
 142 344 150 401 161 455 c 1
 398 455 l 1
 393 425 390 398 390 373 c 0
EndSplineSet
EndChar
StartChar: K
Encoding: 45 75 47
Width: 1366
Flags: W
HStem: 0 21G<150 380.249 1038.47 6913> 1430 20G<453.752 684 1305.07 1624>
Fore
150 0 m 1
 458 1450 l 1
 684 1450 l 1
 551 825 l 1
 1330 1450 l 1
 1624 1450 l 1
 830 806 l 1
 1346 0 l 1
 1053 -1 l 1
 609 610 l 1
 482 499 l 1
 376 0 l 1
 150 0 l 1
EndSplineSet
EndChar
StartChar: L
Encoding: 46 76 48
Width: 1139
Flags: W
HStem: 0 219<427 1060> 1430 20G<453.752 688>
VStem: 150 957<0 219>
Fore
150 0 m 1
 458 1450 l 1
 688 1450 l 1
 427 219 l 1
 1107 219 l 1
 1060 0 l 1
 150 0 l 1
EndSplineSet
EndChar
StartChar: M
Encoding: 47 77 49
Width: 1706
Flags: W
HStem: 0 21G<152 376.252 672.273 1038.23 1330 1554.25> 1430 20G<455.752 671.622 1635.92 1858>
Fore
152 0 m 1
 460 1450 l 1
 668 1450 l 1
 894 202 l 1
 1648 1450 l 1
 1858 1450 l 1
 1550 0 l 1
 1330 0 l 1
 1492 762 l 1
 1026 0 l 1
 676 0 l 1
 534 762 l 1
 372 0 l 1
 152 0 l 1
EndSplineSet
EndChar
StartChar: N
Encoding: 48 78 50
Width: 1479
Flags: W
HStem: 0 21G<156 399.246 1061.38 1315.25> 1430 20G<459.752 712.561 1374.75 1619>
Fore
156 0 m 1
 464 1450 l 1
 703 1450 l 1
 1171 471 l 1
 1379 1450 l 1
 1619 1450 l 1
 1311 0 l 1
 1071 0 l 1
 602 975 l 1
 395 0 l 1
 156 0 l 1
EndSplineSet
EndChar
StartChar: O
Encoding: 49 79 51
Width: 1593
Flags: W
HStem: -10 230<642.46 1068.4> 1246 232<855.899 1268.94>
VStem: 235 249<378.363 797.823> 1426 249<656.791 1089.52>
Fore
798 -10 m 0
 443 -10 235 201 235 519 c 0
 235 829 432 1472 1115 1478 c 0
 1563 1478 1675 1174 1675 944 c 0
 1675 564 1424 -10 798 -10 c 0
1426 896 m 0
 1426 1115 1303 1246 1068 1246 c 0
 684 1246 484 900 484 563 c 0
 484 406 557 220 847 220 c 0
 1310 220 1426 683 1426 896 c 0
EndSplineSet
EndChar
StartChar: P
Encoding: 50 80 52
Width: 1366
Flags: W
HStem: 0 21G<158 406.241> 580 212<570 1084.74> 1236 214<665 1173.96>
VStem: 1246 263<928.878 1174.09>
Fore
1019 1450 m 2
 1387 1450 1509 1329 1509 1147 c 0
 1509 900 1366 580 851 580 c 2
 525 580 l 1
 402 0 l 1
 158 0 l 1
 466 1450 l 1
 1019 1450 l 2
1246 1074 m 0
 1246 1204 1120 1236 936 1236 c 2
 665 1236 l 1
 570 792 l 1
 845 792 l 2
 1120 792 1246 905 1246 1074 c 0
EndSplineSet
EndChar
StartChar: Q
Encoding: 51 81 53
Width: 1659
Flags: W
HStem: -14 189<1376.97 1519.98> -10 174<785.867 1063.64> 298 205<885.849 1075.62> 1251 227<845.768 1274.81>
VStem: 235 237<389.129 797.669> 1437 237<638.315 1086.53>
Fore
1001 503 m 0x3c
 1157 503 1232 419 1250 392 c 1
 1390 526 1437 769 1437 898 c 0
 1437 1061 1363 1251 1068 1251 c 0
 546 1251 472 706 472 572 c 0
 472 397 560 314 620 280 c 1
 684 416 845 503 1001 503 c 0x3c
1674 942 m 0
 1674 722 1583 355 1360 204 c 1
 1373 185 1396 175 1429 175 c 0
 1459 175 1524 188 1581 228 c 1
 1678 90 l 1
 1589 21 1495 -14 1396 -14 c 0xbc
 1295 -14 1215 22 1175 88 c 1
 1043 12 933 -10 798 -10 c 0x7c
 443 -10 235 201 235 519 c 0
 235 812 432 1478 1115 1478 c 0
 1480 1478 1674 1264 1674 942 c 0
1098 226 m 1
 1068 273 1028 297 977 298 c 0
 934 298 833 282 775 174 c 1
 797 167 825 164 856 164 c 0x7c
 976 164 1070 206 1098 226 c 1
EndSplineSet
EndChar
StartChar: R
Encoding: 52 82 54
Width: 1400
Flags: W
HStem: 0 21G<158 388.241 1062.14 1387> 580 206<551 786> 1239 211<647 1159.32>
VStem: 1234 274<920.021 1177.06>
Fore
1508 1141 m 0
 1508 925 1375 654 1051 596 c 1
 1387 0 l 1
 1072 0 l 1
 786 580 l 1
 507 580 l 1
 384 0 l 1
 158 0 l 1
 466 1450 l 1
 1019 1450 l 2
 1385 1450 1508 1327 1508 1141 c 0
1234 1073 m 0
 1234 1173 1168 1239 924 1239 c 2
 647 1239 l 1
 551 786 l 1
 832 786 l 2
 1115 786 1234 905 1234 1073 c 0
EndSplineSet
EndChar
StartChar: S
Encoding: 53 83 55
Width: 1366
Flags: W
HStem: -10 224<545.02 965.807> 1250 221<725.758 1115.85>
VStem: 187 243<319.446 484.219> 366 246<965.665 1153.24> 1113 248<333.467 537.697> 1198 235<1019 1169.95>
Fore
715 -10 m 0xd8
 259 -10 187 225 187 382 c 0
 187 420 191 460 199 502 c 1
 432 502 l 1
 431 490 430 479 430 467 c 0
 430 265 599 214 753 214 c 0
 955 214 1113 308 1113 448 c 0xe8
 1113 543 1050 574 740 667 c 0
 498 740 366 791 366 984 c 0
 366 1275 645 1471 977 1471 c 0
 1268 1471 1433 1344 1433 1059 c 0
 1433 1046 1433 1033 1432 1019 c 1
 1198 1019 l 1
 1198 1025 l 0xd4
 1198 1175 1112 1250 938 1250 c 0
 801 1250 612 1200 612 1048 c 0
 612 956 686 933 1046 816 c 0
 1198 769 1361 717 1361 526 c 0
 1361 244 1096 -10 715 -10 c 0xd8
EndSplineSet
EndChar
StartChar: T
Encoding: 54 84 56
Width: 1251
Flags: W
HStem: 0 21G<508 752.257> 1231 219<356 770 1010 1472>
Fore
508 0 m 1
 770 1231 l 1
 310 1231 l 1
 356 1450 l 1
 1518 1450 l 1
 1472 1231 l 1
 1010 1231 l 1
 748 0 l 1
 508 0 l 1
EndSplineSet
EndChar
StartChar: U
Encoding: 55 85 57
Width: 1479
Flags: W
HStem: -10 250<616.888 982.625> 1430 20G<464.764 719 1368.76 1622>
Fore
521 473 m 0
 521 321 622 240 788 240 c 0
 1106 240 1172 504 1186 568 c 2
 1373 1450 l 1
 1622 1450 l 1
 1435 567 l 2
 1353 182 1121 -10 739 -10 c 0
 391 -10 259 145 259 377 c 0
 259 434 266 497 282 567 c 2
 469 1450 l 1
 719 1450 l 1
 532 568 l 2
 525 534 521 502 521 473 c 0
EndSplineSet
EndChar
StartChar: V
Encoding: 56 86 58
Width: 1366
Flags: W
HStem: 0 21G<573.414 788.166> 1430 20G<317 654.554 1319.68 1658>
Fore
577 0 m 1
 317 1450 l 1
 652 1450 l 1
 777 471 l 1
 1331 1450 l 1
 1658 1450 l 1
 776 0 l 1
 577 0 l 1
EndSplineSet
EndChar
StartChar: W
Encoding: 57 87 59
Width: 1933
Flags: W
HStem: 0 21G<365.545 629.111 1296.48 1574.81> 1430 20G<333 587.773 1119.11 1402.56 1925.08 2205>
VStem: 333 254<1291.11 1450>
Fore
366 0 m 1
 333 1450 l 1
 587 1450 l 1
 623 519 l 1
 1130 1450 l 1
 1400 1450 l 1
 1519 519 l 1
 1934 1450 l 1
 2205 1450 l 1
 1566 0 l 1
 1299 0 l 1
 1173 999 l 1
 618 0 l 1
 366 0 l 1
EndSplineSet
EndChar
StartChar: X
Encoding: 58 88 60
Width: 1366
Flags: W
HStem: 0 21G<9 336.574 1033.96 1353> 1430 20G<384 702.117 1293.3 1621>
Fore
9 0 m 1
 655 756 l 1
 384 1450 l 1
 694 1450 l 1
 888 972 l 1
 1311 1450 l 1
 1621 1450 l 1
 1029 756 l 1
 1353 0 l 1
 1043 0 l 1
 797 544 l 1
 319 0 l 1
 9 0 l 1
EndSplineSet
EndChar
StartChar: Y
Encoding: 59 89 61
Width: 1366
Flags: W
HStem: 0 21G<526 814.251> 1431 20G<314 641.908 1320.94 1658>
Fore
526 0 m 1
 658 621 l 1
 314 1451 l 1
 634 1451 l 1
 857 887 l 1
 1338 1451 l 1
 1658 1451 l 1
 942 621 l 1
 810 0 l 1
 526 0 l 1
EndSplineSet
EndChar
StartChar: Z
Encoding: 60 90 62
Width: 1251
Flags: W
HStem: 0 230<424 1200> 1220 230<353 1144>
Fore
41 0 m 1
 91 237 l 1
 1144 1220 l 1
 304 1220 l 1
 353 1450 l 1
 1521 1450 l 1
 1472 1220 l 1
 424 230 l 1
 1249 230 l 1
 1200 0 l 1
 41 0 l 1
EndSplineSet
EndChar
StartChar: bracketleft
Encoding: 61 91 63
Width: 569
Flags: W
HStem: -407 188<312 449> 1278 188<631 808>
VStem: 52 796<-407 1466>
Fore
52 -407 m 1
 451 1466 l 1
 848 1466 l 1
 808 1278 l 1
 631 1278 l 1
 312 -219 l 1
 489 -219 l 1
 449 -407 l 1
 52 -407 l 1
EndSplineSet
EndChar
StartChar: backslash
Encoding: 62 92 64
Width: 569
Flags: W
VStem: 278 326<-25 1491> 381 223<-25 1479.31>
Fore
381 -25 m 1x40
 278 1491 l 1
 502 1491 l 1
 604 -25 l 1x80
 381 -25 l 1x40
EndSplineSet
EndChar
StartChar: bracketright
Encoding: 63 93 65
Width: 569
Flags: W
HStem: -407 188<-8 171> 1277 189<351 489>
VStem: -48 796<-407 1466>
Fore
349 -407 m 1
 -48 -407 l 1
 -8 -219 l 1
 171 -219 l 1
 489 1277 l 1
 310 1277 l 1
 351 1466 l 1
 748 1466 l 1
 349 -407 l 1
EndSplineSet
EndChar
StartChar: asciicircum
Encoding: 64 94 66
Width: 961
Flags: W
VStem: 201 853<690 690>
Fore
435 690 m 1
 201 690 l 1
 704 1491 l 1
 889 1491 l 1
 1054 690 l 1
 823 690 l 1
 736 1209 l 1
 435 690 l 1
EndSplineSet
EndChar
StartChar: underscore
Encoding: 65 95 67
Width: 1139
Flags: W
HStem: -427 190<-81 1071>
Fore
-122 -427 m 1
 -81 -237 l 1
 1112 -237 l 1
 1071 -427 l 1
 -122 -427 l 1
EndSplineSet
EndChar
StartChar: grave
Encoding: 66 96 68
Width: 682
Flags: W
HStem: 1454 20G<373 678.429>
VStem: 373 376<1194 1474>
Fore
749 1194 m 1
 545 1194 l 1
 373 1474 l 1
 673 1474 l 1
 749 1194 l 1
EndSplineSet
EndChar
StartChar: a
Encoding: 67 97 69
Width: 1139
Flags: W
HStem: -24 179<385.343 677.582> 876 210<574.023 893.158>
VStem: 126 234<182.545 363.431> 928 239<681.881 944>
Fore
266 759 m 1
 387 1044 634 1086 815 1086 c 0
 1005 1086 1167 1037 1167 851 c 0
 1167 820 1158 765 1141 685 c 2
 1090 445 l 2
 1045 236 1033 146 1033 118 c 0
 1033 77 1039 38 1052 0 c 1
 814 0 l 1
 812 19 810 39 810 59 c 0
 810 71 810 83 812 96 c 1
 684 5 575 -24 432 -24 c 0
 179 -24 126 116 126 210 c 0
 126 351 209 506 430 573 c 0
 584 622 719 607 919 674 c 1
 922 696 928 717 928 742 c 0
 928 834 860 876 744 876 c 0
 617 876 518 816 473 729 c 1
 266 759 l 1
360 261 m 0
 360 176 454 155 520 155 c 0
 695 155 783 251 812 291 c 0
 844 329 864 416 879 487 c 1
 657 412 360 458 360 261 c 0
EndSplineSet
EndChar
StartChar: b
Encoding: 68 98 70
Width: 1139
Flags: W
HStem: -10 208<504.049 778.015> 870 216<659.194 908.06> 1446 20G<441.744 670>
VStem: 975 214<444.742 803.615>
Fore
594 -10 m 0
 438 -10 370 74 363 84 c 1
 345 0 l 1
 134 0 l 1
 446 1466 l 1
 670 1466 l 1
 568 990 l 1
 660 1054 749 1086 836 1086 c 0
 1059 1086 1189 939 1189 708 c 0
 1189 389 978 -10 594 -10 c 0
774 870 m 0
 592 870 445 641 445 412 c 0
 445 286 503 198 624 198 c 0
 883 198 975 484 975 651 c 0
 975 812 888 870 774 870 c 0
EndSplineSet
EndChar
StartChar: c
Encoding: 69 99 71
Width: 1024
Flags: W
HStem: -10 210<470.177 768.836> 879 207<607.458 885.948>
VStem: 175 230<269.119 629.717> 939 222<707.021 827.873>
Fore
604 200 m 0
 763 200 845 284 874 403 c 1
 1091 403 l 1
 1016 96 783 -10 561 -10 c 0
 299 -10 175 161 175 376 c 0
 175 607 321 1086 795 1086 c 0
 1083 1086 1161 908 1161 784 c 0
 1161 756 1157 727 1151 696 c 1
 936 696 l 1
 938 708 939 719 939 730 c 0
 939 817 860 879 758 879 c 0
 496 879 405 570 405 420 c 0
 405 320 445 200 604 200 c 0
EndSplineSet
EndChar
StartChar: d
Encoding: 70 100 72
Width: 1139
Flags: W
HStem: -10 208<446.34 714.468> 870 216<564.372 834.176> 1446 20G<1072.71 1301>
VStem: 164 211<272.02 632.511>
Fore
164 372 m 0
 164 720 391 1086 749 1086 c 0
 836 1086 911 1054 975 990 c 1
 1077 1466 l 1
 1301 1466 l 1
 989 0 l 1
 778 0 l 1
 796 84 l 1
 724 28 633 -10 525 -10 c 0
 236 -10 164 206 164 372 c 0
583 198 m 0
 812 198 902 493 902 636 c 0
 902 727 865 870 719 870 c 0
 444 870 375 540 375 423 c 0
 375 323 415 198 583 198 c 0
EndSplineSet
EndChar
StartChar: e
Encoding: 71 101 73
Width: 1139
Flags: W
HStem: -10 214<489.518 794.236> 485 190<461 959> 875 211<590.15 909.254>
VStem: 168 243<283.07 477.849> 961 226<675.872 825.392>
Fore
625 204 m 0
 749 204 833 252 878 333 c 1
 1119 333 l 1
 1033 124 839 -10 579 -10 c 0
 250 -10 168 184 168 361 c 0
 168 638 343 1086 802 1086 c 0
 1110 1086 1187 872 1187 700 c 0
 1187 614 1172 542 1156 485 c 1
 415 485 l 1
 412 464 411 445 411 427 c 0
 411 292 491 204 625 204 c 0
961 708 m 0
 961 808 905 875 758 875 c 0
 591 875 481 765 461 675 c 1
 959 675 l 1
 960 687 961 698 961 708 c 0
EndSplineSet
EndChar
StartChar: f
Encoding: 72 102 74
Width: 569
Flags: W
HStem: 0 21G<153 384.254> 757 198<222 314 583 697> 1304 211<685.342 858.665>
VStem: 153 803<0 1488>
Fore
153 0 m 1
 314 757 l 1
 180 757 l 1
 222 955 l 1
 356 955 l 1
 403 1175 l 2
 471 1497 718 1515 784 1515 c 0
 851 1515 909 1506 956 1488 c 1
 911 1277 l 1
 850 1297 836 1304 793 1304 c 0
 703 1304 643 1239 618 1121 c 2
 583 955 l 1
 739 955 l 1
 697 757 l 1
 541 757 l 1
 380 0 l 1
 153 0 l 1
EndSplineSet
EndChar
StartChar: g
Encoding: 73 103 75
Width: 1139
Flags: W
HStem: -435 219<335.431 648.964> 0 247<468.445 734.786> 839 247<578.405 838.158>
VStem: 72 225<-230 -84.6641> 162 255<296.277 634.047>
Fore
72 -179 m 0xf0
 72 -137 79 -106 86 -74 c 1
 299 -74 l 1
 298 -81 297 -88 297 -95 c 0xf0
 297 -143 341 -216 475 -216 c 0
 632 -216 732 -139 776 16 c 2
 790 75 l 1
 716 25 628 0 525 0 c 0
 234 0 162 218 162 378 c 0xe8
 162 716 391 1086 757 1086 c 0
 898 1086 993 1049 1043 974 c 1
 1062 1062 l 1
 1228 1062 l 1
 1033 144 l 2
 979 -107 892 -274 770 -356 c 0
 690 -412 572 -435 430 -435 c 0
 121 -435 72 -281 72 -179 c 0xf0
716 839 m 0
 477 839 417 548 417 430 c 0xe8
 417 308 476 247 593 247 c 0
 738 247 830 345 872 541 c 0
 881 584 886 622 886 656 c 0
 886 771 832 839 716 839 c 0
EndSplineSet
EndChar
StartChar: h
Encoding: 74 104 76
Width: 1139
Flags: W
HStem: 0 21G<135 369.248 770 1004.25> 832 263<640.632 889.488> 1446 20G<442.744 677>
VStem: 135 1008<0 673>
Fore
135 0 m 1
 447 1466 l 1
 677 1466 l 1
 579 1008 l 1
 643 1066 728 1095 833 1095 c 0
 1083 1095 1200 940 1143 673 c 2
 1000 0 l 1
 770 0 l 1
 903 624 l 2
 935 775 885 832 773 832 c 0
 625 832 510 677 478 532 c 2
 365 0 l 1
 135 0 l 1
EndSplineSet
EndChar
StartChar: i
Encoding: 75 105 77
Width: 455
Flags: W
HStem: 0 21G<106 350.256> 1042 20G<327.744 572> 1218 248<423 601>
VStem: 106 548<0 1466>
Fore
370 1218 m 1
 423 1466 l 1
 654 1466 l 1
 601 1218 l 1
 370 1218 l 1
106 0 m 1
 332 1062 l 1
 572 1062 l 1
 346 0 l 1
 106 0 l 1
EndSplineSet
EndChar
StartChar: j
Encoding: 76 106 78
Width: 455
Flags: W
HStem: -428 215<-125.72 42.6979> 1042 20G<333.749 566> 1220 246<424 599>
VStem: -182 834<-412 1466>
Fore
371 1220 m 1
 424 1466 l 1
 652 1466 l 1
 599 1220 l 1
 371 1220 l 1
-182 -412 m 1
 -138 -205 l 1
 -104 -210 -83 -213 -74 -213 c 0
 6 -213 73 -182 108 -20 c 2
 338 1062 l 1
 566 1062 l 1
 328 -58 l 2
 257 -390 88 -428 -26 -428 c 0
 -83 -428 -135 -423 -182 -412 c 1
EndSplineSet
EndChar
StartChar: k
Encoding: 77 107 79
Width: 1024
Flags: W
HStem: 0 21G<136 360.256 731.983 1016> 1042 20G<899.725 1201> 1446 20G<443.744 668>
Fore
136 0 m 1
 448 1466 l 1
 668 1466 l 1
 501 684 l 1
 922 1062 l 1
 1201 1062 l 1
 727 636 l 1
 1016 0 l 1
 740 0 l 1
 546 484 l 1
 439 390 l 1
 356 0 l 1
 136 0 l 1
EndSplineSet
EndChar
StartChar: l
Encoding: 78 108 80
Width: 455
Flags: W
HStem: 0 21G<104 344.256> 1446 20G<411.744 652>
VStem: 104 548<0 1466>
Fore
104 0 m 1
 416 1466 l 1
 652 1466 l 1
 340 0 l 1
 104 0 l 1
EndSplineSet
EndChar
StartChar: m
Encoding: 79 109 81
Width: 1706
Flags: W
HStem: 0 21G<135 366.247 742 990.246 1356 1578.25> 842 244<647.645 869.498 1253.54 1569.16>
Fore
1120 948 m 1
 1205 1051 1365 1086 1477 1086 c 0
 1655 1086 1743 1007 1743 849 c 0
 1743 801 1736 765 1729 729 c 2
 1574 0 l 1
 1356 0 l 1
 1498 669 l 2
 1501 688 1503 705 1503 721 c 0
 1503 800 1463 842 1385 842 c 0
 1239 842 1150 767 1117 617 c 2
 986 0 l 1
 742 0 l 1
 889 690 l 2
 892 704 893 718 893 730 c 0
 893 810 831 842 757 842 c 0
 590 842 516 714 479 551 c 2
 362 0 l 1
 135 0 l 1
 361 1062 l 1
 569 1062 l 1
 551 978 l 1
 634 1050 734 1086 849 1086 c 0
 1053 1086 1110 987 1120 948 c 1
EndSplineSet
EndChar
StartChar: n
Encoding: 80 110 82
Width: 1139
Flags: W
HStem: 0 21G<135 372.248 776 1004.25> 828 267<643.148 890.215>
VStem: 135 1008<0 673>
Fore
583 1012 m 1
 661.522 1072.89 733 1095 833 1095 c 0
 1083.18 1095 1199.91 940.218 1143 673 c 2
 1000 0 l 1
 776 0 l 1
 909 624 l 2
 937.501 758.191 896.855 828 772 828 c 0
 597.4 828 512.551 682.994 481 532 c 2
 368 0 l 1
 135 0 l 1
 361 1064 l 1
 594 1064 l 1
 583 1012 l 1
EndSplineSet
EndChar
StartChar: o
Encoding: 81 111 83
Width: 1139
Flags: W
HStem: -11 217<466.962 763.395> 864 222<601.389 882.662>
VStem: 162 245<269.035 623.734> 948 249<533.099 795.658>
Fore
162 364 m 0
 162 581 289 1086 797 1086 c 0
 1117 1086 1197 872 1197 702 c 0
 1197 654 1191 602 1179 546 c 0
 1067 20 700 -11 564 -11 c 0
 242 -11 162 185 162 364 c 0
750 864 m 0
 476 864 407 538 407 412 c 0
 407 309 448 206 610 206 c 0
 882 206 948 519 948 648 c 0
 948 782 880 864 750 864 c 0
EndSplineSet
EndChar
StartChar: p
Encoding: 82 112 84
Width: 1139
Flags: W
HStem: -10 216<503.586 767.184> 878 208<626.128 891.496>
VStem: 962 211<440.784 809.021>
Fore
1173 704 m 0
 1173 357 949 -10 589 -10 c 0
 502 -10 427 22 362 86 c 1
 261 -390 l 1
 37 -390 l 1
 349 1076 l 1
 560 1076 l 1
 542 992 l 1
 615 1048 717 1086 813 1086 c 0
 1101 1086 1173 872 1173 704 c 0
756 878 m 0
 530 878 435 590 435 441 c 0
 435 347 472 206 620 206 c 0
 874 206 962 501 962 653 c 0
 962 756 923 878 756 878 c 0
EndSplineSet
EndChar
StartChar: q
Encoding: 83 113 85
Width: 1139
Flags: W
HStem: -10 216<461.765 711.593> 878 208<593.978 866.008>
VStem: 181 215<273.28 625.307>
Fore
777 1086 m 0
 880 1086 957 1052 1008 992 c 1
 1026 1076 l 1
 1237 1076 l 1
 925 -390 l 1
 701 -390 l 1
 802 86 l 1
 711 22 622 -10 535 -10 c 0
 252 -10 181 206 181 368 c 0
 181 698 400 1086 777 1086 c 0
597 206 m 0
 779 206 925 434 925 664 c 0
 925 792 867 878 747 878 c 0
 487 878 396 590 396 424 c 0
 396 324 436 206 597 206 c 0
EndSplineSet
EndChar
StartChar: r
Encoding: 84 114 86
Width: 682
Flags: W
HStem: 0 21G<133 384.256> 828 249<651.631 835.144>
VStem: 133 796<0 1028>
Fore
563 947 m 1
 593 986 659 1077 809 1077 c 0
 870 1077 897 1052 929 1028 c 1
 816 789 l 1
 793 804 781 828 741 828 c 0
 556 828 511 619 483 484 c 2
 380 0 l 1
 133 0 l 1
 359 1062 l 1
 588 1062 l 1
 563 947 l 1
EndSplineSet
EndChar
StartChar: s
Encoding: 85 115 87
Width: 1024
Flags: W
HStem: -11 212<412.556 719.688> 875 211<527.832 822.61>
VStem: 249 244<685.709 838.941> 779 244<254.362 412.761>
Fore
515 -11 m 0
 189 -11 134 169 134 289 c 0
 134 311 136 334 139 358 c 1
 367 358 l 1
 367 353 366 348 366 343 c 0
 366 286 398 201 559 201 c 0
 630 201 779 229 779 342 c 0
 779 408 738 420 617 443 c 0
 366 491 249 546 249 700 c 0
 249 928 449 1086 715 1086 c 0
 1026 1086 1075 938 1075 839 c 0
 1075 816 1072 791 1067 764 c 1
 841 764 l 1
 842 769 842 775 842 780 c 0
 842 818 822 875 683 875 c 0
 579 875 493 839 493 758 c 0
 493 685 546 676 656 654 c 0
 903 607 1023 552 1023 399 c 0
 1023 189 829 -11 515 -11 c 0
EndSplineSet
EndChar
StartChar: t
Encoding: 86 116 88
Width: 569
Flags: W
HStem: -13 204<363.5 534.014> 892 196<249 330 603 687>
VStem: 183 545<148 1088>
Fore
515 191 m 0
 516 191 534 194 570 199 c 1
 554 2 l 1
 504 -8 455 -13 408 -13 c 0
 319 -13 266 -1 242 17 c 0
 201 47 183 88 183 148 c 0
 183 187 191 241 206 311 c 2
 330 892 l 1
 208 892 l 1
 249 1088 l 1
 371 1088 l 1
 445 1433 l 1
 677 1433 l 1
 603 1088 l 1
 728 1088 l 1
 687 892 l 1
 562 892 l 1
 436 301 l 2
 412 190 484 191 515 191 c 0
EndSplineSet
EndChar
StartChar: u
Encoding: 87 117 89
Width: 1139
Flags: W
HStem: -10 253<462.508 674.91> 1065 20G<330.75 561 952.739 1200>
VStem: 177 243<282.356 406.05>
Fore
420 394 m 0
 420 273 512 243 586 243 c 0
 718 243 794 316 823 456 c 2
 957 1085 l 1
 1200 1085 l 1
 969 0 l 1
 789 0 l 1
 803 64 l 1
 728 -2 576 -10 535 -10 c 0
 224 -10 177 169 177 288 c 0
 177 326 182 367 192 412 c 2
 335 1085 l 1
 561 1085 l 1
 428 461 l 2
 423 437 420 415 420 394 c 0
EndSplineSet
EndChar
StartChar: v
Encoding: 88 118 90
Width: 1024
Flags: W
HStem: 0 21G<425.667 610.808> 1042 20G<252 496.934 974.917 1226>
VStem: 252 974<1062 1062>
Fore
429 0 m 1
 252 1062 l 1
 494 1062 l 1
 597 360 l 1
 986 1062 l 1
 1226 1062 l 1
 599 0 l 1
 429 0 l 1
EndSplineSet
EndChar
StartChar: w
Encoding: 89 119 91
Width: 1479
Flags: W
HStem: 0 21G<294.795 554.059 951.5 1209.21> 1042 20G<232 482.544 863.312 1060.52 1452.95 1689>
Fore
296 0 m 1
 232 1062 l 1
 482 1062 l 1
 501 364 l 1
 874 1062 l 1
 1058 1062 l 1
 1146 364 l 1
 1462 1062 l 1
 1689 1062 l 1
 1200 0 l 1
 956 0 l 1
 947 149 922 374 884 676 c 1
 544 0 l 1
 296 0 l 1
EndSplineSet
EndChar
StartChar: x
Encoding: 90 120 92
Width: 1024
Flags: W
HStem: 0 21G<15 300.206 723.924 1009> 1042 20G<270 556.73 909.082 1207>
Fore
15 0 m 1
 463 552 l 1
 270 1062 l 1
 550 1062 l 1
 657 744 l 1
 926 1062 l 1
 1207 1062 l 1
 776 562 l 1
 1009 0 l 1
 732 0 l 1
 583 369 l 1
 284 0 l 1
 15 0 l 1
EndSplineSet
EndChar
StartChar: y
Encoding: 91 121 93
Width: 1024
Flags: W
HStem: -422 216<82.4173 326.81> 1042 20G<259 520.493 959.391 1232>
VStem: 259 259<662.895 1029.97>
Fore
40 -409 m 1
 66 -192 l 1
 98 -201 133 -206 170 -206 c 0
 313 -206 423 -117 408 0 c 2
 259 1062 l 1
 518 1062 l 1
 604 372 l 1
 970 1062 l 1
 1232 1062 l 1
 624 0 l 1
 555 -217 396 -422 149 -422 c 0
 109 -422 68 -421 40 -409 c 1
EndSplineSet
EndChar
StartChar: z
Encoding: 92 122 94
Width: 1024
Flags: W
HStem: 0 212<389 980> 864 198<286 848>
Fore
40 0 m 1
 85 212 l 1
 848 864 l 1
 244 864 l 1
 286 1062 l 1
 1174 1062 l 1
 1132 864 l 1
 389 212 l 1
 1025 212 l 1
 980 0 l 1
 40 0 l 1
EndSplineSet
EndChar
StartChar: braceleft
Encoding: 93 123 95
Width: 684
Flags: W
VStem: 233 235<-302 64.503> 310 219<10.3801 411.147>
Fore
310 288 m 0x40
 310 417 228 448 152 449 c 1
 187 612 l 1
 540 619 419 1196 630 1401 c 0
 731 1496 817 1491 953 1491 c 1
 908 1280 l 1
 879 1280 833 1281 821 1273 c 0
 677 1201 719 867 581 676 c 0
 537 617 501 566 421 530 c 1
 492 495 529 384 529 287 c 0x40
 529 167 468 -30 468 -117 c 0
 468 -158 472 -212 560 -212 c 2
 591 -212 l 1
 544 -431 l 1
 488 -431 l 2
 324 -431 233 -382 233 -222 c 0x80
 233 -87 310 163 310 288 c 0x40
EndSplineSet
EndChar
StartChar: bar
Encoding: 94 124 96
Width: 532
Flags: W
VStem: 48 659<-431 1491>
Fore
48 -431 m 1
 457 1491 l 1
 707 1491 l 1
 298 -431 l 1
 48 -431 l 1
EndSplineSet
EndChar
StartChar: braceright
Encoding: 95 125 97
Width: 684
Flags: W
VStem: 379 219<673.861 1054.67> 442 234<1004.13 1284>
Fore
598 767 m 0x80
 598 701 627 615 756 612 c 1
 721 449 l 1
 514 445 475 253 432 63 c 0
 385 -153 357 -358 138 -420 c 0
 104 -430 16 -432 -45 -431 c 1
 2 -212 l 1
 64 -215 77 -220 128 -174 c 0
 223 -89 199 254 363 426 c 0
 400 465 431 511 488 530 c 1
 379 588 379 742 379 763 c 0x80
 379 905 442 1104 442 1185 c 0
 443 1232 431 1260 404 1273 c 0
 389 1280 350 1281 319 1280 c 1
 364 1491 l 1
 532 1491 602 1483 649 1401 c 0
 667 1369 676 1331 676 1284 c 0x40
 676 1168 598 890 598 767 c 0x80
EndSplineSet
EndChar
StartChar: asciitilde
Encoding: 96 126 98
Width: 1196
Flags: W
HStem: 531 237<860.725 1138.87> 665 237<363.264 652.239>
Fore
946 531 m 0x80
 747.866 531 652.083 665 489 665 c 0
 415.903 665 349.084 648.185 199 529 c 1
 253 782 l 1
 341 862 442 902 557 902 c 0x40
 750.666 902 879.21 768 1015 768 c 0
 1124.52 768 1243.64 853.273 1302 905 c 1
 1247 645 l 1
 1156.23 573.811 1066.4 531 946 531 c 0x80
EndSplineSet
EndChar
StartChar: exclamdown
Encoding: 98 161 100
Width: 680
Flags: W
HStem: 0 21G<228 455.689> 1059 20G<480.236 651> 1278 211<554 714>
VStem: 228 530<0 1489>
Fore
714 1278 m 1
 510 1278 l 1
 554 1489 l 1
 758 1489 l 1
 714 1278 l 1
452 0 m 1
 228 0 l 1
 485 1079 l 1
 651 1079 l 1
 452 0 l 1
EndSplineSet
EndChar
StartChar: cent
Encoding: 99 162 101
Width: 1118
Flags: W
HStem: 1455 20G<866.722 985>
VStem: 213 194<234.997 652.568>
Fore
701 141 m 1
 841 153 977 248 1025 281 c 1
 1035 281 l 1
 993 83 l 1
 811 7 728 4 671 1 c 1
 594 -361 l 1
 480 -361 l 1
 557 2 l 1
 338 29 213 156 213 388 c 0
 213 698 401 1070 794 1115 c 1
 871 1475 l 1
 985 1475 l 1
 908 1116 l 1
 1024 1112 1124 1078 1195 1037 c 1
 1153 837 l 1
 1143 837 l 1
 1062 918 986 961 879 977 c 1
 701 141 l 1
763 971 m 1
 484 922 407 559 407 403 c 0
 407 259 475 166 588 146 c 1
 763 971 l 1
EndSplineSet
EndChar
StartChar: sterling
Encoding: 100 163 102
Width: 1118
Flags: W
HStem: 0 171<297 1031> 613 138<290 421 643 977> 1351 167<855.662 1100.37>
Fore
1260 1264 m 1
 1163 1341 1060 1351 1014 1351 c 0
 828 1351 741 1215 707 1052 c 2
 643 751 l 1
 1007 751 l 1
 977 613 l 1
 613 613 l 1
 600 552 l 2
 565 383 440 256 300 182 c 1
 297 171 l 1
 1067 171 l 1
 1031 0 l 1
 89 0 l 1
 133 207 l 1
 282 248 366 355 421 613 c 1
 260 613 l 1
 290 751 l 1
 451 751 l 1
 519 1071 l 2
 571 1318 763 1518 1031 1518 c 0
 1096 1518 1155 1518 1313 1470 c 1
 1270 1264 l 1
 1260 1264 l 1
EndSplineSet
EndChar
StartChar: currency
Encoding: 101 164 103
Width: 1118
Flags: W
HStem: 326 138<547.42 786.665> 858 138<663.013 853.117>
VStem: 359 144<527.369 749.755> 897 147<572.318 795.696>
Fore
1044 729 m 0
 1044 632 994 541 946 486 c 1
 1115 272 l 1
 986 166 l 1
 817 378 l 1
 752 343 704 326 629 326 c 0
 564 326 503 351 466 379 c 1
 205 164 l 1
 123 273 l 1
 380 486 l 1
 366 520 359 564 359 595 c 0
 359 702 411 781 455 835 c 1
 288 1051 l 1
 418 1157 l 1
 587 944 l 1
 652 981 721 996 772 996 c 0
 846 996 904 967 937 945 c 1
 1194 1157 l 1
 1281 1052 l 1
 1021 836 l 1
 1038 796 1044 761 1044 729 c 0
659 464 m 0
 776 464 897 576 897 705 c 0
 897 788 837 858 742 858 c 0
 625 858 503 745 503 619 c 0
 503 536 562 464 659 464 c 0
EndSplineSet
EndChar
StartChar: yen
Encoding: 102 165 104
Width: 1118
Flags: W
HStem: 0 21G<465 657.273> 440 138<248 559 774 1087>
Fore
1375 1489 m 1
 795 678 l 1
 774 578 l 1
 1116 578 l 1
 1087 440 l 1
 747 440 l 1
 653 0 l 1
 465 0 l 1
 559 440 l 1
 219 440 l 1
 248 578 l 1
 590 578 l 1
 607 657 l 1
 372 1489 l 1
 582 1489 l 1
 741 850 l 1
 1174 1489 l 1
 1375 1489 l 1
EndSplineSet
EndChar
StartChar: brokenbar
Encoding: 103 166 105
Width: 783
Flags: W
VStem: 225 581<-392 1556>
Fore
636 758 m 1
 469 758 l 1
 639 1556 l 1
 806 1556 l 1
 636 758 l 1
392 -392 m 1
 225 -392 l 1
 394 406 l 1
 561 406 l 1
 392 -392 l 1
EndSplineSet
EndChar
StartChar: section
Encoding: 104 167 106
Width: 1118
Flags: W
HStem: -385 165<241.807 659.951> 1355 164<699.972 1076.19>
VStem: 223 202<419.418 634.655> 384 200<1033.39 1247.4> 774 201<-106.434 85.7578> 934 201<507.047 712.176>
Fore
734 315 m 1xe4
 802 351 934 456 934 610 c 0
 934 723 844 751 716 788 c 2
 624 819 l 1
 509 758 425 641 425 522 c 0
 425 442 469 402 570 369 c 2
 734 315 l 1xe4
975 67 m 0xc8
 975 -105 828 -385 408 -385 c 0
 286 -385 187 -361 102 -327 c 1
 144 -133 l 1
 154 -133 l 1
 214 -169 328 -220 462 -220 c 0
 619 -220 774 -151 774 14 c 0
 774 51 766 111 627 154 c 2
 501 192 l 2
 349 238 223 297 223 455 c 0xe8
 223 642 342 761 502 865 c 1
 460 891 384 948 384 1072 c 0
 384 1251 534 1519 951 1519 c 0
 1012 1519 1114 1517 1257 1462 c 1
 1216 1268 l 1
 1206 1268 l 1
 1123 1314 1029 1355 895 1355 c 0
 773 1355 584 1309 584 1124 c 0
 584 897 1135 1010 1135 680 c 0xd4
 1135 513 1020 373 856 270 c 1
 923 230 975 173 975 67 c 0xc8
EndSplineSet
EndChar
StartChar: dieresis
Encoding: 105 168 107
Width: 1118
Flags: W
HStem: 1304 195<572 731 985 1144>
VStem: 530 656<1304 1499>
Fore
1144 1304 m 1
 943 1304 l 1
 985 1499 l 1
 1186 1499 l 1
 1144 1304 l 1
731 1304 m 1
 530 1304 l 1
 572 1499 l 1
 773 1499 l 1
 731 1304 l 1
EndSplineSet
EndChar
StartChar: copyright
Encoding: 106 169 108
Width: 1902
Flags: W
HStem: -210 110<686.808 1197.85> 180 147<910.427 1238.93> 996 147<1037.17 1361.05> 1409 110<984.458 1499>
VStem: 204 120<259.323 735.863> 654 188<398.348 756.009> 1859 117<577.23 1050.61>
Fore
1976 845 m 0
 1976 735 1952 355 1571 44 c 0
 1367 -126 1145 -210 906 -210 c 0
 667 -210 481 -126 349 44 c 0
 252 166 204 306 204 465 c 0
 204 577 228 953 609 1266 c 0
 813 1435 1035 1519 1274 1519 c 0
 1513 1519 1699 1435 1831 1266 c 0
 1928 1144 1976 1004 1976 845 c 0
931 -100 m 0
 1415 -100 1859 342 1859 823 c 0
 1859 961 1817 1083 1735 1188 c 0
 1619 1336 1458 1409 1251 1409 c 0
 1044 1409 853 1336 675 1188 c 0
 343 916 324 582 324 488 c 0
 324 349 365 227 448 121 c 0
 563 -26 724 -100 931 -100 c 0
1056 327 m 0
 1194 327 1329 418 1350 434 c 1
 1366 434 l 1
 1328 255 l 1
 1179 194 1115 180 1020 180 c 0
 795 180 654 294 654 513 c 0
 654 762 812 1143 1225 1143 c 0
 1335 1143 1430 1110 1501 1070 c 1
 1463 889 l 1
 1447 889 l 1
 1397 941 1301 996 1198 996 c 0
 913 996 842 679 842 544 c 0
 842 438 885 327 1056 327 c 0
EndSplineSet
EndChar
StartChar: ordfeminine
Encoding: 107 170 109
Width: 1010
Flags: W
HStem: 541 155<482.905 668.487> 1365 154<611.611 946.265>
VStem: 284 178<720.901 933.878> 970 169<1211.94 1335.72>
Fore
806 1519 m 0
 1052 1519 1139 1428 1139 1290 c 0
 1139 1261 1135 1229 1128 1194 c 2
 994 566 l 1
 828 566 l 1
 848 657 l 1
 788 618 l 2
 652 533 538 541 519 541 c 0
 362 541 284 646 284 767 c 0
 284 856 323 1029 516 1112 c 0
 596 1147 711 1172 960 1184 c 1
 964 1204 970 1227 970 1254 c 0
 970 1343 897 1365 772 1365 c 0
 714 1365 655 1360 481 1304 c 1
 466 1304 l 1
 502 1474 l 1
 531 1483 684 1519 806 1519 c 0
462 808 m 0
 462 725 523 696 609 696 c 0
 652 696 736 701 878 802 c 1
 930 1045 l 1
 696 1028 462 1020 462 808 c 0
EndSplineSet
EndChar
StartChar: guillemotleft
Encoding: 108 171 110
Width: 1174
Flags: W
HStem: 162 980<647 856>
Fore
1084 191 m 1
 685 610 l 1
 703 695 l 1
 1280 1113 l 1
 1240 925 l 1
 865 652 l 1
 1124 379 l 1
 1084 191 l 1
647 162 m 1
 232 608 l 1
 251 697 l 1
 856 1142 l 1
 814 946 l 1
 421 652 l 1
 689 358 l 1
 647 162 l 1
EndSplineSet
EndChar
StartChar: logicalnot
Encoding: 109 172 111
Width: 1490
Flags: W
HStem: 602 160<319 1280>
Fore
1335 57 m 1
 1164 57 l 1
 1280 602 l 1
 285 602 l 1
 319 762 l 1
 1485 762 l 1
 1335 57 l 1
EndSplineSet
EndChar
StartChar: registered
Encoding: 111 174 113
Width: 1902
Flags: W
HStem: -210 110<686.808 1197.85> 570 126<963 1059> 1005 125<1029 1293.22> 1409 110<984.458 1499>
VStem: 204 120<259.323 735.863> 1309 187<784.708 983.36> 1859 117<577.23 1050.61>
Fore
1976 845 m 0
 1976 735 1952 355 1571 44 c 0
 1367 -126 1145 -210 906 -210 c 0
 667 -210 481 -126 349 44 c 0
 252 166 204 306 204 465 c 0
 204 577 228 953 609 1266 c 0
 813 1435 1035 1519 1274 1519 c 0
 1513 1519 1699 1435 1831 1266 c 0
 1928 1144 1976 1004 1976 845 c 0
931 -100 m 0
 1415 -100 1859 342 1859 823 c 0
 1859 961 1817 1083 1735 1188 c 0
 1619 1336 1458 1409 1251 1409 c 0
 1044 1409 853 1336 675 1188 c 0
 343 916 324 582 324 488 c 0
 324 349 365 227 448 121 c 0
 563 -26 724 -100 931 -100 c 0
1496 946 m 0
 1496 814 1420 685 1233 615 c 1
 1494 215 l 1
 1267 215 l 1
 1059 570 l 1
 936 570 l 1
 861 215 l 1
 696 215 l 1
 890 1130 l 1
 1169 1130 l 2
 1326 1130 1496 1110 1496 946 c 0
1061 696 m 2
 1286 696 1309 851 1309 906 c 0
 1309 988 1238 1005 1144 1005 c 2
 1029 1005 l 1
 963 696 l 1
 1061 696 l 2
EndSplineSet
EndChar
StartChar: macron
Encoding: 112 175 114
Width: 1118
Flags: W
HStem: 1659 130<364 1487>
Fore
1487 1659 m 1
 337 1659 l 1
 364 1789 l 1
 1514 1789 l 1
 1487 1659 l 1
EndSplineSet
EndChar
StartChar: degree
Encoding: 113 176 115
Width: 964
Flags: W
HStem: 755 152<551.33 816.235> 1363 152<629.256 895.403>
VStem: 332 161<966.326 1224.19> 953 161<1045.21 1305.83>
Fore
1114 1222 m 0
 1114 982 899 755 642 755 c 0
 434 755 332 903 332 1048 c 0
 332 1286 546 1515 804 1515 c 0
 1010 1515 1114 1370 1114 1222 c 0
675 907 m 0
 828 907 953 1046 953 1189 c 0
 953 1265 905 1363 772 1363 c 0
 616 1363 493 1222 493 1083 c 0
 493 988 561 907 675 907 c 0
EndSplineSet
EndChar
StartChar: plusminus
Encoding: 114 177 116
Width: 1490
Flags: W
HStem: 159 158<229 729 895 1362> 739 158<353 819 1019 1485>
Fore
1362 159 m 1
 196 159 l 1
 229 317 l 1
 729 317 l 1
 819 739 l 1
 319 739 l 1
 353 897 l 1
 853 897 l 1
 960 1402 l 1
 1126 1402 l 1
 1019 897 l 1
 1519 897 l 1
 1485 739 l 1
 985 739 l 1
 895 317 l 1
 1395 317 l 1
 1362 159 l 1
EndSplineSet
EndChar
StartChar: uni00B2
Encoding: 115 178 117
Width: 1010
Flags: W
HStem: 566 144<524 986> 1371 148<568.191 863.712>
VStem: 884 191<1177.61 1348.48>
Fore
804 1519 m 0
 1028 1519 1075 1391 1075 1305 c 0
 1075 1087 865 931 666 802 c 2
 524 710 l 1
 1017 710 l 1
 986 566 l 1
 305 566 l 1
 338 718 l 1
 509 832 l 2
 654 927 775 1035 817 1088 c 0
 867 1151 884 1234 884 1265 c 0
 884 1340 826 1371 748 1371 c 0
 638 1371 516 1305 478 1279 c 1
 463 1279 l 1
 501 1458 l 1
 584 1490 697 1519 804 1519 c 0
EndSplineSet
EndChar
StartChar: uni00B3
Encoding: 116 179 118
Width: 1010
Flags: W
HStem: 542 139<433.752 771.828> 968 139<569 826.747> 1380 139<583.665 891.989>
VStem: 845 174<751.268 944.565> 910 181<1185.48 1358.79>
Fore
1019 881 m 0xf0
 1019 751 909 542 589 542 c 0
 484 542 388 562 312 600 c 1
 349 775 l 1
 366 775 l 1
 397 740 489 681 616 681 c 0
 752 681 845 754 845 864 c 0xf0
 845 926 810 968 680 968 c 2
 540 968 l 1
 569 1107 l 1
 694 1107 l 2
 860 1107 910 1211 910 1281 c 0
 910 1340 869 1380 765 1380 c 0
 670 1380 546 1326 489 1283 c 1
 472 1283 l 1
 509 1458 l 1
 596 1491 702 1519 815 1519 c 0
 1038 1519 1091 1400 1091 1325 c 0xe8
 1091 1219 1015 1102 864 1055 c 1
 863 1047 l 1
 933 1032 1019 981 1019 881 c 0xf0
EndSplineSet
EndChar
StartChar: acute
Encoding: 117 180 119
Width: 1118
Flags: W
HStem: 1302 374<875 1227>
VStem: 726 501<1302 1676>
Fore
1227 1676 m 1
 875 1302 l 1
 726 1302 l 1
 984 1676 l 1
 1227 1676 l 1
EndSplineSet
EndChar
StartChar: mu
Encoding: 118 181 120
Width: 1163
Flags: W
HStem: -17 181<493.916 748.358>
Fore
382 275 m 1
 452 165 575 164 613 164 c 0
 727 164 813 200 897 275 c 1
 1076 1117 l 1
 1264 1117 l 1
 1027 0 l 1
 855 0 l 1
 880 116 l 1
 874 116 l 1
 734 -4 652 -17 574 -17 c 0
 470 -17 421 12 348 115 c 1
 236 -412 l 1
 48 -412 l 1
 373 1117 l 1
 561 1117 l 1
 382 275 l 1
EndSplineSet
EndChar
StartChar: paragraph
Encoding: 119 182 121
Width: 1118
Flags: W
HStem: 1359 130<944 1131>
Fore
267 934 m 0
 267 1132 389 1489 876 1489 c 2
 1298 1489 l 1
 905 -363 l 1
 765 -363 l 1
 1131 1359 l 1
 944 1359 l 1
 578 -363 l 1
 438 -363 l 1
 641 593 l 1
 402 598 267 734 267 934 c 0
EndSplineSet
EndChar
StartChar: periodcentered
Encoding: 120 183 122
Width: 724
Flags: W
VStem: 420 299<832 1117>
Fore
659 832 m 1
 420 832 l 1
 480 1117 l 1
 719 1117 l 1
 659 832 l 1
EndSplineSet
EndChar
StartChar: cedilla
Encoding: 121 184 123
Width: 1118
Flags: W
HStem: -423 150<309.886 529.981>
VStem: 204 567<-239 20 -399 20>
Fore
382 -273 m 0
 568 -273 585 -167 614 20 c 1
 771 20 l 1
 747 -272 584 -423 376 -423 c 0
 359 -423 269 -420 204 -399 c 1
 238 -239 l 1
 247 -239 l 1
 284 -256 328 -273 382 -273 c 0
EndSplineSet
EndChar
StartChar: uni0E01
Encoding: 122 3585 124
Width: 1240
Flags: W
HStem: 0 21G<188 412.242 862 1086.25> 949 200<650.832 964.978>
VStem: 1015 226<713.434 899.474>
Fore
868 1149 m 0
 1106 1149 1241 1028 1241 811 c 0
 1241 769 1235 723 1225 673 c 2
 1082 0 l 1
 862 0 l 1
 1002 657 l 2
 1011 699 1015 736 1015 768 c 0
 1015 892 952 949 826 949 c 0
 720 949 635 916 567 831 c 1
 633 795 673 739 687 663 c 1
 556 552 519 523 485 363 c 2
 408 0 l 1
 188 0 l 1
 265 363 l 2
 299 524 328 560 459 671 c 1
 423 726 366 767 286 792 c 1
 336 912 552 1149 868 1149 c 0
EndSplineSet
EndChar
StartChar: uni0E02
Encoding: 123 3586 125
Width: 1400
Flags: W
HStem: 0 200<800 1040> 531 129<362 529.539> 953 196<606.777 797.934>
VStem: 249 173<674.322 812.016> 550 135<675.65 826.728> 833 221<771.706 922.81>
Fore
466 660 m 0
 513 660 550 719 550 767 c 0
 550 799 534 828 502 828 c 0
 455 828 422 767 422 718 c 0
 422 687 435 660 466 660 c 0
249 705 m 0
 249 929 453 1149 720 1149 c 0
 1005 1149 1054 954 1054 837 c 0
 1054 809 1051 786 1048 771 c 1
 945 688 889 623 879 575 c 2
 800 200 l 1
 1040 200 l 1
 1239 1139 l 1
 1459 1139 l 1
 1217 0 l 1
 537 0 l 1
 659 575 l 2
 669 622 717 682 828 771 c 1
 831 786 833 801 833 815 c 0
 833 891 788 953 702 953 c 0
 630 953 603 922 602 922 c 1
 602 921 602 920 601 920 c 1
 659 913 685 865 685 803 c 0
 685 672 578 531 420 531 c 0
 304 531 249 599 249 705 c 0
EndSplineSet
EndChar
StartChar: uni0E03
Encoding: 124 3587 126
Width: 1450
Flags: W
HStem: 0 200<853 1093> 457 129<316.5 491.531> 1129 20G<479 629.185 876.074 970.5 1287.76 1512>
VStem: 216 168<600.953 738.618> 512 135<602.34 752.794> 897 210<771.634 886.885>
Fore
429 586 m 0
 476 586 512 645 512 693 c 0
 512 725 496 754 464 754 c 0
 417 754 384 694 384 645 c 0
 384 614 397 586 429 586 c 0
647 724 m 0
 647 595 538 457 383 457 c 0
 250 457 216 553 216 637 c 0
 216 798 354 1054 604 1149 c 1
 740 1041 l 1
 907 1149 l 1
 1034 1114 1107 966 1107 835 c 0
 1107 813 1105 791 1101 771 c 1
 998 688 942 623 932 575 c 2
 853 200 l 1
 1093 200 l 1
 1292 1139 l 1
 1512 1139 l 1
 1270 0 l 1
 590 0 l 1
 712 575 l 2
 723 628 780 691 895 771 c 1
 896 778 897 787 897 795 c 0
 897 841 879 901 860 929 c 1
 694 821 l 1
 557 929 l 1
 528 897 509 869 507 862 c 1
 618 862 647 789 647 724 c 0
EndSplineSet
EndChar
StartChar: uni0E04
Encoding: 125 3588 127
Width: 1370
Flags: W
HStem: 0 21G<251 498 980 1204.25> 305 111<763.424 885.688> 574 142<779.605 902.321> 949 200<714.172 1041.43>
VStem: 905 125<433.54 571.518> 1129 228<694.914 865.312>
Fore
816 416 m 0
 861 416 905 465 905 513 c 0
 905 546 884 574 850 574 c 0
 806 574 761 525 761 478 c 0
 761 445 782 416 816 416 c 0
1030 550 m 0
 1030 432 902 305 772 305 c 0
 727 305 692 325 690 338 c 1
 653 304 505 52 491 0 c 1
 251 0 l 1
 274 108 l 2
 298 221 273 491 314 680 c 0
 381 996 628 1149 925 1149 c 0
 1151 1149 1357 1047 1357 795 c 0
 1357 759 1353 720 1344 677 c 2
 1200 0 l 1
 980 0 l 1
 1121 664 l 2
 1127 690 1129 714 1129 736 c 0
 1129 894 995 949 887 949 c 0
 785 949 578 890 527 647 c 0
 510 567 510 434 503 384 c 1
 608 592 730 716 872 716 c 0
 965 716 1030 636 1030 550 c 0
EndSplineSet
EndChar
StartChar: uni0E05
Encoding: 126 3589 128
Width: 1370
Flags: W
HStem: 0 21G<238 482 967 1191.25> 305 111<750.434 874.693> 574 142<765.566 888.024> 1129 20G<665.5 781.138 1060.03 1199.5>
VStem: 892.045 124.375<431.122 572.088> 1121.6 227.25<722.487 877.897>
Fore
803 416 m 0
 848 416 892.045 464.306 892.045 512.203 c 0
 892.045 545.48 871 574 837 574 c 0
 792 574 748.386 525.693 748.386 477.796 c 0
 748.386 444.52 769 416 803 416 c 0
1016.42 545.304 m 0
 1016.42 436.006 883 305 759 305 c 0
 712 305 679 326 677 338 c 1
 634 299 486 37 478 0 c 1
 238 0 l 1
 261 108 l 2
 282 209 265 518 305 706 c 0
 365 988 574 1129 757 1149 c 1
 897 1033 l 1
 1094 1149 l 1
 1305 1099 1348.85 947.436 1348.85 825.15 c 0
 1348.85 762.001 1337 707 1331 677 c 2
 1187 0 l 1
 967 0 l 1
 1108 664 l 2
 1115 696 1121.6 728.023 1121.6 760.231 c 0
 1121.6 811.499 1105 862 1043 909 c 1
 846 795 l 1
 706 909 l 1
 487 824 512 596 490 384 c 1
 595 592 713 716 858 716 c 0
 963 716 1016.42 622.855 1016.42 545.304 c 0
EndSplineSet
EndChar
StartChar: uni0E06
Encoding: 127 3590 129
Width: 1520
Flags: W
HStem: -10 21G<522 656> 457 129<306.5 481.531> 1129 20G<469 619.185 866.074 960.5 1376.75 1601>
VStem: 206 168<600.953 738.618> 411 154<160.199 293.128> 502 135<602.34 752.794> 887 210<771.61 884.765>
Fore
419 586 m 0xf6
 466 586 502 645 502 693 c 0
 502 725 486 754 454 754 c 0
 407 754 374 694 374 645 c 0
 374 614 387 586 419 586 c 0xf6
637 724 m 0
 637 595 528 457 373 457 c 0
 240 457 206 553 206 637 c 0
 206 798 344 1054 594 1149 c 1
 730 1041 l 1
 897 1149 l 1
 1024 1114 1097 966 1097 835 c 0
 1097 813 1095 791 1091 771 c 1
 987 689 933 624 922 575 c 2
 891 430 l 1
 987 315 1087 250 1140 250 c 0
 1204 250 1209 329 1219 377 c 2
 1381 1139 l 1
 1601 1139 l 1
 1405 218 l 2
 1362 14 1228 -13 1160 -13 c 0
 1031 -13 841 156 834 164 c 1
 813 66 714 -10 598 -10 c 0
 446 -10 411 87 411 173 c 0xfa
 411 339 531 484 688 507 c 1
 702 575 l 2
 713 628 768 691 885 771 c 1
 886 777 887 784 887 791 c 0
 887 834 869 901 850 929 c 1
 684 821 l 1
 547 929 l 1
 518 897 499 869 497 862 c 1
 608 862 637 789 637 724 c 0
662 317 m 1
 604 317 565 242 565 187 c 0
 565 166 573 156 588 156 c 0
 620 156 633 179 642 222 c 2
 662 317 l 1
EndSplineSet
EndChar
StartChar: uni0E07
Encoding: 128 3591 130
Width: 1000
Flags: W
HStem: -10 200<539.838 672.577> 1026 123<770.732 929>
VStem: 285 229<196.696 257 257 475.348> 298 224<500.652 640> 629 123<858.22 1008.21> 879 174<922.618 1017.02>
Fore
629 876 m 0xec
 629 977 713 1149 895 1149 c 0
 963 1149 1053 1119 1053 978 c 0
 1053 950 1050 918 1042 881 c 2
 913 272 l 2
 865 46 684 -10 551 -10 c 0
 306 -10 283 175 285 257 c 2xec
 298 719 l 1
 522 640 l 1xdc
 514 282 l 2
 512 199 562 190 590 190 c 0
 646 190 683 224 697 292 c 2
 796 759 l 1
 788 754 771 752 745 752 c 0
 703 752 629 782 629 876 c 0xec
802 857 m 0
 866 857 879 954 879 980 c 0
 879 1007 869 1026 837 1026 c 0
 802 1026 752 980 752 920 c 0
 752 885 771 857 802 857 c 0
EndSplineSet
EndChar
StartChar: uni0E08
Encoding: 129 3592 131
Width: 1200
Flags: W
HStem: -10 200<666.505 851.977> 344 113<458.823 520.038> 625 124<476.355 658.5> 949 200<571.928 896.953>
VStem: 339 119<458.754 579.969> 517 224<121 259.051> 964 232<739.81 883.457>
Fore
339 481 m 0
 339 583 422 749 614 749 c 0
 703 749 806 714 806 583 c 0
 806 564 803 541 798 517 c 2
 744 263 l 2
 742 253 741 243 741 235 c 0
 741 205 756 190 788 190 c 0
 828 190 853 213 863 259 c 2
 956 695 l 2
 961 720 964 743 964 764 c 0
 964 910 843 949 748 949 c 0
 605 949 474 861 407 775 c 1
 301 929 l 1
 394 1046 592 1149 788 1149 c 0
 1027 1149 1196 1053 1196 842 c 0
 1196 810 1193 777 1185 740 c 2
 1087 279 l 2
 1046 85 932 -10 743 -10 c 0
 592 -10 517 56 517 186 c 0
 517 215 521 248 528 283 c 2
 547 373 l 1
 524 351 486 344 462 344 c 0
 408 344 339 390 339 481 c 0
540 625 m 0
 474 625 458 540 458 508 c 0
 458 474 474 457 504 457 c 0
 570 457 586 542 586 574 c 0
 586 608 570 625 540 625 c 0
EndSplineSet
EndChar
StartChar: uni0E09
Encoding: 130 3593 132
Width: 1395
Flags: W
HStem: -13 246<518 701.739> -10 166<1039 1207.59> 365 111<348.642 412.037> 644 122<366.583 553> 949 200<643.666 984.341>
VStem: 232 115<476.13 599.125> 1051 227<732.864 886.292> 1219 156<183.219 314.922>
Fore
429 644 m 0x3c
 363 644 347 559 347 527 c 0
 347 493 363 476 393 476 c 0
 459 476 475 561 475 593 c 0
 475 627 459 644 429 644 c 0x3c
232 500 m 0
 232 654 365 766 488 766 c 0
 618 766 696 707 696 600 c 0
 696 582 694 564 690 544 c 2
 650 357 l 2
 640 311 634 281 634 263 c 0
 634 239 644 233 672 233 c 0
 751 233 962 395 980 410 c 1
 1045 714 l 2
 1049 734 1051 753 1051 771 c 0
 1051 893 953 949 831 949 c 0
 648 949 519 826 489 788 c 1
 380 942 l 1
 472 1055 672 1149 869 1149 c 0
 1127 1149 1278 1040 1278 828 c 0xbe
 1278 793 1274 754 1265 713 c 2
 1217 487 l 1
 1351 473 1375 373 1375 304 c 0
 1375 201 1305 -10 1091 -10 c 0x7d
 987 -10 925 45 925 126 c 0
 925 138 926 151 929 164 c 1
 828 104 669 -13 547 -13 c 0xbd
 489 -13 391 7 391 140 c 0
 391 163 394 189 400 218 c 2
 438 393 l 1
 414 374 387 365 354 365 c 0
 270 365 232 426 232 500 c 0
1169 156 m 0x7d
 1209 156 1219 226 1219 247 c 0
 1219 287 1199 317 1163 317 c 1
 1143 222 l 2
 1140 208 1139 197 1139 188 c 0
 1139 162 1151 156 1169 156 c 0x7d
EndSplineSet
EndChar
StartChar: uni0E0A
Encoding: 131 3594 133
Width: 1390
Flags: W
HStem: 0 200<794 1034> 531 129<348.5 523.328> 953 196<600.933 790.96>
VStem: 243 173<674.787 812.183> 544 135<675.206 826.728>
Fore
460 660 m 0
 507 660 544 719 544 767 c 0
 544 799 528 828 496 828 c 0
 449 828 416 767 416 718 c 0
 416 687 429 660 460 660 c 0
1031 719 m 1
 959 678 880 606 867 545 c 2
 794 200 l 1
 1034 200 l 1
 1107 546 l 2
 1111 567 1113 585 1113 600 c 0
 1113 668 1074 686 1031 719 c 1
243 705 m 0
 243 930 448 1149 714 1149 c 0
 928 1149 1012 1056 1037 924 c 1
 1171 942 1303 1020 1333 1163 c 2
 1339 1188 l 1
 1574 1188 l 1
 1568 1164 l 2
 1536 1010 1392 865 1259 825 c 1
 1323 781 1350 732 1350 674 c 0
 1350 660 1348 645 1345 629 c 2
 1211 0 l 1
 531 0 l 1
 653 575 l 2
 663 622 711 682 822 771 c 1
 825 784 826 798 826 811 c 0
 826 885 783 953 696 953 c 0
 624 953 597 922 596 922 c 1
 596 921 596 920 595 920 c 1
 653 913 679 865 679 803 c 0
 679 670 570 531 415 531 c 0
 282 531 243 615 243 705 c 0
EndSplineSet
EndChar
StartChar: uni0E0B
Encoding: 132 3595 134
Width: 1450
Flags: W
HStem: 0 200<866 1106> 457 129<316.5 491.531> 1129 20G<479 629.185 876.074 950>
VStem: 216 168<600.953 738.618> 512 135<602.34 752.794>
Fore
429 586 m 0
 476 586 512 645 512 693 c 0
 512 725 496 754 464 754 c 0
 417 754 384 694 384 645 c 0
 384 614 397 586 429 586 c 0
647 724 m 0
 647 595 538 457 383 457 c 0
 250 457 216 553 216 637 c 0
 216 798 354 1054 604 1149 c 1
 740 1041 l 1
 907 1149 l 1
 993 1119 1085 1027 1109 924 c 1
 1243 942 1375 1020 1405 1163 c 2
 1411 1188 l 1
 1646 1188 l 1
 1640 1164 l 2
 1608 1013 1469 868 1331 825 c 1
 1395 781 1422 732 1422 674 c 0
 1422 660 1420 645 1417 629 c 2
 1283 0 l 1
 603 0 l 1
 725 575 l 2
 735 622 783 682 894 771 c 1
 896 779 897 789 897 798 c 0
 897 847 876 907 860 929 c 1
 694 821 l 1
 557 929 l 1
 528 897 509 869 507 862 c 1
 618 862 647 789 647 724 c 0
1103 719 m 1
 1031 678 952 606 939 545 c 2
 866 200 l 1
 1106 200 l 1
 1179 546 l 2
 1184 569 1186 589 1186 605 c 0
 1186 674 1146 687 1103 719 c 1
EndSplineSet
EndChar
StartChar: uni0E0C
Encoding: 133 3596 135
Width: 1750
Flags: W
HStem: -10 120<349 538.736> 0 21<801.5 936 1342.29 1597.25> 280 111<499.613 586> 949 200<658.421 960.59>
VStem: 231 202<123.633 248.703> 559 130<123.976 266.139> 1012 226<709.41 899.192>
Fore
515 280 m 0xbe
 468 280 433 219 433 170 c 0
 433 138 446 110 478 110 c 0
 526 110 559 173 559 222 c 0
 559 253 546 280 515 280 c 0xbe
689 255 m 0
 689 137 591 -10 427 -10 c 0xbe
 271 -10 231 67 231 161 c 0
 231 207 240 256 250 303 c 2
 264 366 l 2
 297 523 327 560 457 671 c 1
 421 726 364 767 284 792 c 1
 334 912 550 1149 866 1149 c 0
 1100 1149 1238 1033 1238 813 c 0
 1238 770 1233 723 1222 673 c 2
 1166 410 l 1
 1425 246 l 1
 1615 1139 l 1
 1835 1139 l 1
 1593 0 l 1
 1374 0 l 1x7e
 1114 164 l 1
 1092 62 994 -10 878 -10 c 0
 725 -10 691 91 691 175 c 0
 691 349 823 475 964 487 c 1
 1000 657 l 2
 1008 696 1012 732 1012 763 c 0
 1012 885 950 949 824 949 c 0
 718 949 631 906 565 831 c 1
 631 795 671 739 685 663 c 1
 552 551 520 537 483 363 c 1
 504 382 529 391 560 391 c 0
 612 391 689 355 689 255 c 0
942 317 m 1
 884 317 845 243 845 187 c 0
 845 166 853 156 868 156 c 0
 900 156 913 179 922 222 c 2
 942 317 l 1
EndSplineSet
EndChar
StartChar: uni0E0D
Encoding: 134 3597 136
Width: 1745
Flags: W
HStem: -417 180<996.449 1225.93> -130 108<999.519 1101.17> -10 120<408.5 595.249> 0 200<1178 1403> 280 111<554.477 645> 949 200<713.421 1016.24>
VStem: 288 201<126.81 249.386> 614 131<124.639 265.94> 880.978 112.787<-283.698 -135.547> 1067 227<711.028 897.461> 1101.38 121.17<-232.427 -131.047>
Fore
880.978 -243.085 m 0xcfa0
 880.978 -141.573 959 -22 1089 -22 c 0
 1176 -22 1222.55 -68.238 1222.55 -138.607 c 0
 1222.55 -219.679 1179 -254 1165 -265 c 1
 1331 -235 1411 -118 1437 -34 c 1
 1604 -48 l 1
 1553 -250 1353 -417 1125 -417 c 0
 931 -417 880.978 -324.31 880.978 -243.085 c 0xcfa0
1036 -237 m 0
 1072 -237 1101.38 -203.123 1101.38 -171.283 c 0
 1101.38 -147.214 1084 -130 1058 -130 c 0
 1025 -130 993.765 -159.991 993.765 -195.312 c 0
 993.765 -219.306 1010 -237 1036 -237 c 0
EndSplineSet
Refer: 256 63247 S 1 0 0 1 0 0 2
Substitution2: "Single Substitution lookup 9" uni0E0D.descless
Substitution2: "Single Substitution lookup 8" uni0E0D.descless
EndChar
StartChar: uni0E0E
Encoding: 135 3598 137
Width: 1375
Flags: W
HStem: -430 157<334.003 552.832> -132 142<435.852 614.518> -10 120<262.707 366.623> 280 111<281.157 380.815> 949 200<804.421 1107.24>
VStem: 137 124<123.778 265.616> 206 193<-328 -168.926> 1158 227<711.423 897.779>
AnchorPoint: "BelowBase" 1129.71 -453 basechar 0
Fore
206 -289 m 0xbb
 206 -192 326 10 591 10 c 0xdb
 640 10 689 3 735 -12 c 1
 850 142 l 1
 975 88 l 1
 864 -67 l 1
 900 -82 945 -117 973 -155 c 1
 1146 657 l 2
 1154 696 1158 732 1158 763 c 0
 1158 885 1096 949 970 949 c 0
 864 949 777 906 711 831 c 1
 777 795 817 739 831 663 c 1
 702 550 666 536 632 376 c 2
 616 303 l 2
 583 148 528 -10 307 -10 c 0
 180 -10 137 75 137 156 c 0xbd
 137 280 233 391 343 391 c 0
 373 391 395 382 409 363 c 1
 414 384 l 2
 443 523 478 565 603 671 c 1
 567 726 510 767 430 792 c 1
 480 912 696 1149 1012 1149 c 0
 1250 1149 1385 1028 1385 811 c 0
 1385 769 1379 723 1369 673 c 2
 1139 -410 l 1
 919 -410 l 1
 877 -322 826 -259 765 -220 c 1
 686 -329 572 -430 401 -430 c 0
 269 -430 206 -367 206 -289 c 0xbb
343 280 m 0
 296 280 261 219 261 170 c 0
 261 138 274 110 306 110 c 0xbd
 354 110 387 173 387 222 c 0
 387 253 374 280 343 280 c 0
551 -132 m 0xdb
 448 -132 399 -207 399 -241 c 0
 399 -252 406 -273 441 -273 c 0
 509 -273 595 -207 628 -154 c 1
 614 -138 587 -132 551 -132 c 0xdb
EndSplineSet
EndChar
StartChar: uni0E0F
Encoding: 136 3599 138
Width: 1375
Flags: W
HStem: -429 136<297.466 461.868> -152 153<326.014 517.146> -10 120<264.589 366.123> 280 111<280.935 380.863> 949 200<803.421 1106.05>
VStem: 135 161<-291.271 -182.67> 135 126<124.544 263.686> 1157 227<710.922 897.393>
AnchorPoint: "BelowBase" 1128.71 -453 basechar 0
Fore
343 280 m 0xbb
 296 280 261 219 261 170 c 0
 261 138 274 110 306 110 c 0
 354 110 387 173 387 222 c 0
 387 253 374 280 343 280 c 0xbb
135 -277 m 0xbd
 135 -125 301 1 482 1 c 0xdd
 541 1 585 -11 623 -32 c 1
 741 119 l 1
 859 73 l 1
 741 -90 l 1
 748 -97 754 -108 758 -122 c 1
 815 -48 869 -10 891 -10 c 0
 921 -10 954 -27 992 -61 c 1
 1145 657 l 2
 1153 696 1157 731 1157 762 c 0
 1157 885 1094 949 969 949 c 0
 863 949 776 906 710 831 c 1
 776 795 816 739 830 663 c 1
 701 550 665 536 631 376 c 2
 615 303 l 2
 582 148 527 -10 306 -10 c 0
 178 -10 135 72 135 154 c 0xbb
 135 296 246 391 342 391 c 0
 372 391 394 382 408 363 c 1
 413 384 l 2
 442 523 477 565 602 671 c 1
 566 726 509 767 429 792 c 1
 479 912 695 1149 1011 1149 c 0
 1249 1149 1384 1028 1384 810 c 0
 1384 768 1378 722 1368 673 c 2
 1138 -410 l 1
 921 -410 l 1
 921 -400 l 2
 921 -286 886 -245 841 -245 c 0
 787 -245 704 -368 682 -403 c 1
 643 -294 624 -286 615 -276 c 1
 534 -368 454 -429 319 -429 c 0
 171 -429 135 -346 135 -277 c 0xbd
446 -152 m 0
 348 -152 296 -212 296 -252 c 0
 296 -272 314 -293 349 -293 c 0
 412 -293 491 -243 531 -173 c 1
 519 -159 491 -152 446 -152 c 0
EndSplineSet
EndChar
StartChar: uni0E10
Encoding: 137 3600 139
Width: 1130
Flags: W
HStem: -541 106<112.474 243.985> -450 168<501.762 628.923> -346 112<113.421 269.417> -106 72<648.733 744.959> -10 200<545.005 730.93> 260 113<319.3 381.038> 541 123<337.399 518.5> 864 200<943.532 1130.04> 949 200<561.111 881.183>
VStem: -23 131<-475.5 -359.649> 200 119<374.855 496.175> 395 224<121.5 258.869> 558 87<-203.949 -108.487> 745 152<-194.014 -114.509>
Fore
-23 -440 m 0x9e6c
 -23 -367 50 -235 230 -234 c 0xbe6c
 284 -234 316 -243 347 -258 c 1
 368 -236 389 -217 407 -192 c 1
 517 -239 l 1
 460 -306 l 1
 466 -309 477 -319 493 -336 c 1
 524 -300 562 -282 605 -282 c 0
 637 -282 662 -294 679 -319 c 1
 689 -273 l 1
 661 -276 l 2
 602 -275 558 -240 558 -189 c 0
 558 -110 649 -34 739 -34 c 0
 867 -34 897 -87 897 -149 c 0
 897 -173 893 -199 888 -223 c 2
 822 -530 l 1
 639 -530 l 1
 630 -479 607 -450 569 -450 c 0x5e6c
 527 -450 482 -493 448 -529 c 1
 432 -495 405 -458 368 -418 c 1
 304 -483 214 -541 114 -541 c 0
 49 -541 -23 -511 -23 -440 c 0x9e6c
687 -205 m 0
 722 -205 745 -173 745 -144 c 0
 745 -122 731 -106 708 -106 c 0
 669 -106 645 -137 645 -169 c 0
 645 -192 662 -205 687 -205 c 0
220 -346 m 0
 159 -346 108 -374 108 -407 c 0
 108 -424 128 -435 146 -435 c 0
 214 -435 277 -360 277 -360 c 1
 266 -351 247 -346 220 -346 c 0
EndSplineSet
Refer: 241 63232 N 1 0 0 1 0 0 2
Substitution2: "Single Substitution lookup 9" uni0E10.descless
Substitution2: "Single Substitution lookup 8" uni0E10.descless
EndChar
StartChar: uni0E11
Encoding: 138 3601 140
Width: 1700
Flags: W
HStem: 0 21G<645 932.123 1323 1547.25> 457 129<371.5 546.531> 1129 20G<534 684.185 931.074 1021.5 1560.5 1653>
VStem: 271 168<600.953 738.618> 567 135<602.34 752.794> 953 211<776.485 887.49>
Fore
484 586 m 0
 531 586 567 645 567 693 c 0
 567 725 551 754 519 754 c 0
 472 754 439 694 439 645 c 0
 439 614 452 586 484 586 c 0
702 724 m 0
 702 595 593 457 438 457 c 0
 305 457 271 553 271 637 c 0
 271 798 409 1054 659 1149 c 1
 795 1041 l 1
 962 1149 l 1
 1081 1114 1164 987 1164 846 c 0
 1164 821 1161 796 1156 771 c 1
 1053 688 997 623 987 575 c 2
 946 380 l 1
 1354 1003 l 2
 1432 1122 1530 1149 1591 1149 c 0
 1715 1149 1746 1065 1746 989 c 0
 1746 965 1743 942 1739 923 c 2
 1543 0 l 1
 1323 0 l 1
 1468 682 l 2
 1475 716 1481 742 1481 760 c 0
 1481 779 1475 788 1459 788 c 0
 1429 788 1412 750 1356 666 c 2
 919 0 l 1
 645 0 l 1
 767 575 l 2
 778 628 835 691 950 771 c 1
 952 780 953 790 953 800 c 0
 953 846 936 902 915 929 c 1
 749 821 l 1
 612 929 l 1
 583 897 564 869 562 862 c 1
 673 862 702 789 702 724 c 0
EndSplineSet
EndChar
StartChar: uni0E12
Encoding: 139 3602 141
Width: 1850
Flags: W
HStem: 0 21<224 516 931 1039 1436.29 1691.25> 624 120<625.386 794.5> 1129 20G<693 767.138 1046.03 1185.5 1704.74 1929>
VStem: 506 100<468.948 586.797> 732 178<499.421 610.268> 814 125<161.263 274.598> 1108 227<723.611 874.622>
Fore
506 488 m 0xf6
 506 626 607 744 757 744 c 0
 832 744 910 711 910 592 c 0xfa
 910 570 907 544 901 515 c 0
 836 206 568 45 464 0 c 1
 224 0 l 1
 247 108 l 2
 271 223 251 512 292 706 c 0
 367 1060 643 1138 743 1149 c 1
 883 1033 l 1
 1080 1149 l 1
 1291 1099 1335 947 1335 825 c 0
 1335 762 1323 707 1317 677 c 2
 1260 410 l 1
 1519 246 l 1
 1709 1139 l 1
 1929 1139 l 1
 1687 0 l 1
 1468 0 l 1
 1208 164 l 1
 1187 65 1088 -10 990 -10 c 0
 872 -10 814 65 814 174 c 0
 814 350 943 469 1057 487 c 1
 1094 664 l 2
 1101 697 1108 729 1108 761 c 0
 1108 812 1090 861 1029 909 c 1
 832 793 l 1
 692 909 l 1
 558 855 480 733 480 464 c 0
 480 398 484 322 493 234 c 1
 551 256 611 318 629 349 c 1
 558 349 506 398 506 488 c 0xf6
1036 317 m 1
 978 317 939 243 939 187 c 0xf6
 939 166 947 156 962 156 c 0
 994 156 1007 179 1016 222 c 2
 1036 317 l 1
651 455 m 0
 698 455 732 516 732 565 c 0xfa
 732 596 719 624 687 624 c 0
 640 624 606 563 606 514 c 0
 606 483 620 455 651 455 c 0
EndSplineSet
EndChar
StartChar: uni0E13
Encoding: 140 3603 142
Width: 1900
Flags: W
HStem: -10 120<366.5 551.121> -10 166<1532.5 1706.19> 280 111<512.477 599> 949 200<671.241 972.779>
VStem: 246 201<126.81 249.386> 572 130<124.123 266.139> 1024 227<709.384 898.875> 1714 164<185.051 315.724>
Fore
702 255 m 0x7f
 702 150 615 -10 440 -10 c 0xbf
 293 -10 246 57 246 165 c 0
 246 205 252 252 263 303 c 2
 277 366 l 2
 310 523 340 560 470 671 c 1
 434 726 377 767 297 792 c 1
 347 912 563 1149 879 1149 c 0
 1111 1149 1251 1033 1251 812 c 0
 1251 770 1246 723 1235 673 c 2
 1144 246 l 1
 1473 410 l 1
 1628 1139 l 1
 1848 1139 l 1
 1710 487 l 1
 1821 475 1878 399 1878 302 c 0
 1878 221 1819 -10 1584 -10 c 0
 1481 -10 1417 44 1417 126 c 0
 1417 138 1418 151 1421 164 c 1
 1092 0 l 1
 872 0 l 1
 1012 657 l 2
 1020 696 1024 732 1024 763 c 0
 1024 885 962 949 836 949 c 0
 730 949 644 906 578 831 c 1
 644 795 684 739 698 663 c 1
 559 541 532 534 496 363 c 1
 517 382 542 391 573 391 c 0
 625 391 702 355 702 255 c 0x7f
1664 156 m 0x7f
 1704 156 1714 226 1714 247 c 0
 1714 287 1694 317 1658 317 c 1
 1638 222 l 2
 1635 208 1634 197 1634 188 c 0
 1634 162 1646 156 1664 156 c 0x7f
491 110 m 0xbf
 540 110 572 173 572 222 c 0
 572 253 559 280 528 280 c 0
 480 280 447 216 447 174 c 0
 447 141 462 110 491 110 c 0xbf
EndSplineSet
EndChar
StartChar: uni0E14
Encoding: 141 3604 143
Width: 1330
Flags: W
HStem: 0 21G<222 614 951 1175.25> 624 120<637.298 793> 949 200<692.985 1012.69>
VStem: 504 113<468.113 591.93> 743 166<466.943 610.146> 1100 228<694.692 868.212>
Fore
698 624 m 0
 651 624 617 562 617 513 c 0
 617 482 631 454 662 454 c 0
 709 454 743 515 743 564 c 0
 743 596 730 624 698 624 c 0
504 487 m 0
 504 625 599 744 755 744 c 0
 831 744 909 711 909 592 c 0
 909 424 766 133 462 0 c 1
 222 0 l 1
 245 108 l 2
 269 221 244 491 285 680 c 0
 351 991 600 1149 896 1149 c 0
 1149 1149 1328 1031 1328 795 c 0
 1328 759 1324 719 1315 677 c 2
 1171 0 l 1
 951 0 l 1
 1092 664 l 2
 1098 690 1100 714 1100 736 c 0
 1100 893 970 949 858 949 c 0
 710 949 536 848 489 627 c 0
 481 587 477 531 477 468 c 0
 477 393 482 309 491 234 c 1
 549 256 609 318 627 349 c 1
 555 349 504 398 504 487 c 0
EndSplineSet
EndChar
StartChar: uni0E15
Encoding: 142 3605 144
Width: 1330
Flags: W
HStem: 0 21G<222 615 951 1175.25> 624 120<635.849 793> 1129 20G<691 765.138 1044.03 1183.5>
VStem: 504.433 112.382<467.931 587.63> 742.321 166.279<467.88 610.446> 1105.76 227.09<722.816 874.695>
Fore
698 624 m 0
 651 624 616.815 562.455 616.815 513.375 c 0
 616.815 481.95 630 454 662 454 c 0
 709 454 742.321 515.543 742.321 564.623 c 0
 742.321 596.049 729 624 698 624 c 0
504.433 486.495 m 0
 504.433 627.385 605 744 755 744 c 0
 831 744 908.6 710.78 908.6 592.641 c 0
 908.6 427.093 768 135 462 0 c 1
 222 0 l 1
 245 108 l 2
 269 223 249 512 290 706 c 0
 365 1060 641 1138 741 1149 c 5
 881 1033 l 5
 1078 1149 l 1
 1289 1099 1332.85 947.436 1332.85 825.15 c 0
 1332.85 762.001 1321 707 1315 677 c 2
 1171 0 l 1
 951 0 l 1
 1092 664 l 2
 1099 697 1105.76 728.779 1105.76 760.45 c 0
 1105.76 811.33 1088 861 1027 909 c 1
 830 793 l 1
 690 909 l 1
 555 855 477.734 732.267 477.734 461.5 c 0
 477.734 396.285 482 321 491 234 c 1
 549 256 609 318 627 349 c 1
 555 349 504.433 397.669 504.433 486.495 c 0
EndSplineSet
EndChar
StartChar: uni0E16
Encoding: 143 3606 145
Width: 1240
Flags: W
HStem: -10 120<355.5 540.121> 280 111<501.477 588> 949 200<660.421 963.24>
VStem: 235 201<126.81 249.386> 561 130<124.123 266.139> 1014 227<711.423 897.779>
Fore
691 255 m 0
 691 150 604 -10 429 -10 c 0
 282 -10 235 57 235 165 c 0
 235 205 241 252 252 303 c 2
 266 366 l 2
 299 523 329 560 459 671 c 1
 421 726 366 767 286 792 c 1
 336 912 552 1149 868 1149 c 0
 1106 1149 1241 1028 1241 811 c 0
 1241 769 1235 723 1225 673 c 2
 1082 0 l 1
 862 0 l 1
 1002 657 l 2
 1010 696 1014 732 1014 763 c 0
 1014 885 952 949 826 949 c 0
 720 949 633 906 567 831 c 1
 633 795 671 739 687 663 c 1
 548 541 521 534 485 363 c 1
 506 382 531 391 562 391 c 0
 614 391 691 355 691 255 c 0
480 110 m 0
 529 110 561 173 561 222 c 0
 561 253 548 280 517 280 c 0
 469 280 436 216 436 174 c 0
 436 141 451 110 480 110 c 0
EndSplineSet
EndChar
StartChar: uni0E17
Encoding: 144 3607 146
Width: 1350
Flags: W
HStem: 0 21G<318 605.176 996 1220.25> 1025 124<452.119 612>
VStem: 312 121<866.646 1012.37> 561 175<889.989 1022.65>
Fore
477 857 m 0
 524 857 561 916 561 964 c 0
 561 996 545 1025 513 1025 c 0
 466 1025 433 964 433 915 c 0
 433 884 446 857 477 857 c 0
312 875 m 0
 312 978 397 1149 578 1149 c 0
 646 1149 736 1119 736 978 c 0
 736 950 733 918 725 881 c 2
 619 380 l 1
 1027 1003 l 2
 1105 1122 1203 1149 1264 1149 c 0
 1384 1149 1418 1060 1418 981 c 0
 1418 961 1416 941 1412 923 c 2
 1216 0 l 1
 996 0 l 1
 1138 669 l 2
 1146 704 1152 735 1152 756 c 0
 1152 776 1146 788 1132 788 c 0
 1121 788 1106 780 1096 765 c 2
 592 0 l 1
 318 0 l 1
 479 759 l 1
 471 754 454 752 428 752 c 0
 383 752 312 782 312 875 c 0
EndSplineSet
EndChar
StartChar: uni0E18
Encoding: 145 3608 147
Width: 1250
Flags: W
HStem: 0 200<513 847> 864 200<1061.96 1247.71> 949 200<679.65 998.664>
Fore
652 882 m 1xa0
 953 822 1149 765 1149 608 c 0
 1149 594 1147 579 1144 563 c 2
 1024 0 l 1
 250 0 l 1
 388 650 l 1
 608 650 l 1
 513 200 l 1
 847 200 l 1
 916 529 l 2
 918 536 918 543 918 549 c 0
 918 572 908 590 887 603 c 2
 815 636 l 2
 716 671 548 707 313 742 c 1
 410 976 576 1149 868 1149 c 0xa0
 1067 1149 1071 1064 1243 1064 c 0
 1268 1064 1294 1067 1320 1072 c 1
 1238 872 l 1
 1220 868 1201 864 1178 864 c 0xc0
 1010 864 979 949 815 949 c 0
 742 949 679 916 652 882 c 1xa0
EndSplineSet
EndChar
StartChar: uni0E19
Encoding: 146 3609 148
Width: 1400
Flags: W
HStem: -10 166<1064.5 1237.92> 748 109<437.034 498.532> 1025 124<453.358 640>
VStem: 320 116<871.254 1011.01> 564 219<900.042 1022.88> 1247 155<183.048 315.291>
Fore
480 857 m 0
 527 857 564 916 564 964 c 0
 564 996 548 1025 516 1025 c 0
 469 1025 436 964 436 915 c 0
 436 884 449 857 480 857 c 0
320 883 m 0
 320 1043 458 1149 575 1149 c 0
 705 1149 783 1090 783 983 c 0
 783 965 781 947 777 927 c 2
 632 246 l 1
 1006 410 l 1
 1161 1139 l 1
 1381 1139 l 1
 1243 487 l 1
 1376 473 1402 378 1402 308 c 0
 1402 198 1329 -10 1117 -10 c 0
 1012 -10 951 48 951 127 c 0
 951 139 952 151 955 164 c 1
 580 0 l 1
 360 0 l 1
 525 776 l 1
 502 757 474 748 441 748 c 0
 357 748 320 810 320 883 c 0
1197 156 m 0
 1237 156 1247 226 1247 247 c 0
 1247 287 1227 317 1191 317 c 1
 1171 222 l 2
 1168 208 1167 197 1167 188 c 0
 1167 162 1179 156 1197 156 c 0
EndSplineSet
EndChar
StartChar: uni0E1A
Encoding: 147 3610 149
Width: 1300
Flags: W
HStem: 0 200<590 976> 749 109<410.48 479.135> 1026 125<428.317 624.5>
VStem: 289 119<871.449 1011.49> 536 211<896.116 1024.38>
Fore
452 858 m 0
 499 858 536 917 536 965 c 0
 536 997 520 1026 488 1026 c 0
 441 1026 408 965 408 916 c 0
 408 885 421 858 452 858 c 0
289 885 m 0
 289 990 374 1151 556 1151 c 0
 693 1151 747 1092 747 985 c 0
 747 954 742 919 734 881 c 2
 590 200 l 1
 976 200 l 1
 1175 1139 l 1
 1395 1139 l 1
 1153 0 l 1
 327 0 l 1
 488 759 l 1
 473 754 454 749 432 749 c 0
 344 749 289 802 289 885 c 0
EndSplineSet
EndChar
StartChar: uni0E1B
Encoding: 148 3611 150
Width: 1300
Flags: W
HStem: 0 200<590 976> 749 109<410.48 479.135> 1026 125<428.317 624.5>
VStem: 289 119<871.449 1011.49> 536 211<896.116 1024.38>
AnchorPoint: "AboveBase" 1121.81 1227 basechar 0
Fore
452 858 m 0
 499 858 536 917 536 965 c 0
 536 997 520 1026 488 1026 c 0
 441 1026 408 965 408 916 c 0
 408 885 421 858 452 858 c 0
289 885 m 0
 289 990 374 1151 556 1151 c 0
 693 1151 747 1092 747 985 c 0
 747 954 742 919 734 881 c 2
 590 200 l 1
 976 200 l 1
 1248 1480 l 1
 1468 1480 l 1
 1153 0 l 1
 327 0 l 1
 488 759 l 1
 473 754 454 749 432 749 c 0
 344 749 289 802 289 885 c 0
EndSplineSet
EndChar
StartChar: uni0E1C
Encoding: 149 3612 151
Width: 1200
Flags: W
HStem: 0 21G<133 371.192 814.638 1047.25> 749 111<546.223 653.447> 1028 123<564.882 669.972>
VStem: 672 116<874.37 1026.78>
Fore
589 860 m 0
 635 860 672 918 672 966 c 0
 672 999 658 1028 625 1028 c 0
 577 1028 545 966 545 917 c 0
 545 887 558 860 589 860 c 0
788 995 m 0
 788 862 700 749 567 749 c 0
 534 749 519 757 514 759 c 1
 423 330 l 1
 725 698 l 1
 767 698 l 1
 893 330 l 1
 1065 1139 l 1
 1285 1139 l 1
 1043 0 l 1
 823 0 l 1
 675 354 l 1
 353 0 l 1
 133 0 l 1
 310 835 l 2
 351 1026 409 1151 601 1151 c 0
 704 1151 788 1111 788 995 c 0
EndSplineSet
EndChar
StartChar: uni0E1D
Encoding: 150 3613 152
Width: 1200
Flags: W
HStem: 0 21G<133 371.192 814.638 1047.26> 749 111<546.223 653.447> 1028 123<564.882 669.972>
VStem: 672 116<874.37 1026.78>
AnchorPoint: "AboveBase" 1011.81 1227 basechar 0
Fore
589 860 m 0
 635 860 672 918 672 966 c 0
 672 999 658 1028 625 1028 c 0
 577 1028 545 966 545 917 c 0
 545 887 558 860 589 860 c 0
788 995 m 0
 788 862 700 749 567 749 c 0
 534 749 519 757 514 759 c 1
 423 330 l 1
 725 698 l 1
 767 698 l 1
 893 330 l 1
 1138 1480 l 1
 1358 1480 l 1
 1043 0 l 1
 823 0 l 1
 675 354 l 1
 353 0 l 1
 133 0 l 1
 310 835 l 2
 351 1026 409 1151 601 1151 c 0
 704 1151 788 1111 788 995 c 0
EndSplineSet
EndChar
StartChar: uni0E1E
Encoding: 151 3614 153
Width: 1350
Flags: W
HStem: 0 21G<297 529.2 983.533 1211.25> 749 111<380.788 449.36> 1028 123<398.819 599.5>
VStem: 259 120<872.861 1014.79> 506 214<901.713 1027.3>
Fore
423 860 m 0
 469 860 506 918 506 966 c 0
 506 999 492 1028 459 1028 c 0
 411 1028 379 966 379 917 c 0
 379 887 392 860 423 860 c 0
259 884 m 0
 259 989 342 1151 526 1151 c 0
 673 1151 720 1082 720 989 c 0
 720 964 716 937 710 909 c 2
 623 500 l 1
 942 1039 l 1
 999 1039 l 1
 1093 500 l 1
 1229 1139 l 1
 1449 1139 l 1
 1207 0 l 1
 987 0 l 1
 883 600 l 1
 517 0 l 1
 297 0 l 1
 458 759 l 1
 443 754 424 749 402 749 c 0
 313 749 259 802 259 884 c 0
EndSplineSet
EndChar
StartChar: uni0E1F
Encoding: 152 3615 154
Width: 1350
Flags: W
HStem: 0 21G<297 529.2 983.533 1211.26> 749 111<380.788 449.36> 1028 123<398.819 599.5>
VStem: 259 120<872.861 1014.79> 506 214<901.713 1027.3>
AnchorPoint: "AboveBase" 1175.81 1227 basechar 0
Fore
423 860 m 0
 469 860 506 918 506 966 c 0
 506 999 492 1028 459 1028 c 0
 411 1028 379 966 379 917 c 0
 379 887 392 860 423 860 c 0
259 884 m 0
 259 989 342 1151 526 1151 c 0
 673 1151 720 1082 720 989 c 0
 720 964 716 937 710 909 c 2
 623 500 l 1
 942 1039 l 1
 999 1039 l 1
 1093 500 l 1
 1302 1480 l 1
 1522 1480 l 1
 1207 0 l 1
 987 0 l 1
 883 600 l 1
 517 0 l 1
 297 0 l 1
 458 759 l 1
 443 754 424 749 402 749 c 0
 313 749 259 802 259 884 c 0
EndSplineSet
EndChar
StartChar: uni0E20
Encoding: 153 3616 155
Width: 1350
Flags: W
HStem: -10 120<248.707 352.623> 280 111<267.157 366.815> 949 200<790.421 1093.24>
VStem: 123 124<123.778 265.616> 1144 227<711.423 897.779>
Fore
329 280 m 0
 282 280 247 219 247 170 c 0
 247 138 260 110 292 110 c 0
 340 110 373 173 373 222 c 0
 373 253 360 280 329 280 c 0
123 156 m 0
 123 280 219 391 329 391 c 0
 359 391 381 382 395 363 c 1
 400 384 l 2
 429 523 464 565 589 671 c 1
 553 726 496 767 416 792 c 1
 466 912 682 1149 998 1149 c 0
 1236 1149 1371 1028 1371 811 c 0
 1371 769 1365 723 1355 673 c 2
 1212 0 l 1
 992 0 l 1
 1132 657 l 2
 1140 696 1144 732 1144 763 c 0
 1144 885 1082 949 956 949 c 0
 850 949 763 906 697 831 c 1
 763 795 803 739 817 663 c 1
 689 551 652 536 618 376 c 2
 602 303 l 2
 569 148 514 -10 293 -10 c 0
 166 -10 123 75 123 156 c 0
EndSplineSet
EndChar
StartChar: uni0E21
Encoding: 154 3617 156
Width: 1350
Flags: W
HStem: 0 21<341.5 449.5 895.927 1157.25> 748 110<420.091 512.578> 1028 121<469.931 654>
VStem: 204 155<160.425 292.585> 333 118<869.298 1012.9> 577 220<899.587 1013.62>
Fore
533 1028 m 0xec
 486 1028 451 967 451 918 c 0
 451 886 464 858 496 858 c 0
 544 858 577 921 577 970 c 0
 577 1001 564 1028 533 1028 c 0xec
333 879 m 0
 333 1025 456 1149 589 1149 c 0
 719 1149 797 1090 797 983 c 0
 797 965 795 947 791 927 c 2
 681 410 l 1
 985 246 l 1
 1175 1139 l 1
 1395 1139 l 1
 1153 0 l 1
 933 0 l 1
 629 164 l 1
 607 63 507 -10 392 -10 c 0
 291 -10 204 41 204 169 c 0xf4
 204 329 315 471 478 487 c 1
 539 776 l 1
 516 757 488 748 455 748 c 0
 388 748 333 793 333 879 c 0
456 317 m 1
 398 317 359 243 359 187 c 0
 359 166 367 156 382 156 c 0
 406 156 424 167 436 222 c 2
 456 317 l 1
EndSplineSet
EndChar
StartChar: uni0E22
Encoding: 155 3618 157
Width: 1200
Flags: W
HStem: 0 200<464 850> 495 133<604.708 729> 752 106<592.44 691.95> 1028 121<604.181 711.104>
VStem: 712 136<873.241 1014.9>
Fore
668 1028 m 0
 621 1028 586 967 586 918 c 0
 586 886 599 858 631 858 c 0
 679 858 712 921 712 970 c 0
 712 1001 699 1028 668 1028 c 0
848 984 m 0
 848 860 749 752 623 752 c 0
 610 752 596 753 582 756 c 1
 581 751 580 745 580 739 c 0
 580 691 619 628 685 628 c 2
 757 628 l 1
 729 495 l 1
 657 495 l 2
 571 495 513 432 495 347 c 2
 464 200 l 1
 850 200 l 1
 1049 1139 l 1
 1269 1139 l 1
 1027 0 l 1
 201 0 l 1
 288 410 l 2
 298 457 356 520 429 562 c 1
 371 597 344 634 344 707 c 0
 344 740 350 780 361 831 c 0
 388 960 405 1024 493 1093 c 0
 552 1138 617 1149 643 1149 c 0
 807 1149 848 1061 848 984 c 0
EndSplineSet
EndChar
StartChar: uni0E23
Encoding: 156 3619 158
Width: 1100
Flags: W
HStem: -10 120<644.388 746.801> 280 121<660.392 766.702> 864 200<1010.97 1196.71> 949 200<620.666 947.386>
VStem: 524 118<125.113 263.879>
Fore
724 280 m 0xc8
 677 280 642 219 642 170 c 0
 642 138 655 110 687 110 c 0
 735 110 768 173 768 222 c 0
 768 253 755 280 724 280 c 0xc8
524 148 m 0
 524 285 629 401 755 401 c 0
 775 401 797 400 808 393 c 1
 836 529 l 2
 837 536 838 542 838 548 c 0
 838 664 585 683 262 742 c 1
 359 976 525 1149 817 1149 c 0xd8
 1016 1149 1021 1064 1192 1064 c 0
 1217 1064 1243 1067 1269 1072 c 1
 1187 872 l 1
 1169 868 1149 864 1127 864 c 0xe8
 959 864 926 949 764 949 c 0xd8
 691 949 618 919 589 872 c 1
 851 819 1068 785 1068 609 c 0
 1068 592 1066 573 1062 553 c 2
 1008 303 l 2
 968 114 914 -10 736 -10 c 0
 561 -10 524 75 524 148 c 0
EndSplineSet
EndChar
StartChar: uni0E24
Encoding: 157 3620 159
Width: 1240
Flags: W
HStem: -10 120<355.5 540.121> 280 111<501.477 588> 949 200<660.699 963.24>
VStem: 235 201<126.81 249.386> 561 130<124.123 266.139> 1014 227<711.423 897.779>
Fore
691 255 m 0
 691 150 604 -10 429 -10 c 0
 282 -10 235 57 235 165 c 0
 235 205 241 252 252 303 c 2
 266 366 l 2
 299 523 329 560 459 671 c 1
 421 726 366 767 286 792 c 1
 337 912 552 1149 868 1149 c 0
 1106 1149 1241 1028 1241 811 c 0
 1241 769 1235 723 1225 673 c 2
 1001 -380 l 1
 781 -380 l 1
 1002 657 l 2
 1010 696 1014 732 1014 763 c 0
 1014 885 952 949 826 949 c 0
 720 949 634 906 567 831 c 1
 633 795 671 739 687 663 c 1
 548 541 521 534 485 363 c 1
 506 382 531 391 562 391 c 0
 614 391 691 355 691 255 c 0
480 110 m 0
 529 110 561 173 561 222 c 0
 561 253 548 280 517 280 c 0
 469 280 436 216 436 174 c 0
 436 141 451 110 480 110 c 0
EndSplineSet
EndChar
StartChar: uni0E25
Encoding: 158 3621 160
Width: 1250
Flags: W
HStem: -10 120<352 553.996> 280 111<505.693 572.006> 540 200<551.956 864.418> 949 200<591.301 924.103>
VStem: 235 213<126.253 249.056> 573 121<124.587 267.923> 991 227<733.577 885.449>
Fore
492 110 m 0
 541 110 573 173 573 222 c 0
 573 253 560 280 529 280 c 0
 481 280 448 216 448 174 c 0
 448 141 463 110 492 110 c 0
694 257 m 0
 694 151 609 -10 431 -10 c 0
 273 -10 235 70 235 162 c 0
 235 209 245 259 254 303 c 2
 283 438 l 2
 325 634 509 740 723 740 c 0
 874 740 954 694 973 658 c 1
 985 714 l 2
 989 735 991 755 991 772 c 0
 991 908 873 949 772 949 c 0
 636 949 507 875 431 775 c 1
 323 929 l 1
 437 1071 654 1149 811 1149 c 0
 1032 1149 1218 1065 1218 831 c 0
 1218 795 1214 756 1205 713 c 2
 1053 0 l 1
 833 0 l 1
 893 283 l 2
 901 322 905 356 905 384 c 0
 905 523 810 540 685 540 c 0
 620 540 519 512 496 403 c 2
 487 363 l 1
 508 382 533 391 564 391 c 0
 620 391 694 355 694 257 c 0
EndSplineSet
EndChar
StartChar: uni0E26
Encoding: 159 3622 161
Width: 1350
Flags: W
HStem: -10 120<248.707 352.623> 280 111<267.157 366.815> 949 200<790.977 1093.24>
VStem: 123 124<123.778 265.616> 1144 227<711.423 897.779>
Fore
329 280 m 0
 282 280 247 219 247 170 c 0
 247 138 260 110 292 110 c 0
 340 110 373 173 373 222 c 0
 373 253 360 280 329 280 c 0
123 156 m 0
 123 280 219 391 329 391 c 0
 359 391 381 382 395 363 c 1
 400 384 l 2
 429 523 464 565 589 671 c 1
 553 726 496 767 416 792 c 1
 468 912 682 1149 998 1149 c 0
 1236 1149 1371 1028 1371 811 c 0
 1371 769 1365 723 1355 673 c 2
 1131 -380 l 1
 911 -380 l 1
 1132 657 l 2
 1140 696 1144 732 1144 763 c 0
 1144 885 1082 949 956 949 c 0
 850 949 765 906 697 831 c 1
 763 795 803 739 817 663 c 1
 689 551 652 536 618 376 c 2
 602 303 l 2
 569 148 514 -10 293 -10 c 0
 166 -10 123 75 123 156 c 0
EndSplineSet
EndChar
StartChar: uni0E27
Encoding: 160 3623 162
Width: 1150
Flags: W
HStem: -11 121<733.049 833.135> 280 115<749.877 854.31> 949 200<529.596 898.425>
VStem: 616 114<124.995 264.29> 970 227<733.57 883.461>
Fore
812 280 m 0
 765 280 730 219 730 170 c 0
 730 138 743 110 775 110 c 0
 823 110 856 173 856 222 c 0
 856 253 843 280 812 280 c 0
616 154 m 0
 616 297 725 395 818 395 c 0
 880 395 890 379 892 377 c 1
 964 714 l 2
 968 734 970 753 970 770 c 0
 970 907 842 949 714 949 c 0
 535 949 414 835 373 775 c 1
 265 929 l 1
 429 1078 559 1149 754 1149 c 0
 978 1149 1197 1079 1197 828 c 0
 1197 794 1193 756 1184 714 c 2
 1096 303 l 2
 1063 148 1020 -11 799 -11 c 0
 684 -11 616 51 616 154 c 0
EndSplineSet
EndChar
StartChar: uni0E28
Encoding: 161 3624 163
Width: 1300
Flags: W
HStem: 0 21G<186 426 914 1138.24> 305 111<691.424 813.688> 574 142<707.605 830.321> 949 200<644.618 974.203>
VStem: 833 125<433.54 571.518> 1063 228<699.081 864.683>
Fore
744 416 m 0
 789 416 833 465 833 513 c 0
 833 546 812 574 778 574 c 0
 734 574 689 525 689 478 c 0
 689 445 710 416 744 416 c 0
958 550 m 0
 958 432 830 305 700 305 c 0
 655 305 620 325 618 338 c 1
 581 304 433 52 419 0 c 1
 186 0 l 1
 209 108 l 2
 240 252 206 485 247 676 c 0
 327 1052 688 1149 861 1149 c 0
 994 1149 1081 1119 1164 1061 c 1
 1219 1094 1271 1148 1322 1224 c 1
 1540 1224 l 1
 1479 1108 1387 1012 1268 937 c 1
 1283 902 1291 858 1291 807 c 0
 1291 761 1285 709 1272 651 c 2
 1134 0 l 1
 914 0 l 1
 1055 664 l 2
 1060 689 1063 713 1063 734 c 0
 1063 894 923 949 815 949 c 0
 713 949 506 890 455 647 c 0
 438 567 438 434 431 384 c 1
 536 592 658 716 800 716 c 0
 893 716 958 636 958 550 c 0
EndSplineSet
EndChar
StartChar: uni0E29
Encoding: 162 3625 164
Width: 1350
Flags: W
HStem: 0 200<559 945> 697 87<842.295 930.809> 749 109<379.48 448.135> 1026 125<397.317 593.5>
VStem: 258 119<871.449 1011.49> 505 211<896.116 1024.38> 734 107<528.5 696.037> 932 95<622.193 694.555>
Fore
421 858 m 0xbf
 468 858 505 917 505 965 c 0
 505 997 489 1026 457 1026 c 0
 410 1026 377 965 377 916 c 0
 377 885 390 858 421 858 c 0xbf
258 885 m 0
 258 990 343 1151 525 1151 c 0
 662 1151 716 1092 716 985 c 0
 716 954 711 919 703 881 c 2
 559 200 l 1
 945 200 l 1
 991 421 l 1
 978 418 954 417 929 417 c 0
 831 417 734 475 734 582 c 0
 734 696 822 784 912 784 c 0xdf
 976 784 1027 760 1027 693 c 0
 1027 622 994 594 969 575 c 1
 971 568 982 564 1003 564 c 0
 1010 564 1017 564 1022 566 c 1
 1144 1139 l 1
 1364 1139 l 1
 1258 642 l 1
 1290 668 1312 711 1325 771 c 1
 1458 771 l 1
 1423 606 1359 528 1220 463 c 1
 1122 0 l 1
 296 0 l 1
 457 759 l 1
 442 754 423 749 401 749 c 0
 313 749 258 802 258 885 c 0
896 697 m 0
 863 697 841 670 841 640 c 0
 841 620 854 607 877 607 c 0
 916 607 932 644 932 653 c 0
 932 662 922 697 896 697 c 0
EndSplineSet
EndChar
StartChar: uni0E2A
Encoding: 163 3626 165
Width: 1250
Flags: W
HStem: -10 120<352 553.996> 280 111<505.693 572.006> 540 200<551.956 853.576> 949 200<597.96 931.801>
VStem: 235 213<126.253 249.056> 573 121<124.587 267.923> 992 228<742.437 889.834>
Fore
492 110 m 0
 541 110 573 173 573 222 c 0
 573 253 560 280 529 280 c 0
 481 280 448 216 448 174 c 0
 448 141 463 110 492 110 c 0
694 257 m 0
 694 151 609 -10 431 -10 c 0
 273 -10 235 70 235 162 c 0
 235 209 245 259 254 303 c 2
 283 438 l 2
 325 634 509 740 723 740 c 0
 874 740 954 694 973 658 c 1
 985 714 l 2
 990 736 992 756 992 774 c 0
 992 910 873 949 772 949 c 0
 636 949 505 865 431 775 c 1
 323 929 l 1
 437 1071 654 1149 811 1149 c 0
 946 1149 1045 1119 1105 1059 c 1
 1164 1094 1215 1144 1259 1209 c 1
 1527 1209 l 1
 1508 1119 1326 980 1214 915 c 1
 1218 894 1220 871 1220 846 c 0
 1220 807 1215 763 1205 713 c 2
 1053 0 l 1
 833 0 l 1
 889 263 l 2
 897 303 901 337 901 367 c 0
 901 510 809 540 685 540 c 0
 620 540 519 512 496 403 c 2
 487 363 l 1
 508 382 533 391 564 391 c 0
 620 391 694 355 694 257 c 0
EndSplineSet
EndChar
StartChar: uni0E2B
Encoding: 164 3627 166
Width: 1350
Flags: W
HStem: 0 21G<332 673 978 1202.26> 745 112<370.986 478.398> 1012 137<1122.23 1252.4> 1025 124<427.894 628>
VStem: 291 118<868.451 1011.19> 537 216<896.949 1024.72> 962 146<863.167 999.596> 1253 147<934.543 1010.74>
Fore
453 857 m 0xdf
 500 857 537 916 537 964 c 0
 537 996 521 1025 489 1025 c 0
 442 1025 409 964 409 915 c 0
 409 884 422 857 453 857 c 0xdf
291 879 m 0
 291 1021 401 1149 567 1149 c 0xdf
 689 1149 753 1064 753 968 c 0
 753 953 751 937 748 921 c 2
 634 385 l 1
 730 510 l 2
 851 654 944 732 1004 776 c 1
 976 813 962 854 962 898 c 0
 962 1044 1097 1149 1223 1149 c 0xef
 1331 1149 1400 1088 1400 993 c 0
 1400 962 1388 832 1269 764 c 1
 1306 741 1331 693 1331 642 c 0
 1331 631 1330 621 1328 610 c 2
 1198 0 l 1
 978 0 l 1
 1092 538 l 2
 1094 548 1095 556 1095 565 c 0
 1095 581 1091 595 1084 606 c 1
 955 532 740 245 606 0 c 1
 332 0 l 1
 493 759 l 1
 476 750 449 745 413 745 c 0
 332 745 291 802 291 879 c 0
1196 1012 m 0xef
 1140 1012 1108 963 1108 916 c 0
 1108 883 1126 862 1164 862 c 0
 1235 862 1253 930 1253 959 c 0
 1253 992 1233 1012 1196 1012 c 0xef
EndSplineSet
EndChar
StartChar: uni0E2C
Encoding: 165 3628 167
Width: 1400
Flags: W
HStem: 0 21G<311 543.2 997.533 1225.25> 749 111<394.788 463.36> 1028 123<412.819 613.5> 1154 147<1499 1601.54> 1428 129<1245.83 1365.81>
VStem: 273 120<872.861 1014.79> 520 214<901.713 1027.3> 1111 126<1303.06 1416.99> 1367 147<1328.62 1427.4>
AnchorPoint: "AboveBase" 1052.81 1227 basechar 0
Fore
437 860 m 0
 483 860 520 918 520 966 c 0
 520 999 506 1028 473 1028 c 0
 425 1028 393 966 393 917 c 0
 393 887 406 860 437 860 c 0
273 884 m 0
 273 989 356 1151 540 1151 c 0
 687 1151 734 1082 734 989 c 0
 734 964 730 937 724 909 c 2
 637 500 l 1
 956 1039 l 1
 1013 1039 l 1
 1107 500 l 1
 1247 1158 l 1
 1161 1173 1111 1230 1111 1311 c 0
 1111 1428 1200 1557 1356 1557 c 0
 1452 1557 1514 1499 1514 1411 c 0
 1514 1387 1511 1358 1504 1325 c 2
 1499 1301 l 1
 1585 1301 1651 1375 1675 1487 c 1
 1809 1487 l 1
 1752 1218 1553 1154 1466 1154 c 1
 1221 0 l 1
 1001 0 l 1
 897 600 l 1
 531 0 l 1
 311 0 l 1
 472 759 l 1
 457 754 438 749 416 749 c 0
 327 749 273 802 273 884 c 0
1316 1428 m 0
 1271 1428 1237 1387 1237 1351 c 0
 1237 1312 1273 1302 1289 1302 c 0
 1326 1302 1367 1336 1367 1378 c 0
 1367 1409 1342 1428 1316 1428 c 0
EndSplineSet
EndChar
StartChar: uni0E2D
Encoding: 166 3629 168
Width: 1230
Flags: W
HStem: 0 200<486 873> 354 101<524.43 622.807> 625 123<535.74 640.279> 949 200<583.365 922.344>
VStem: 642 114<468.022 610.788> 988 232<746.438 886.521>
Fore
561 455 m 0
 609 455 642 518 642 565 c 0
 642 597 629 625 597 625 c 0
 549 625 517 561 517 518 c 0
 517 485 532 455 561 455 c 0
756 583 m 0
 756 443 642 354 553 354 c 0
 540 354 528 355 519 358 c 1
 486 200 l 1
 873 200 l 1
 982 715 l 2
 986 736 988 755 988 773 c 0
 988 908 869 949 770 949 c 0
 628 949 510 881 428 775 c 1
 315 936 l 1
 447 1078 612 1149 809 1149 c 0
 1034 1149 1220 1047 1220 838 c 0
 1220 811 1217 782 1210 751 c 2
 1050 0 l 1
 223 0 l 1
 315 434 l 2
 353 612 414 748 590 748 c 0
 721 748 756 661 756 583 c 0
EndSplineSet
EndChar
StartChar: uni0E2E
Encoding: 167 3630 169
Width: 1250
Flags: W
HStem: 0 200<493 880> 354 101<531.43 629.807> 625 123<542.74 647.279> 746 148<697.149 934.169> 972 177<712.656 933.699>
VStem: 649 114<468.022 610.788>
Fore
568 455 m 0xec
 616 455 649 518 649 565 c 0
 649 597 636 625 604 625 c 0
 556 625 524 561 524 518 c 0
 524 485 539 455 568 455 c 0xec
763 583 m 0
 763 443 649 354 560 354 c 0
 547 354 535 355 526 358 c 1
 493 200 l 1
 880 200 l 1
 995 741 l 2
 1001 770 1005 793 1005 808 c 1
 923 767 832 746 731 746 c 0xdc
 571 746 398 801 398 917 c 0
 398 1057 632 1149 829 1149 c 0
 946 1149 1045 1121 1124 1064 c 1
 1159 1099 1183 1131 1196 1158 c 1
 1309 1116 l 1
 1275 1061 1239 1014 1201 975 c 1
 1221 934 1231 891 1231 848 c 0
 1231 827 1228 807 1224 786 c 2
 1057 0 l 1
 230 0 l 1
 322 434 l 2
 360 612 421 748 597 748 c 0
 728 748 763 661 763 583 c 0
802 972 m 0
 757 972 673 955 673 929 c 0
 673 901 744 894 772 894 c 0
 874 894 929 930 935 935 c 1
 915 957 872 972 802 972 c 0
EndSplineSet
EndChar
StartChar: uni0E2F
Encoding: 168 3631 170
Width: 1150
Flags: W
HStem: 0 21G<805 1029.25> 657 200<696 852.508> 1023 124<472.092 599.589>
VStem: 318 143<814 1011.85> 601 158<899.328 1021.55>
Fore
759 1008 m 0
 759 966 734 889 696 857 c 1
 731 857 l 2
 905 857 1024 1032 1049 1149 c 1
 1269 1149 l 1
 1025 0 l 1
 805 0 l 1
 970 776 l 1
 879 683 723 657 627 657 c 0
 391 657 318 759 318 869 c 0
 318 1017 427 1147 591 1147 c 0
 670 1147 759 1103 759 1008 c 0
517 889 m 0
 565 889 601 928 601 973 c 0
 601 1003 579 1023 545 1023 c 0
 499 1023 461 986 461 940 c 0
 461 909 482 889 517 889 c 0
EndSplineSet
EndChar
StartChar: uni0E30
Encoding: 169 3632 171
Width: 1100
Flags: W
HStem: 79 154<509 700.336> 388 110<364.476 482.727> 603 154<620 811.336> 912 110<475.665 593.772>
VStem: 233 123<268.339 361.01> 345 122<792.339 885.115> 484 129<320.28 387.359> 595 130<845 911.275>
Fore
613 367 m 0xfa
 613 328 589 263 561 233 c 1
 670 233 827 334 858 480 c 1
 1024 480 l 1
 973 241 748 79 509 79 c 0
 304 79 233 187 233 277 c 0
 233 340 281 498 472 498 c 0
 575 498 613 427 613 367 c 0xfa
407 268 m 0
 469 268 484 318 484 345 c 0
 484 374 466 388 432 388 c 0
 364 388 356 329 356 309 c 0
 356 282 374 268 407 268 c 0
725 891 m 0xf5
 725 852 700 786 672 757 c 1
 781 757 938 858 969 1004 c 1
 1135 1004 l 1
 1085 765 859 603 620 603 c 0
 415 603 345 711 345 801 c 0
 345 866 393 1022 583 1022 c 0
 687 1022 725 950 725 891 c 0xf5
518 792 m 0
 584 792 595 848 595 871 c 0
 595 898 577 912 544 912 c 0
 482 912 467 862 467 834 c 0
 467 806 484 792 518 792 c 0
EndSplineSet
EndChar
StartChar: uni0E31
Encoding: 170 3633 172
Width: 0
Flags: W
HStem: 1233 154<-151 40.3358> 1542 110<-295.335 -177.228>
VStem: -426 122<1422.34 1515.12> -176 130<1475 1541.28>
AnchorPoint: "AboveMark" 107.849 1740 basemark 0
AnchorPoint: "AboveBase" 80.8066 1227 mark 0
Fore
-46 1521 m 0
 -46 1482 -71 1416 -99 1387 c 1
 10 1387 167 1488 198 1634 c 1
 364 1634 l 1
 314 1395 88 1233 -151 1233 c 0
 -356 1233 -426 1341 -426 1431 c 0
 -426 1496 -378 1652 -188 1652 c 0
 -84 1652 -46 1580 -46 1521 c 0
-253 1422 m 0
 -187 1422 -176 1478 -176 1501 c 0
 -176 1528 -194 1542 -227 1542 c 0
 -289 1542 -304 1492 -304 1464 c 0
 -304 1436 -287 1422 -253 1422 c 0
EndSplineSet
EndChar
StartChar: uni0E32
Encoding: 171 3634 173
Width: 1150
Flags: W
HStem: 0 21G<736 960.25> 949 200<604.668 857.827>
VStem: 899 229<762.098 908.962>
Fore
300 846 m 1
 393 999 584 1149 766 1149 c 0
 990 1149 1128 1047 1128 856 c 0
 1128 824 1124 790 1116 753 c 2
 956 0 l 1
 736 0 l 1
 891 729 l 2
 896 753 899 775 899 796 c 0
 899 891 844 949 735 949 c 0
 606 949 508 820 480 764 c 1
 300 846 l 1
EndSplineSet
EndChar
StartChar: uni0E34
Encoding: 173 3636 175
Width: 0
Flags: W
HStem: 1331 110<-588 -292.325> 1520 159<-543.321 -230.293>
VStem: -898 979<1228 1331>
AnchorPoint: "AboveBase" 80.8066 1227 mark 0
AnchorPoint: "AboveMark" 62.8486 1740 basemark 0
Fore
81 1228 m 1
 -132 1277 -653 1331 -898 1331 c 1
 -764 1549 -562 1679 -318 1679 c 0
 -272 1679 -153 1673 -41 1575 c 0
 42 1502 81 1397 81 1246 c 0
 81 1228 l 1
-139 1392 m 1
 -170 1481 -247 1520 -388 1520 c 0
 -466 1520 -536 1490 -588 1441 c 1
 -431 1441 -226 1414 -139 1392 c 1
EndSplineSet
EndChar
StartChar: uni0E35
Encoding: 174 3637 176
Width: 0
Flags: W
HStem: 1323 106<-540 -251.971> 1499 143<-507.942 -188.18>
AnchorPoint: "AboveBase" 80.8066 1227 mark 0
AnchorPoint: "AboveMark" 90.8486 1740 basemark 0
Fore
-310 1642 m 0
 -208 1642 -110 1620 -41 1546 c 1
 -1 1735 l 1
 181 1735 l 1
 80 1260 l 1
 80 1255 80 1244 80 1228 c 1
 -114 1272 -610 1323 -844 1323 c 1
 -765 1476 -558 1642 -310 1642 c 0
-134 1387 m 1
 -161 1455 -233 1499 -363 1499 c 0
 -431 1499 -496 1470 -540 1429 c 1
 -398 1429 -213 1405 -134 1387 c 1
EndSplineSet
EndChar
StartChar: uni0E36
Encoding: 175 3638 177
Width: 0
Flags: W
HStem: 1321 116<77.7871 179.09> 1323 96<-537.382 -251.9> 1500 140<-482.914 -197.708> 1559 122<61.6507 186.114>
VStem: 186.747 121.434<1447.4 1557.69>
AnchorPoint: "AboveBase" 170.807 1227 mark 0
AnchorPoint: "AboveMark" 172.849 1740 basemark 0
Fore
308.181 1538.31 m 0x18
 308.181 1430.59 208.283 1321 77.7871 1321 c 1x98
 79.9784 1306.68 81 1257 80 1228 c 5
 -114 1272 -609.788 1323 -843.788 1323 c 1
 -770.754 1469 -562.407 1640 -287.407 1640 c 0x68
 -143.407 1640 -75.9727 1595 -49.9863 1562 c 1
 -9.04492 1637 76.3076 1681 151.308 1681 c 0
 247.366 1681 308.181 1619.23 308.181 1538.31 c 0x18
107.443 1437 m 0
 143.748 1437 186.747 1467.32 186.747 1510.33 c 0
 186.747 1538.93 164.123 1559 133.376 1559 c 0
 97.0719 1559 54.0734 1528.68 54.0734 1485.67 c 0
 54.0734 1457.07 76.6962 1437 107.443 1437 c 0
-139.522 1376 m 1
 -161.769 1436 -221.165 1500 -335.165 1500 c 0
 -419.165 1500 -515.068 1444 -537.382 1419 c 1x68
 -405.382 1419 -214.483 1395 -139.522 1376 c 1
EndSplineSet
EndChar
StartChar: uni0E37
Encoding: 176 3639 178
Width: 0
Flags: W
HStem: 1323 91<-560 -258.676> 1506 128<-502.353 -249.139>
VStem: -825 1003<1323 1722>
AnchorPoint: "AboveMark" -11.1514 1740 basemark 0
AnchorPoint: "AboveBase" 80.8066 1227 mark 0
Fore
-825 1323 m 1
 -737 1482 -541 1634 -301 1634 c 0
 -279 1634 -262 1632 -235 1625 c 1
 -214 1723 l 1
 -38 1723 l 1
 -67 1587 l 1
 -52 1583 -39 1571 -28 1551 c 1
 8 1722 l 1
 178 1722 l 1
 85 1285 l 1
 75 1228 l 1
 -123 1273 -620 1323 -825 1323 c 1
-109 1370 m 1
 -139 1487 -256 1506 -297 1506 c 0
 -438 1506 -491 1482 -560 1414 c 1
 -410 1414 -142 1380 -109 1370 c 1
EndSplineSet
EndChar
StartChar: uni0E38
Encoding: 177 3640 179
Width: 0
Flags: W
HStem: -176 91<-481.421 -310.5>
VStem: -580 92<-294.456 -180.224> -388 171<-279.984 -176.3>
AnchorPoint: "BelowBase" -179.067 -85 mark 0
Fore
-580 -275 m 0
 -580 -196 -522 -85 -370 -85 c 0
 -251 -85 -217 -147 -217 -225 c 0
 -217 -253 -221 -283 -228 -313 c 2
 -275 -534 l 1
 -475 -534 l 1
 -440 -370 l 1
 -453 -375 -465 -378 -477 -378 c 0
 -514 -378 -580 -356 -580 -275 c 0
-425 -176 m 0
 -453 -176 -488 -207 -488 -253 c 0
 -488 -283 -468 -296 -451 -296 c 0
 -423 -296 -388 -265 -388 -219 c 0
 -388 -189 -408 -176 -425 -176 c 0
EndSplineSet
EndChar
StartChar: uni0E39
Encoding: 178 3641 180
Width: 0
Flags: W
HStem: -504 129<-556 -440> -351 73<-804.846 -759.23> -158 83<-804.052 -717.364>
VStem: -900 88<-277.315 -162.395> -712 185<-262.167 -158.49>
AnchorPoint: "BelowBase" -179.067 -85 mark 0
Fore
-750 -158 m 0
 -778 -158 -812 -191 -812 -235 c 0
 -812 -265 -792 -278 -775 -278 c 0
 -747 -278 -712 -246 -712 -201 c 0
 -712 -171 -733 -158 -750 -158 c 0
-900 -255 m 0
 -900 -175 -820 -75 -721 -75 c 0
 -564 -75 -527 -135 -527 -207 c 0
 -527 -234 -532 -262 -538 -290 c 2
 -556 -375 l 1
 -440 -375 l 1
 -381 -98 l 1
 -181 -98 l 1
 -267 -504 l 1
 -783 -504 l 1
 -747 -335 l 1
 -759 -345 -779 -351 -800 -351 c 0
 -852 -351 -900 -316 -900 -255 c 0
EndSplineSet
EndChar
StartChar: uni0E3A
Encoding: 179 3642 181
Width: 0
Flags: W
AnchorPoint: "BelowBase" -171.816 -65 mark 0
Fore
-424.332 -221.818 m 0
 -424.332 -148.812 -352 -60 -259 -60 c 4
 -185 -60 -149.788 -115.17 -149.788 -169.505 c 0
 -149.788 -247.219 -231 -330 -316 -330 c 0
 -377 -330 -424.332 -283.806 -424.332 -221.818 c 0
EndSplineSet
EndChar
StartChar: uni0E3F
Encoding: 180 3647 182
Width: 1250
Flags: W
HStem: 0 190<408 541 743 898.565> 689 227<563 687 897 1008.81> 1291 198<642 815 1018 1107.45>
VStem: 1057 253<361.447 639.178> 1130 253<1015.02 1266.46>
Fore
1310 572 m 0xf0
 1310 266 1049 0 702 0 c 1
 674 -133 l 1
 513 -133 l 1
 541 0 l 1
 132 0 l 1
 448 1489 l 1
 857 1489 l 1
 880 1595 l 1
 1041 1595 l 1
 1018 1489 l 1
 1315 1489 1383 1354 1383 1229 c 0xe8
 1383 1026 1282 870 1140 836 c 1
 1138 827 l 1
 1249 794 1310 705 1310 572 c 0xf0
736 916 m 1
 815 1291 l 1
 642 1291 l 1
 563 916 l 1
 736 916 l 1
897 916 m 1
 1040 916 1130 1014 1130 1178 c 0
 1130 1269 1063 1291 976 1291 c 1
 897 916 l 1
581 190 m 1
 687 689 l 1
 514 689 l 1
 408 190 l 1
 581 190 l 1
743 194 m 1
 961 194 1057 380 1057 525 c 0xf0
 1057 654 962 687 848 687 c 1
 743 194 l 1
EndSplineSet
EndChar
StartChar: uni0E40
Encoding: 181 3648 183
Width: 700
Flags: W
HStem: -10 120<311.5 496.996> 280 111<457.9 545.5> 1126 20G<383.73 608>
VStem: 190.639 201.519<126.126 248.844> 517.201 130.237<124.074 267.159>
Fore
647.438 256.149 m 0
 647.438 137.087 549 -10 385 -10 c 0
 238 -10 190.639 56.2821 190.639 164.046 c 0
 190.639 204.863 197 252 208 303 c 2
 388 1146 l 1
 608 1146 l 1
 441 364 l 1
 462 383 487 391 518 391 c 0
 573 391 647.438 354.946 647.438 256.149 c 0
436 110 m 0
 485 110 517.201 172.334 517.201 220.625 c 0
 517.201 252.05 504 280 473 280 c 0
 427 280 392.158 218.65 392.158 173.137 c 0
 392.158 140.216 408 110 436 110 c 0
EndSplineSet
EndChar
StartChar: uni0E41
Encoding: 182 3649 184
Width: 1320
Flags: W
HStem: -10 120<348.044 528.996 941.045 1122> 280 111<491.874 576.608 1084.87 1169.61> 1126 20G<415.73 640 1008.73 1233>
VStem: 222.639 201.519<126.126 248.844> 549.201 130.237<124.074 267.159> 815.639 201.521<126.126 248.844> 1142.2 130.24<124.074 267.159>
Fore
1272.44 256.149 m 0
 1272.44 137.087 1174 -10 1010 -10 c 0
 863 -10 815.639 56.2821 815.639 164.046 c 0
 815.639 204.863 822 252 833 303 c 2
 1013 1146 l 1
 1233 1146 l 1
 1066 364 l 1
 1087 383 1112 391 1143 391 c 0
 1198 391 1272.44 354.946 1272.44 256.149 c 0
1061 110 m 0
 1110 110 1142.2 172.334 1142.2 220.625 c 0
 1142.2 252.05 1129 280 1098 280 c 0
 1052 280 1017.16 218.65 1017.16 173.137 c 0
 1017.16 140.216 1033 110 1061 110 c 0
679.438 256.149 m 0
 679.438 137.087 581 -10 417 -10 c 0
 270 -10 222.639 56.2821 222.639 164.046 c 0
 222.639 204.863 229 252 240 303 c 2
 420 1146 l 1
 640 1146 l 1
 473 364 l 1
 494 383 519 391 550 391 c 0
 605 391 679.438 354.946 679.438 256.149 c 0
468 110 m 0
 517 110 549.201 172.334 549.201 220.625 c 0
 549.201 252.05 536 280 505 280 c 0
 459 280 424.158 218.65 424.158 173.137 c 0
 424.158 140.216 440 110 468 110 c 0
EndSplineSet
EndChar
StartChar: uni0E42
Encoding: 183 3650 185
Width: 1100
Flags: W
HStem: -10 120<708.5 894.194> 280 111<854.477 942.5> 1263 200<990.692 1248> 1364 200<653.912 884.805>
VStem: 588 201<126.81 249.386> 736 228<909.962 1059.74> 914 131<124.549 267.031>
Fore
1045 256 m 0xd2
 1045 139 947 -10 782 -10 c 0
 635 -10 588 57 588 165 c 0xda
 588 205 594 252 605 303 c 2
 722 850 l 2
 731 890 736 925 736 956 c 0
 736 1076 646 1129 271 1175 c 1
 380 1400 564 1564 755 1564 c 0xd4
 896 1564 1051 1463 1183 1463 c 0
 1261 1463 1326 1483 1380 1524 c 1
 1286 1325 l 1
 1223 1295 1154 1263 1086 1263 c 0xe4
 946 1263 852 1364 735 1364 c 0
 682 1364 654 1327 633 1295 c 1
 877 1246 964 1143 964 999 c 0xd4
 964 968 960 936 953 902 c 2
 838 364 l 1
 859 383 884 391 915 391 c 0
 970 391 1045 355 1045 256 c 0xd2
833 110 m 0
 882 110 914 173 914 222 c 0
 914 253 901 280 870 280 c 0
 822 280 789 216 789 174 c 0
 789 141 804 110 833 110 c 0
EndSplineSet
EndChar
StartChar: uni0E43
Encoding: 184 3651 186
Width: 1000
Flags: W
HStem: -10 120<661.5 846.996> 280 111<807.9 895.5> 942 161<514.034 663.503> 1350 211<833 944.013>
VStem: 317.216 192.149<1106.84 1247.84> 541.072 201.086<126.239 248.906> 686.819 184.519<1125.28 1264.45> 867.201 130.237<124.074 267.159> 975.66 213.08<1079.57 1314.23>
Fore
317.216 1148.76 m 0xfa80
 317.216 1395.3 549 1561 833 1561 c 0
 1068 1561 1188.74 1462.52 1188.74 1278.68 c 0xfa80
 1188.74 937.685 916 952 860 685 c 2
 791 364 l 1
 812 383 837 391 868 391 c 0
 923 391 997.438 354.946 997.438 256.149 c 0
 997.438 137.087 899 -10 735 -10 c 0
 588 -10 541.072 56.4124 541.072 164.364 c 0xfd
 541.072 205.105 548 252 558 303 c 2
 629 633 l 2
 667 820 729 881 824 962 c 0
 915 1047 975.66 1115.34 975.66 1217.57 c 0
 975.66 1286.49 939 1345 815 1350 c 1
 853 1345 871.338 1289.79 871.338 1231.46 c 0
 871.338 1058.05 725 942 536 942 c 0
 385 942 317.216 1034.11 317.216 1148.76 c 0xfa80
786 110 m 0
 835 110 867.201 172.334 867.201 220.625 c 0
 867.201 252.05 854 280 823 280 c 0
 777 280 742.158 218.65 742.158 173.137 c 0xfd
 742.158 140.216 758 110 786 110 c 0
580 1103 m 0
 642 1103 686.819 1157.26 686.819 1202.29 c 0xfa
 686.819 1236.85 663 1269 616 1269 c 0
 554 1269 509.365 1214.75 509.365 1169.71 c 0
 509.365 1135.15 533 1103 580 1103 c 0
EndSplineSet
EndChar
StartChar: uni0E44
Encoding: 185 3652 187
Width: 1140
Flags: W
HStem: -10 120<796.5 982.194> 280 111<942.477 1030.5> 1082 200<503.5 674.382> 1291 281<833.854 1032>
VStem: 354 193.736<1326.1 1436 1436 1502.74> 676 201<126.81 249.386> 1002 131<124.549 267.031>
Fore
921 110 m 0
 970 110 1002 173 1002 222 c 0
 1002 253 989 280 958 280 c 0
 910 280 877 216 877 174 c 0
 877 141 892 110 921 110 c 0
1133 256 m 0
 1133 139 1035 -10 870 -10 c 0
 723 -10 676 57 676 165 c 0
 676 205 682 252 693 303 c 2
 890 1229 l 2
 892 1240 894 1250 894 1258 c 0
 894 1280 885 1291 868 1291 c 0
 853 1291 835 1277 817 1250 c 2
 767 1183 l 2
 713 1116 643 1082 556 1082 c 0
 451 1082 374 1152 354 1366 c 2
 346 1521 l 1
 543 1521 l 1
 552 1405 564 1282 608 1282 c 0
 631 1282 658 1302 687 1343 c 2
 764 1454 l 2
 831 1542 890 1572 958 1572 c 0
 1106 1572 1140 1479 1140 1400 c 0
 1140 1379 1138 1358 1134 1341 c 2
 926 364 l 1
 947 383 972 391 1003 391 c 0
 1058 391 1133 355 1133 256 c 0
EndSplineSet
EndChar
StartChar: uni0E45
Encoding: 186 3653 188
Width: 1000
Flags: W
HStem: 949 200<532.668 786.789>
VStem: 827 230<764.34 908.205>
Fore
694 1149 m 0
 924 1149 1057 1034 1057 858 c 0
 1057 831 1054 803 1048 773 c 2
 803 -380 l 1
 583 -380 l 1
 819 729 l 2
 824 753 827 775 827 796 c 0
 827 891 772 949 663 949 c 0
 534 949 436 820 408 764 c 1
 228 846 l 1
 321 999 512 1149 694 1149 c 0
EndSplineSet
EndChar
StartChar: uni0E46
Encoding: 187 3654 189
Width: 1100
Flags: W
HStem: 457 129<348.5 523.531> 1129 20G<511 661.185 908.074 1002.5>
VStem: 248 168<600.953 738.618> 544 135<602.34 752.794> 930 223<771.681 890.858>
Fore
461 586 m 0
 508 586 544 645 544 693 c 0
 544 725 528 754 496 754 c 0
 449 754 416 694 416 645 c 0
 416 614 429 586 461 586 c 0
679 724 m 0
 679 595 570 457 415 457 c 0
 282 457 248 553 248 637 c 0
 248 798 386 1054 636 1149 c 1
 772 1041 l 1
 939 1149 l 1
 1066 1113 1153 970 1153 833 c 0
 1153 812 1151 791 1147 771 c 2
 902 -380 l 1
 682 -380 l 1
 927 771 l 2
 929 780 930 791 930 801 c 0
 930 850 912 908 892 929 c 1
 726 821 l 1
 589 929 l 1
 560 897 541 869 539 862 c 1
 650 862 679 789 679 724 c 0
EndSplineSet
EndChar
StartChar: uni0E47
Encoding: 188 3655 190
Width: 0
Flags: W
HStem: 1562 74<-168.52 -89.3039> 1660 234<-91 205.793>
VStem: -720.488 181.436<1398.07 1582.54> -255.207 86.371<1492.23 1548.09>
AnchorPoint: "AboveBase" -49.1934 1227 mark 0
AnchorPoint: "AboveMark" -402.193 1227 mark 0
Fore
-136 1486 m 0
 -107 1486 -87.2909 1511.94 -87.2909 1531.27 c 0
 -87.2909 1547.56 -99 1562 -120 1562 c 0
 -149 1562 -168.836 1536.06 -168.836 1516.73 c 0
 -168.836 1500.44 -157 1486 -136 1486 c 0
-196 1284 m 0
 -380 1284 -387 1372 -463 1372 c 0
 -508 1372 -509 1288 -523 1284 c 1
 -680 1284 -720.488 1377.67 -720.488 1458.34 c 0
 -720.488 1585.3 -614 1718 -478 1751 c 0
 -289 1796 -88 1741 -5 1894 c 1
 177 1894 l 1
 144 1792 4 1682 -91 1660 c 0
 -245 1625 -539.052 1650.3 -539.052 1508.59 c 0
 -539.052 1499.83 -537 1494 -534 1486 c 1
 -509 1521 -479 1539 -446 1539 c 0
 -364 1539 -306 1427 -248 1427 c 0
 -230 1427 -223 1434 -222 1434 c 1
 -244 1450 -255.207 1470.7 -255.207 1497.75 c 0
 -255.207 1564.6 -187 1636 -101 1636 c 0
 5 1636 26.458 1575.7 26.458 1525.34 c 0
 26.458 1417.78 -58 1284 -196 1284 c 0
EndSplineSet
EndChar
StartChar: uni0E48
Encoding: 189 3656 191
Width: 0
Flags: W
VStem: 10 291<1826 2106>
AnchorPoint: "AboveMark" 107.849 1740 mark 0
Fore
70 2106 m 1
 301 2106 l 1
 241 1826 l 1
 10 1826 l 1
 70 2106 l 1
EndSplineSet
Substitution2: "Single Substitution lookup 5" uni0E48.low
MultipleSubs2: "Multiple Substitution lookup 4" uni0E4D uni0E48
EndChar
StartChar: uni0E49
Encoding: 190 3657 192
Width: 0
Flags: W
HStem: 1878 89<-154.229 -105.772> 2073 97<-150.861 -44.2611>
VStem: -252.606 97.516<1967.82 2068.69> -44.1819 123.959<1982.61 2071.89>
AnchorPoint: "AboveMark" 83.8486 1740 mark 0
Fore
-252.606 1992.45 m 0
 -252.606 2096.98 -157 2170 -79 2170 c 0
 18 2170 79.7773 2106.27 79.7773 2034.98 c 0
 79.7773 1998.89 59 1941 43 1915 c 1
 104 1927 246 1982 342 2156 c 1
 524 2156 l 1
 420 1930 169 1761 -120 1716 c 0
 -148 1712 -184 1708 -230 1703 c 1
 -207 1810 l 1
 -185 1815 -121 1832 -99 1885 c 1
 -113 1880 -129 1878 -144 1878 c 0
 -212 1878 -252.606 1926.64 -252.606 1992.45 c 0
-88 2073 m 0
 -125 2073 -155.09 2044.22 -155.09 2006.9 c 0
 -155.09 1982.39 -138 1967 -111 1967 c 0
 -74 1967 -44.1819 1995.78 -44.1819 2033.1 c 0
 -44.1819 2057.61 -61 2073 -88 2073 c 0
EndSplineSet
Substitution2: "Single Substitution lookup 5" uni0E49.low
MultipleSubs2: "Multiple Substitution lookup 4" uni0E4D uni0E49
EndChar
StartChar: uni0E4A
Encoding: 191 3658 193
Width: 0
Flags: W
HStem: 1668 89<-383.5 -217.197> 1837 77<-283.616 -216.896>
VStem: -478 180<1762.97 1893.73> -216 76<1770.87 1831.72>
AnchorPoint: "AboveMark" -88.1514 1740 mark 0
Fore
-249 1837 m 0
 -288 1837 -298 1803 -298 1786 c 0
 -298 1768 -287 1757 -266 1757 c 0
 -226 1757 -216 1792 -216 1804 c 0
 -216 1820 -227 1837 -249 1837 c 0
-140 1828 m 0
 -140 1732 -217 1668 -322 1668 c 0
 -445 1668 -478 1750 -478 1825 c 0
 -478 2022 -276 2125 -189 2154 c 1
 -74 2036 l 1
 93 2154 l 1
 185 2116 261 2046 261 1961 c 0
 261 1942 258 1930 255 1918 c 1
 406 2169 l 1
 586 2169 l 1
 385 1832 l 2
 296 1683 89 1672 30 1672 c 1
 70 1718 102 1783 102 1857 c 0
 102 1923 73 1962 55 1976 c 1
 -112 1858 l 1
 -227 1976 l 1
 -258 1965 -303 1930 -312 1886 c 1
 -287 1905 -259 1914 -228 1914 c 0
 -172 1914 -140 1882 -140 1828 c 0
EndSplineSet
Substitution2: "Single Substitution lookup 5" uni0E4A.low
MultipleSubs2: "Multiple Substitution lookup 4" uni0E4D uni0E4A
EndChar
StartChar: uni0E4B
Encoding: 192 3659 194
Width: 0
Flags: W
HStem: 1793 174<-172 -78 131 217>
VStem: -209 463<1793 1967>
AnchorPoint: "AboveMark" -24.4072 1640 mark 0
Fore
217 1793 m 1
 94 1793 l 1
 68 1670 l 1
 -104 1670 l 1
 -78 1793 l 1
 -209 1793 l 1
 -172 1967 l 1
 -41 1967 l 1
 -13 2096 l 1
 159 2096 l 1
 131 1967 l 1
 254 1967 l 1
 217 1793 l 1
EndSplineSet
Substitution2: "Single Substitution lookup 5" uni0E4B.low
MultipleSubs2: "Multiple Substitution lookup 4" uni0E4D uni0E4B
EndChar
StartChar: uni0E4C
Encoding: 193 3660 195
Width: 0
Flags: W
HStem: 1621 112<-99.4453 31.4141>
VStem: -238 136<1735.77 1825.68> 41 133<1744.22 1855.61>
AnchorPoint: "AboveMark" -45.1514 1740 mark 0
Fore
174 1825 m 0
 174 1724 74 1621 -45 1621 c 0
 -163 1621 -238 1681 -238 1769 c 0
 -238 1780 -237 1792 -234 1805 c 0
 -168 2118 186 1976 333 2169 c 1
 513 2169 l 1
 428 2022 216 1918 128 1918 c 1
 155 1902 174 1868 174 1825 c 0
-44 1733 m 0
 7 1733 41 1773 41 1807 c 0
 41 1836 18 1857 -17 1857 c 0
 -58 1857 -102 1827 -102 1782 c 0
 -102 1753 -79 1733 -44 1733 c 0
EndSplineSet
Substitution2: "Single Substitution lookup 5" uni0E4C.low
MultipleSubs2: "Multiple Substitution lookup 4" uni0E4D uni0E4C
EndChar
StartChar: uni0E4D
Encoding: 194 3661 196
Width: 0
Flags: W
HStem: 1212 153<-71.4163 72.7683> 1515 153<-56.4839 87.8642>
VStem: -227.408 152.191<1369.63 1494.48> 91.379 152.192<1385.52 1510.37>
AnchorPoint: "AboveBase" 155.807 1227 mark 0
AnchorPoint: "AboveMark" 108.849 1740 basemark 0
Fore
-227.408 1389.6 m 0
 -227.408 1531.13 -100 1668 57 1668 c 0
 169 1668 243.571 1594.52 243.571 1490.4 c 0
 243.571 1348.87 116 1212 -40 1212 c 0
 -153 1212 -227.408 1285.48 -227.408 1389.6 c 0
24 1515 m 0
 -18 1515 -75.2166 1475.15 -75.2166 1427.79 c 0
 -75.2166 1393.14 -44 1365 -8 1365 c 0
 34 1365 91.379 1404.85 91.379 1452.21 c 0
 91.379 1486.86 60 1515 24 1515 c 0
EndSplineSet
Substitution2: "Single Substitution lookup 3" uni0E4D.high
EndChar
StartChar: uni0E4E
Encoding: 195 3662 197
Width: 0
Flags: W
HStem: 1444 122<51.5289 88 88 172> 1675 129<49.9219 188> 1909 127<67.9434 226.172>
VStem: -123 171<1810.39 1904.38>
AnchorPoint: "AboveBase" 125.807 1227 mark 0
Fore
-123 1837 m 0
 -123 1996 47 2036 154 2036 c 0
 209 2036 266 2028 326 2013 c 1
 299 1885 l 1
 243 1900 190 1909 136 1909 c 0
 92 1909 48 1904 48 1855 c 0
 48 1821 88 1804 145 1804 c 2
 215 1804 l 1
 188 1675 l 1
 123 1675 l 2
 2 1675 -18 1633 -18 1612 c 0
 -18 1568 113 1566 120 1566 c 2
 198 1566 l 1
 172 1444 l 1
 88 1444 l 2
 -60 1444 -202 1498 -202 1594 c 0
 -202 1654 -147 1715 -79 1744 c 1
 -108 1768 -123 1796 -123 1837 c 0
EndSplineSet
EndChar
StartChar: uni0E4F
Encoding: 196 3663 198
Width: 1250
Flags: W
HStem: -21 184<500.033 818.286> 258 148<634.516 793.008> 609 154<657.054 818.591> 852 188<630.944 949.583>
VStem: 192.453 187.765<283.981 601.961> 465.098 160.366<413.944 577.662> 826.377 158.693<441.354 601.372> 1070.28 187.56<413.414 731.95>
Fore
652 163 m 0
 856 163 1070.28 360.677 1070.28 577.083 c 0
 1070.28 730.631 959 852 798 852 c 0
 594 852 380.218 652.883 380.218 436.642 c 0
 380.218 283.442 491 163 652 163 c 0
746 609 m 0
 678 609 625.464 544.859 625.464 484.802 c 0
 625.464 439.839 655 406 703 406 c 0
 765 406 826.377 464.359 826.377 530.138 c 0
 826.377 575.401 795 609 746 609 c 0
1257.84 625.695 m 0
 1257.84 297.337 958 -21 612 -21 c 0
 357 -21 192.453 154.014 192.453 391.57 c 0
 192.453 718.421 489 1040 837 1040 c 0
 1092 1040 1257.84 863.854 1257.84 625.695 c 0
985.07 569.795 m 0
 985.07 402.262 841 258 671 258 c 0
 545 258 465.098 336.288 465.098 451.608 c 0
 465.098 602.552 592 763 778 763 c 0
 905 763 985.07 685.206 985.07 569.795 c 0
EndSplineSet
EndChar
StartChar: uni0E50
Encoding: 197 3664 199
Width: 1250
Flags: W
HStem: -10 240<551.993 817.946> 686 238<627.997 893.33>
VStem: 236 258<285.279 549.503> 956 264<368.985 627.411>
Fore
770 686 m 0
 619 686 494 547 494 405 c 0
 494 302 563 230 673 230 c 0
 823 230 956 365 956 509 c 0
 956 618 873 686 770 686 c 0
1220 555 m 0
 1220 264 933 -10 620 -10 c 0
 383 -10 236 141 236 353 c 0
 236 666 523 924 818 924 c 0
 1079 924 1220 756 1220 555 c 0
EndSplineSet
EndChar
StartChar: uni0E51
Encoding: 198 3665 200
Width: 1300
Flags: W
HStem: -9 187<436.515 793.441> 603 84<707.104 824.226> 722 203<645.965 928.668>
VStem: 321.767 232.544<420.625 633.957> 601.134 98.0471<485.791 595.538> 826.081 132.894<494.258 602.413> 990.329 225.801<367.859 658.449>
Fore
1216.13 584.078 m 0
 1216.13 381.439 1087 -9 572 -9 c 0
 338 -9 245 79 209 115 c 1
 344 292 l 1
 428 215 494 178 624 178 c 0
 849 178 990.329 363.333 990.329 528.437 c 0
 990.329 617.616 950 722 786 722 c 0
 614 722 554.311 582.222 554.311 511.254 c 0
 554.311 463.685 574 414 618 414 c 0
 627 414 638 417 648 422 c 1
 619 439 601.134 466.146 601.134 508.517 c 0
 601.134 601.941 669 687 799 687 c 0
 930 687 958.975 598.588 958.975 525.721 c 0
 958.975 370.52 825 203 615 203 c 0
 430 203 321.767 317.218 321.767 473.477 c 0
 321.767 684.343 514 925 824 925 c 0
 982 925 1216.13 853.679 1216.13 584.078 c 0
750 485 m 0
 789 485 826.081 516.59 826.081 557.215 c 0
 826.081 584.9 806 603 775 603 c 0
 736 603 699.181 571.41 699.181 530.785 c 0
 699.181 503.1 720 485 750 485 c 0
EndSplineSet
EndChar
StartChar: uni0E52
Encoding: 199 3666 201
Width: 1350
Flags: W
HStem: 0 200<550.285 1047> 343 118<709.368 814.103>
VStem: 295 233<224.879 472.744> 316 234<901.584 1104.03> 348 223<503.256 982.88> 569 139<462.903 558.951> 818 121<464.78 562.899> 1120 214<528.814 673.311>
Fore
752 461 m 0xc7
 789 461 818 491 818 523 c 0
 818 547 800 563 774 563 c 0
 743 563 708 538 708 500 c 0
 708 477 726 461 752 461 c 0xc7
939 546 m 0
 939 460 859 343 732 343 c 0
 614 343 569 392 569 486 c 0
 569 660 665 828 914 924 c 1
 914 923 946 892 1009 831 c 1
 1132 924 l 1
 1255 872 1334 772 1334 618 c 0
 1334 583 1330 546 1322 506 c 2
 1214 0 l 1
 545 0 l 2
 328 0 295 170 295 266 c 0xe7
 295 282 296 296 297 307 c 2
 338 611 l 2
 345 679 348 745 348 809 c 0xcb
 348 924 337 1032 316 1134 c 1
 550 1134 l 1xd3
 565 1047 571 958 571 871 c 0xcb
 571 625 528 415 528 322 c 0xe3
 528 220 599 200 670 200 c 2
 1047 200 l 1
 1112 506 l 2
 1117 531 1120 560 1120 588 c 0
 1120 638 1110 685 1085 702 c 1
 1085 701 1045 678 966 632 c 1
 867 702 l 1
 860 696 853 687 846 674 c 1
 885 665 939 620 939 546 c 0
EndSplineSet
EndChar
StartChar: uni0E53
Encoding: 200 3667 202
Width: 1400
Flags: W
HStem: -10 114<311.5 459.121> 716 208<998.527 1252.59> 724 200<498.789 685.489>
VStem: 185 166<104.419 479.5> 461 129<108.044 240> 1176 247<394.508 711.81>
Fore
396 104 m 0x9c
 426 104 461 126 461 161 c 0
 461 183 442 198 416 198 c 0
 386 198 351 176 351 141 c 0
 351 119 370 104 396 104 c 0x9c
590 724 m 0xbc
 455 724 422 522 422 403 c 0
 422 380 423 355 426 328 c 1
 439 331 452 333 463 333 c 0
 525 333 590 281 590 199 c 0
 590 125 545 -10 339 -10 c 0
 284 -10 234 33 216 96 c 0
 215 103 185 212 185 359 c 0
 185 600 267 924 599 924 c 0xbc
 787 924 843 849 873 792 c 1
 935 877 1048 924 1163 924 c 0
 1336 924 1423 834 1423 655 c 0
 1423 524 1374 315 1229 0 c 1
 1000 0 l 1
 1105 240 1176 518 1176 618 c 0
 1176 683 1155 716 1112 716 c 0xdc
 974 716 928 589 891 414 c 2
 868 304 l 1
 665 304 l 1
 685 398 710 499 710 579 c 0
 710 664 682 724 590 724 c 0xbc
EndSplineSet
EndChar
StartChar: uni0E54
Encoding: 201 3668 203
Width: 1550
Flags: W
HStem: -6 200<529.781 765.02> 313 110<1127 1200.74> 557 135<1081.4 1208.92> 724 200<630.485 1316.22>
VStem: 215 249<265.112 569.128> 909 163<424.929 546.145> 1211 140<434.86 555.252>
Fore
1351 545 m 0
 1351 440 1268 313 1155 313 c 1
 1268 243 1298 301 1429 156 c 1
 1253 -2 l 1
 1192 68 1124 76 1046 76 c 0
 922 76 751 -6 579 -6 c 0
 364 -6 215 144 215 360 c 0
 215 774 580 924 868 924 c 2
 1114 924 l 2
 1326 924 1470 1037 1546 1262 c 1
 1778 1262 l 1
 1735 1083 1582 901 1486 830 c 0
 1383 753 1241 724 1078 724 c 2
 818 724 l 2
 598 724 464 598 464 409 c 0
 464 295 538 194 626 194 c 0
 675 194 781 215 942 258 c 2
 999 278 l 1
 928 317 909 396 909 439 c 0
 909 498 977 692 1183 692 c 0
 1319 692 1351 611 1351 545 c 0
1155 557 m 0
 1107 557 1072 516 1072 478 c 0
 1072 447 1094 423 1127 423 c 0
 1162 423 1211 455 1211 505 c 0
 1211 532 1194 557 1155 557 c 0
EndSplineSet
EndChar
StartChar: uni0E55
Encoding: 202 3669 204
Width: 1550
Flags: W
HStem: -6 200<529.781 765.02> 313 110<1127 1200.74> 557 135<1081.4 1208.92> 724 213<940.144 1060.48> 724 198<623.183 814> 1057 129<948.45 1066.47>
VStem: 215 249<265.112 568.479> 810 130<937.646 1047> 909 163<424.929 546.145> 1067 132<966.313 1056.17> 1211 140<434.86 555.252>
Fore
1351 545 m 0xeea0
 1351 440 1268 313 1155 313 c 1
 1268 243 1298 301 1429 156 c 1
 1253 -2 l 1
 1193 68 1124 76 1046 76 c 0
 922 76 751 -6 579 -6 c 0
 364 -6 215 144 215 360 c 0
 215 640 449 922 814 922 c 1
 811 934 810 946 810 958 c 0
 810 1070 919 1186 1045 1186 c 0
 1137 1186 1199 1121 1199 1036 c 0xef60
 1199 1003 1190 963 1166 926 c 1
 1351 945 1478 1057 1546 1262 c 1
 1778 1262 l 1
 1735 1083 1650 956 1486 830 c 24
 1349 724 1241 724 1078 724 c 2
 818 724 l 2
 576 724 464 580 464 409 c 0
 464 295 538 194 626 194 c 0
 675 194 781 215 942 258 c 2
 999 278 l 1
 928 317 909 396 909 439 c 0
 909 498 977 692 1183 692 c 0
 1319 692 1351 611 1351 545 c 0xeea0
1155 557 m 0
 1107 557 1072 516 1072 478 c 0xe6a0
 1072 447 1094 423 1127 423 c 0
 1162 423 1211 455 1211 505 c 0
 1211 532 1194 557 1155 557 c 0
1018 1057 m 0
 981 1057 940 1024 940 985 c 0
 940 958 962 937 992 937 c 0
 1023 937 1067 965 1067 1010 c 0xf760
 1067 1040 1044 1057 1018 1057 c 0
EndSplineSet
EndChar
StartChar: uni0E56
Encoding: 203 3670 205
Width: 1300
Flags: W
HStem: -16 222<711.295 940.064> 465 129<581.659 702.919> 708 220<718.473 993.475>
VStem: 392.744 181.034<193.339 436.599> 703.968 127.458<353.69 464.086> 1074.8 226.35<340.483 631.424>
Fore
831.426 444.374 m 0
 831.426 367.549 781 286 703 244 c 1
 706 209 760 206 776 206 c 0
 959 206 1074.8 336.506 1074.8 504.525 c 0
 1074.8 645.25 970 708 803 708 c 0
 690 708 584 689 486 650 c 1
 416 1001 340 1186 280 1262 c 1
 583 1262 l 1
 637 1135 666 1015 668 900 c 1
 777 927 815 928 850 928 c 0
 1127 928 1301.15 782.042 1301.15 548.86 c 0
 1301.15 259.995 1065 -16 716 -16 c 0
 514 -16 392.744 115.073 392.744 271.605 c 0
 392.744 424.773 510 594 677 594 c 0
 770 594 831.426 528.679 831.426 444.374 c 0
652 465 m 0
 619 465 573.778 432.567 573.778 393.675 c 0
 573.778 366.021 597 343 626 343 c 0
 659 343 703.968 375.433 703.968 414.325 c 0
 703.968 441.979 680 465 652 465 c 0
EndSplineSet
EndChar
StartChar: uni0E57
Encoding: 204 3671 206
Width: 1540
Flags: W
HStem: -16 125<368.39 482.701> 720 204<497.246 662.988 882.84 1044.77>
VStem: 197 170<111.146 269> 492 133<118.312 233.179> 1002 214<477.876 715.583>
Fore
625 212 m 0
 625 102 520 -16 390 -16 c 0
 305 -16 197 32 197 242 c 0
 197 296 204 360 220 436 c 0
 304 832 465 923 629 923 c 0
 715 923 758 888 777 825 c 1
 816 894 891 924 995 924 c 0
 1092 924 1216 873 1216 642 c 0
 1216 577 1196 369 1123 216 c 1
 1138 216 l 2
 1196 216 1241 263 1257 338 c 2
 1425 1130 l 1
 1657 1130 l 1
 1488 334 l 2
 1441 111 1297 0 1057 0 c 2
 771 0 l 1
 966 312 1002 539 1002 632 c 0
 1002 691 985 720 952 720 c 0
 876 720 835 599 807 467 c 1
 591 467 l 1
 599 540 613 604 613 650 c 0
 613 694 600 720 559 720 c 0
 486 720 465 609 444 508 c 0
 436 474 423 391 423 363 c 2
 423 358 l 1
 441 365 457 366 478 366 c 0
 559 366 625 302 625 212 c 0
443 234 m 0
 399 234 367 196 367 156 c 0
 367 126 388 109 416 109 c 0
 463 109 492 154 492 186 c 0
 492 221 461 234 443 234 c 0
EndSplineSet
EndChar
StartChar: uni0E58
Encoding: 205 3672 207
Width: 1580
Flags: W
HStem: -12 223<1099.4 1235.26> 309 114<1234.19 1294> 575 113<1249.87 1385.01> 739 178<808 1144 1144 1283.88>
VStem: 214 263<304.068 574.525> 1116 116<425.461 558.902> 1388 161<438.62 571.582>
Fore
1549 471 m 0
 1549 304 1426 -12 1152 -12 c 0
 933 -12 869 283 803 283 c 0
 774 283 750 236 730 141 c 2
 700 0 l 1
 575 0 l 2
 357 0 214 141 214 354 c 0
 214 527 303 881 808 917 c 0
 1171 935 1468 895 1546 1263 c 1
 1786 1263 l 1
 1770 1195 l 2
 1707 984 1600 893 1532 844 c 0
 1460 790 1310 751 1144 739 c 0
 959 726 786 752 606 676 c 0
 536 648 477 513 477 423 c 0
 477 339 523 283 574 273 c 1
 612 450 750 483 820 483 c 0
 926 483 984 402 1035 321 c 2
 1092 234 l 2
 1106 216 1124 211 1144 211 c 0
 1203 211 1259 216 1273 280 c 0
 1274 283 1274 286 1274 289 c 0
 1274 297 1272 304 1268 309 c 1
 1173 309 1116 376 1116 460 c 0
 1116 575 1228 688 1350 688 c 0
 1475 688 1549 603 1549 471 c 0
1326 575 m 0
 1274 575 1232 527 1232 483 c 0
 1232 449 1257 423 1294 423 c 0
 1346 423 1388 471 1388 515 c 0
 1388 549 1363 575 1326 575 c 0
EndSplineSet
EndChar
StartChar: uni0E59
Encoding: 206 3673 208
Width: 1500
Flags: W
HStem: -16 123<368.04 482.124> 236 126<422.718 490.861> 724 200<521.973 693.849 1010.9 1173.49>
VStem: 197 169<110.115 332> 492 133<117.389 235.071> 802 220<0 334.217>
Fore
197 242 m 0
 197 422 288 924 663 924 c 0
 792 924 885 875 917 776 c 1
 981 875 1028 924 1100 924 c 0
 1254 924 1196 738 1265 738 c 0
 1340 738 1387 939 1442 1130 c 1
 1654 1130 l 1
 1607 906 1550 836 1499 742 c 0
 1431 626 1338 538 1260 538 c 0
 1072 538 1113 724 1063 724 c 0
 1040 724 1003 673 952 595 c 1
 1022 0 l 1
 802 0 l 1
 723 586 l 2
 705 674 691 724 618 724 c 0
 541 724 474 646 453 544 c 0
 446 514 422 384 422 356 c 1
 431 361 463 362 472 362 c 0
 571 362 625 293 625 212 c 0
 625 100 519 -16 390 -16 c 0
 305 -16 197 32 197 242 c 0
442 236 m 256
 400 236 366 197 366 158 c 0
 366 128 386 107 415 107 c 0
 455 107 492 147 492 185 c 0
 492 212 475 236 442 236 c 256
EndSplineSet
EndChar
StartChar: uni0E5A
Encoding: 207 3674 209
Width: 1400
Flags: W
HStem: 0 21G<805 1029.25 1065 1289.25> 657 200<696 852.508> 1023 124<472.092 599.589>
VStem: 318 143<814 1011.85> 601 158<899.328 1021.55>
Fore
759 1008 m 0
 759 966 734 889 696 857 c 1
 731 857 l 2
 905 857 1024 1032 1049 1149 c 1
 1269 1149 l 1
 1025 0 l 1
 805 0 l 1
 970 776 l 1
 879 683 723 657 627 657 c 0
 391 657 318 759 318 869 c 0
 318 1017 427 1147 591 1147 c 0
 670 1147 759 1103 759 1008 c 0
517 889 m 0
 565 889 601 928 601 973 c 0
 601 1003 579 1023 545 1023 c 0
 499 1023 461 986 461 940 c 0
 461 909 482 889 517 889 c 0
1285 0 m 1
 1065 0 l 1
 1309 1149 l 1
 1529 1149 l 1
 1285 0 l 1
EndSplineSet
EndChar
StartChar: uni0E5B
Encoding: 208 3675 210
Width: 2370
Flags: W
HStem: -11 233<500.074 853.449> 198 166<1961.71 2015 2015 2400> 272 170<641.842 806.381> 300 84<1700 1840> 300 315<1142.41 1281.2 1492.64 1623.61> 463 98<663.03 747.679> 643 93<664.224 742.815> 786 200<599.791 864.963>
VStem: 224 199<296.749 520.968> 749 96<562.842 642.283> 909 194<519.168 740.551>
Fore
715 442 m 0xa7e0
 851 442 909 563 909 642 c 0
 909 730 838 786 729 786 c 0
 506 786 423 509 423 424 c 0
 423 346 461 222 657 222 c 0
 1045 222 1103 615 1282 615 c 0
 1354 615 1365 561 1365 508 c 0
 1365 486 1363 464 1363 447 c 0
 1363 425 1366 410 1379 410 c 0
 1457 410 1439 615 1588 615 c 0x8be0
 1701 615 1627 384 1700 384 c 0x13e0
 1756 384 1768 507 1868 507 c 0
 1956 507 1914 364 2056 364 c 2
 2435 364 l 1
 2400 198 l 1
 2015 198 l 2x43e0
 1886 198 1860 300 1840 300 c 0x13e0
 1790 300 1729 94 1620 94 c 0
 1527 94 1573 304 1517 304 c 0
 1472 304 1417 88 1311 88 c 0
 1167 88 1228 300 1198 300 c 0x0be0
 1168 300 1040 -11 638 -11 c 0
 349 -11 224 173 224 374 c 0
 224 410 228 447 236 483 c 0
 321 885 654 986 788 986 c 0
 1041 986 1103 839 1103 708 c 0
 1103 429 856 272 667 272 c 0
 538 272 482 352 482 447 c 0
 482 592 608 736 726 736 c 0
 779 736 845 703 845 628 c 0
 845 529 753 463 679 463 c 0
 665 463 652 465 640 471 c 1
 640 470 l 2
 640 460 668 442 715 442 c 0xa7e0
715 643 m 0
 691 643 663 622 663 594 c 0
 663 577 675 561 699 561 c 0x07e0
 725 561 749 585 749 612 c 0
 749 633 734 643 715 643 c 0
EndSplineSet
EndChar
StartChar: afii301
Encoding: 211 8205 212
Width: 0
Flags: W
VStem: -94 603<-275 1364>
Fore
-22 -275 m 1
 -94 -275 l 1
 201 1114 l 1
 38 978 l 1
 -1 1027 l 1
 206 1196 l 1
 71 1364 l 1
 130 1413 l 1
 264 1242 l 1
 470 1413 l 1
 509 1364 l 1
 302 1196 l 1
 437 1027 l 1
 378 978 l 1
 273 1114 l 1
 -22 -275 l 1
EndSplineSet
EndChar
StartChar: afii299
Encoding: 212 8206 213
Width: 0
Flags: W
HStem: 1163 71<282 548>
VStem: -94 779<-275 1198>
Fore
685 1198 m 1
 422 984 l 1
 384 1033 l 1
 548 1163 l 1
 282 1163 l 1
 -23 -275 l 1
 -94 -275 l 1
 226 1234 l 1
 563 1234 l 1
 454 1364 l 1
 513 1413 l 1
 685 1198 l 1
EndSplineSet
EndChar
StartChar: afii300
Encoding: 213 8207 214
Width: 0
Flags: W
HStem: 1163 71<-40 211>
VStem: -176 473<1198 1234>
Fore
-23 -275 m 1
 -94 -275 l 1
 211 1163 l 1
 -55 1163 l 1
 55 1033 l 1
 -5 984 l 1
 -176 1198 l 1
 86 1413 l 1
 125 1364 l 1
 -40 1234 l 1
 297 1234 l 1
 -23 -275 l 1
EndSplineSet
EndChar
StartChar: uni2010
Encoding: 214 8208 215
Width: 973
Flags: W
HStem: 543 225<353 930>
VStem: 305 673<543 768>
Fore
353 768 m 1
 978 768 l 1
 930 543 l 1
 305 543 l 1
 353 768 l 1
EndSplineSet
EndChar
StartChar: endash
Encoding: 215 8211 216
Width: 1125
Flags: W
HStem: 525 234<161 1238>
Fore
1238 525 m 1
 112 525 l 1
 161 759 l 1
 1287 759 l 1
 1238 525 l 1
EndSplineSet
EndChar
StartChar: emdash
Encoding: 216 8212 217
Width: 1886
Flags: W
HStem: 525 245<164 1982>
Fore
1982 525 m 1
 112 525 l 1
 164 770 l 1
 2034 770 l 1
 1982 525 l 1
EndSplineSet
EndChar
StartChar: afii00208
Encoding: 217 8213 218
Width: 1862
Flags: W
HStem: 572 160<266 1874>
Fore
1874 572 m 1
 232 572 l 1
 266 732 l 1
 1908 732 l 1
 1874 572 l 1
EndSplineSet
EndChar
StartChar: underscoredbl
Encoding: 218 8215 219
Width: 1118
Flags: W
HStem: -423 130<-78 1044> -212 130<-33 1089>
Fore
1089 -212 m 1
 -61 -212 l 1
 -33 -82 l 1
 1117 -82 l 1
 1089 -212 l 1
1044 -423 m 1
 -106 -423 l 1
 -78 -293 l 1
 1072 -293 l 1
 1044 -423 l 1
EndSplineSet
EndChar
StartChar: quoteleft
Encoding: 219 8216 220
Width: 450
Flags: W
VStem: 267 324<997 1556>
Fore
591 997 m 1
 409 997 l 1
 267 1556 l 1
 553 1556 l 1
 591 997 l 1
EndSplineSet
EndChar
StartChar: quoteright
Encoding: 220 8217 221
Width: 580
Flags: W
HStem: 997 559<447 827>
VStem: 264 563<997 1556>
Fore
827 1556 m 1
 447 997 l 1
 264 997 l 1
 540 1556 l 1
 827 1556 l 1
EndSplineSet
EndChar
StartChar: quotesinglbase
Encoding: 221 8218 222
Width: 432
Flags: W
HStem: -276 559<66 446>
VStem: -72 518<-276 283>
Fore
446 283 m 1
 66 -276 l 1
 -72 -276 l 1
 204 283 l 1
 446 283 l 1
EndSplineSet
EndChar
StartChar: quotereversed
Encoding: 222 8219 223
Width: 432
Flags: W
HStem: 997 559<390 666>
VStem: 148 518<997 1556>
Fore
666 1556 m 1
 390 997 l 1
 148 997 l 1
 528 1556 l 1
 666 1556 l 1
EndSplineSet
EndChar
StartChar: quotedblleft
Encoding: 223 8220 224
Width: 850
Flags: W
VStem: 267 670<997 1556>
Fore
937 997 m 1
 758 997 l 1
 616 1556 l 1
 899 1556 l 1
 937 997 l 1
588 997 m 1
 409 997 l 1
 267 1556 l 1
 550 1556 l 1
 588 997 l 1
EndSplineSet
EndChar
StartChar: quotedblright
Encoding: 224 8221 225
Width: 1000
Flags: W
HStem: 997 559<847 1227>
VStem: 319 908<997 1556>
Fore
1227 1556 m 1
 847 997 l 1
 668 997 l 1
 944 1556 l 1
 1227 1556 l 1
878 1556 m 1
 498 997 l 1
 319 997 l 1
 595 1556 l 1
 878 1556 l 1
EndSplineSet
EndChar
StartChar: quotedblbase
Encoding: 225 8222 226
Width: 814
Flags: W
HStem: -276 559<461 841>
VStem: -67 908<-276 283>
Fore
841 283 m 1
 461 -276 l 1
 327 -276 l 1
 603 283 l 1
 841 283 l 1
447 283 m 1
 67 -276 l 1
 -67 -276 l 1
 209 283 l 1
 447 283 l 1
EndSplineSet
EndChar
StartChar: dagger
Encoding: 226 8224 227
Width: 1118
Flags: W
HStem: 1034 129<382 382 866 1203>
VStem: 355 875<1034 1163>
Fore
1203 1034 m 1
 841 1039 l 1
 654 135 l 1
 522 135 l 1
 719 1039 l 1
 355 1034 l 1
 382 1163 l 1
 744 1158 l 1
 824 1556 l 1
 956 1556 l 1
 866 1158 l 1
 1230 1163 l 1
 1203 1034 l 1
EndSplineSet
EndChar
StartChar: daggerdbl
Encoding: 227 8225 228
Width: 1118
Flags: W
HStem: 507 129<270 270 754 1091> 1049 119<384 721 868 1205>
VStem: 243 989<507 1173>
Fore
1091 507 m 1
 729 512 l 1
 651 124 l 1
 519 124 l 1
 607 512 l 1
 243 507 l 1
 270 636 l 1
 632 631 l 1
 721 1049 l 1
 357 1044 l 1
 384 1173 l 1
 746 1168 l 1
 824 1556 l 1
 956 1556 l 1
 868 1168 l 1
 1232 1173 l 1
 1205 1044 l 1
 843 1049 l 1
 754 631 l 1
 1118 636 l 1
 1091 507 l 1
EndSplineSet
EndChar
StartChar: bullet
Encoding: 228 8226 229
Width: 950
Flags: W
Fore
246.593 587.043 m 0
 246.593 801.137 448 1013 680 1013 c 0
 856 1013 965.687 891.405 965.687 736.002 c 0
 965.687 522.543 764 311 531 311 c 0
 363 311 246.593 427.295 246.593 587.043 c 0
EndSplineSet
EndChar
StartChar: ellipsis
Encoding: 229 8230 230
Width: 1650
Flags: W
HStem: 0 223<224 381 782 939 1340 1497>
Fore
1497 0 m 1
 1293 0 l 1
 1340 223 l 1
 1544 223 l 1
 1497 0 l 1
939 0 m 1
 735 0 l 1
 782 223 l 1
 986 223 l 1
 939 0 l 1
381 0 m 1
 177 0 l 1
 224 223 l 1
 428 223 l 1
 381 0 l 1
EndSplineSet
EndChar
StartChar: perthousand
Encoding: 230 8240 231
Width: 2848
Flags: W
HStem: -29 133<1461.25 1689.09 2305.25 2533.09> 634 133<512.111 740.021> 721 133<1575.52 1802.32 2419.52 2646.32> 1384 133<626.047 853.018>
VStem: 311 176<790.653 993.474> 878 177<1154.71 1361.82> 1260 176<127.222 330.224> 1827 177<491.711 698.815> 2104 176<127.222 330.224> 2671 177<491.711 698.815>
Fore
777 1517 m 0xdfc0
 947 1517 1055 1439 1055 1241 c 0
 1055 1193 1049 1138 1036 1076 c 0
 967 755 801 634 590 634 c 0
 419 634 311 715 311 912 c 0
 311 959 317 1014 330 1075 c 0
 398 1394 565 1517 777 1517 c 0xdfc0
1789 1489 m 1
 693 0 l 1
 528 0 l 1
 1624 1489 l 1
 1789 1489 l 1
1727 854 m 0xbfc0
 1896 854 2004 776 2004 578 c 0
 2004 530 1998 475 1985 413 c 0
 1917 94 1750 -29 1539 -29 c 0
 1368 -29 1260 51 1260 248 c 0
 1260 296 1266 350 1280 412 c 0
 1347 731 1515 854 1727 854 c 0xbfc0
618 767 m 0xdfc0
 722 767 803 820 858 1076 c 0
 872 1143 878 1196 878 1237 c 0
 878 1356 826 1384 749 1384 c 0
 644 1384 562 1328 508 1075 c 0
 494 1007 487 953 487 911 c 0
 487 793 540 767 618 767 c 0xdfc0
1567 104 m 0
 1671 104 1752 157 1807 413 c 0
 1821 480 1827 533 1827 574 c 0
 1827 693 1775 721 1698 721 c 0xbfc0
 1593 721 1511 665 1458 412 c 0
 1443 344 1436 290 1436 248 c 0
 1436 130 1490 104 1567 104 c 0
2571 854 m 0
 2740 854 2848 776 2848 578 c 0
 2848 530 2842 475 2829 413 c 0
 2761 94 2594 -29 2383 -29 c 0
 2212 -29 2104 51 2104 248 c 0
 2104 296 2110 350 2124 412 c 0
 2191 731 2359 854 2571 854 c 0
2411 104 m 0
 2515 104 2596 157 2651 413 c 0
 2665 480 2671 533 2671 574 c 0
 2671 693 2619 721 2542 721 c 0
 2437 721 2355 665 2302 412 c 0
 2287 344 2280 290 2280 248 c 0
 2280 130 2334 104 2411 104 c 0
EndSplineSet
EndChar
StartChar: minute
Encoding: 231 8242 232
Width: 602
Flags: W
HStem: 870 619<458 887>
VStem: 322 565<870 1489>
Fore
887 1489 m 1
 458 870 l 1
 322 870 l 1
 647 1489 l 1
 887 1489 l 1
EndSplineSet
EndChar
StartChar: second
Encoding: 232 8243 233
Width: 972
Flags: W
HStem: 870 619<454 883>
VStem: 322 955<870 1489>
Fore
883 1489 m 1
 454 870 l 1
 322 870 l 1
 647 1489 l 1
 883 1489 l 1
1277 1489 m 1
 848 870 l 1
 716 870 l 1
 1041 1489 l 1
 1277 1489 l 1
EndSplineSet
EndChar
StartChar: guilsinglleft
Encoding: 233 8249 234
Width: 784
Flags: W
HStem: 172 960<670 874>
VStem: 252 622<608 1132>
Fore
670 172 m 1
 252 608 l 1
 271 697 l 1
 874 1132 l 1
 831 933 l 1
 441 652 l 1
 712 371 l 1
 670 172 l 1
EndSplineSet
EndChar
StartChar: guilsinglright
Encoding: 234 8250 235
Width: 784
Flags: W
HStem: 172 960<188 392>
VStem: 188 621<172 697>
Fore
790 608 m 1
 188 172 l 1
 230 371 l 1
 621 652 l 1
 349 933 l 1
 392 1132 l 1
 809 697 l 1
 790 608 l 1
EndSplineSet
EndChar
StartChar: uni203E
Encoding: 236 8254 237
Width: 1118
Flags: W
HStem: 1658 131<332 1470>
Fore
1470 1658 m 1
 304 1658 l 1
 332 1789 l 1
 1498 1789 l 1
 1470 1658 l 1
EndSplineSet
EndChar
StartChar: fraction
Encoding: 237 8260 238
Width: 886
Flags: W
HStem: 0 21G<-29 150.721>
Fore
1232 1489 m 1
 136 0 l 1
 -29 0 l 1
 1067 1489 l 1
 1232 1489 l 1
EndSplineSet
EndChar
StartChar: uni207F
Encoding: 238 8319 239
Width: 1010
Flags: W
HStem: 1368 151<782.188 953.684>
VStem: 245 892<566 1163>
Fore
591 1388 m 1
 758 1509 845 1519 909 1519 c 0
 1109 1519 1186 1392 1137 1163 c 2
 1010 566 l 1
 838 566 l 1
 949 1088 l 2
 987 1266 1002 1368 832 1368 c 0
 778 1368 710 1355 563 1254 c 1
 416 566 l 1
 245 566 l 1
 441 1488 l 1
 612 1488 l 1
 591 1388 l 1
EndSplineSet
EndChar
StartChar: dottedcircle
Encoding: 239 9676 240
Width: 1247
Flags: W
HStem: 7 121<571.103 680.704> 68 121<877.53 987.474> 98 121<325.052 435.307> 234 121<1078.99 1188.88> 249 121<214.275 324.368> 438 121<1197.25 1307.53> 445 121<135.224 244.951> 679 121<199.597 309.853 1234.59 1344.72> 868 121<345.738 455.511> 891 121<1172.65 1282.9> 1011 121<565.249 675.36> 1034 121<1015.02 1124.92> 1079 121<805.616 915.735>
VStem: 127.845 124.098<452.229 559.414> 192.583 123.887<685.998 793.157> 207.184 123.887<255.998 363.157> 318.088 124.098<104.929 212.414> 338.757 124.052<875.519 982.452> 558.152 124.098<13.9977 118.014 1017.93 1125.41> 798.606 124.098<1086.23 1193.41> 870.711 124.053<75.5189 182.452> 1008.04 124.05<1041.29 1148.45> 1072 124.05<241.293 348.452> 1165.65 123.88<897.998 1005.16> 1190.36 124.1<445.228 552.414> 1227.58 124.1<686.228 793.414>
Fore
462.809 942.243 m 0x018060
 462.809 901.072 425 868 387 868 c 0
 357 868 338.757 887.256 338.757 914.296 c 0
 338.757 950.739 370 989 413 989 c 0
 445 989 462.809 969.241 462.809 942.243 c 0x018060
682.25 1085.52 m 0
 682.25 1043.66 647 1011 607 1011 c 0
 577 1011 558.152 1030.26 558.152 1057.3 c 0
 558.152 1093.74 590 1132 633 1132 c 0x012020
 662 1132 682.25 1114.16 682.25 1085.52 c 0
922.704 1153.52 m 0x010830
 922.704 1111.66 887 1079 847 1079 c 0
 817 1079 798.606 1098.26 798.606 1125.3 c 0
 798.606 1161.74 830 1200 873 1200 c 0
 902 1200 922.704 1182.16 922.704 1153.52 c 0x010830
251.943 519.522 m 0x030420
 251.943 477.661 216 445 177 445 c 0
 146 445 127.845 464.257 127.845 491.297 c 0
 127.845 527.74 160 566 202 566 c 0
 232 566 251.943 548.157 251.943 519.522 c 0x030420
331.071 321.903 m 0x090120
 331.071 285.227 297 249 256 249 c 0
 226 249 207.184 268.257 207.184 295.297 c 0
 207.184 331.74 239 370 282 370 c 0
 312 370 331.071 348.981 331.071 321.903 c 0x090120
442.186 172.521 m 0x2100a0
 442.186 130.66 407 98 367 98 c 0
 337 98 318.088 117.257 318.088 144.296 c 0
 318.088 180.74 349 219 393 219 c 0
 422 219 442.186 201.156 442.186 172.521 c 0x2100a0
687.632 79.9029 m 0
 687.632 43.2273 654 7 612 7 c 0
 582 7 563.745 26.2567 563.745 53.2969 c 0
 563.745 89.7402 596 128 638 128 c 0x810020
 669 128 687.632 106.981 687.632 79.9029 c 0
994.764 142.244 m 0x410028
 994.764 101.073 957 68 919 68 c 0
 889 68 870.711 87.2567 870.711 114.297 c 0
 870.711 150.74 901 189 945 189 c 0
 977 189 994.764 169.241 994.764 142.244 c 0x410028
1196.05 308.244 m 0x110022
 1196.05 267.073 1159 234 1121 234 c 0
 1091 234 1072 253.257 1072 280.297 c 0
 1072 316.74 1103 355 1146 355 c 0
 1178 355 1196.05 335.241 1196.05 308.244 c 0x110022
1314.46 512.521 m 0x05002080
 1314.46 470.66 1279 438 1239 438 c 0
 1209 438 1190.36 457.256 1190.36 484.296 c 0
 1190.36 520.739 1221 559 1265 559 c 0
 1294 559 1314.46 541.156 1314.46 512.521 c 0x05002080
1351.68 753.521 m 0x01002040
 1351.68 711.66 1316 679 1276 679 c 0
 1246 679 1227.58 698.257 1227.58 725.297 c 0
 1227.58 761.74 1259 800 1302 800 c 0
 1331 800 1351.68 782.156 1351.68 753.521 c 0x01002040
1289.53 963.902 m 0x014021
 1289.53 927.227 1256 891 1214 891 c 0
 1184 891 1165.65 910.256 1165.65 937.296 c 0
 1165.65 973.739 1197 1012 1240 1012 c 0
 1270 1012 1289.53 990.981 1289.53 963.902 c 0x014021
1132.09 1108.24 m 0x011024
 1132.09 1067.07 1095 1034 1057 1034 c 0
 1027 1034 1008.04 1053.26 1008.04 1080.3 c 0
 1008.04 1116.74 1039 1155 1083 1155 c 0
 1114 1155 1132.09 1135.24 1132.09 1108.24 c 0x011024
316.47 751.903 m 0x010220
 316.47 715.227 283 679 241 679 c 0
 211 679 192.583 698.257 192.583 725.297 c 0
 192.583 761.74 224 800 267 800 c 0
 297 800 316.47 778.981 316.47 751.903 c 0x010220
EndSplineSet
EndChar
StartChar: uni0E10.descless
Encoding: 240 63232 241
Width: 1100
Flags: W
HStem: -10 200<545.005 730.93> 260 113<319.3 381.038> 541 123<337.399 518.5> 864 200<943.532 1130.04> 949 200<561.111 881.183>
VStem: 200 119<374.855 496.175> 395 224<121.5 258.869>
Fore
401 541 m 0xe6
 335 541 319 456 319 424 c 0
 319 390 335 373 365 373 c 0
 431 373 447 458 447 490 c 0
 447 524 431 541 401 541 c 0xe6
200 393 m 0
 200 464 254 664 474 664 c 0
 563 664 666 629 666 499 c 0
 666 480 663 457 658 433 c 2
 622 263 l 2
 620 253 619 243 619 235 c 0
 619 205 634 190 666 190 c 0
 706 190 731 213 741 259 c 2
 798 529 l 2
 800 536 800 543 800 549 c 0
 800 572 790 590 769 603 c 2
 697 636 l 2
 596 672 428 707 195 742 c 1
 292 976 457 1149 750 1149 c 0xee
 949 1149 953 1064 1125 1064 c 0
 1152 1064 1178 1067 1202 1072 c 1
 1120 872 l 1
 1099 867 1072 864 1044 864 c 0xf6
 906 864 855 949 697 949 c 0xee
 624 949 573 929 547 892 c 1
 846 832 1033 775 1033 620 c 0
 1033 605 1031 590 1028 573 c 2
 965 279 l 2
 924 86 811 -10 624 -10 c 0
 471 -10 395 56 395 187 c 0
 395 228 403 268 407 289 c 1
 383 267 346 260 322 260 c 0
 267 262 200 303 200 393 c 0
EndSplineSet
EndChar
StartChar: uni0E48.low
Encoding: 250 63242 251
Width: 0
Flags: W
VStem: -72 291<1309 1589>
AnchorPoint: "AboveBase" 141.807 1227 mark 0
Fore
-12 1589 m 1
 219 1589 l 1
 159 1309 l 1
 -72 1309 l 1
 -12 1589 l 1
EndSplineSet
EndChar
StartChar: uni0E49.low
Encoding: 251 63243 252
Width: 0
Flags: W
HStem: 1420 88<-387.669 -339.21> 1615 97<-384.841 -278.606>
VStem: -486.081 97.371<1508.92 1592.21> -277.277 123.628<1543.31 1614.58>
AnchorPoint: "AboveBase" 20.8066 1227 mark 0
Fore
-486.081 1533.45 m 0
 -486.081 1635.39 -402 1712 -312 1712 c 0
 -209 1712 -153.649 1644.22 -153.649 1576.53 c 0
 -153.649 1546.48 -172 1488 -190 1457 c 1
 -124 1470 17 1530 109 1698 c 1
 291 1698 l 1
 188 1473 -64 1303 -354 1258 c 0
 -386 1253 -422 1249 -463 1245 c 1
 -441 1352 l 1
 -381 1366 -345 1394 -333 1427 c 1
 -348 1422 -362 1420 -377 1420 c 0
 -447 1420 -486.081 1468.14 -486.081 1533.45 c 0
-322 1615 m 0
 -375 1615 -388.71 1570.72 -388.71 1546.79 c 0
 -388.71 1522.12 -373 1508 -344 1508 c 0
 -291 1508 -277.277 1556.14 -277.277 1577.03 c 0
 -277.277 1601.55 -293 1615 -322 1615 c 0
EndSplineSet
EndChar
StartChar: uni0E4A.low
Encoding: 252 63244 253
Width: 0
Flags: W
HStem: 1247 89<-419.5 -252.759> 1416 77<-305.616 -254.022>
VStem: -513.603 179.829<1341.71 1472.31> -251.748 76.336<1350.31 1410.84>
AnchorPoint: "AboveBase" 260.807 1227 mark 0
Fore
-284 1416 m 0
 -324 1416 -333.774 1380.38 -333.774 1364.92 c 0
 -333.774 1346.63 -322 1336 -301 1336 c 0
 -262 1336 -251.748 1371.49 -251.748 1383.44 c 0
 -251.748 1399.53 -262 1416 -284 1416 c 0
-175.412 1407.15 m 0
 -175.412 1312.2 -252 1247 -358 1247 c 0
 -481 1247 -513.603 1328.66 -513.603 1403.42 c 0
 -513.603 1600.92 -312 1704 -225 1733 c 1
 -110 1615 l 1
 57 1733 l 1
 150 1695 226.022 1625.02 226.022 1539.71 c 0
 226.022 1514.08 220 1501 219 1497 c 1
 371 1748 l 1
 551 1748 l 1
 550 1748 483 1636 350 1411 c 0
 260 1262 54 1251 -5 1251 c 1
 56 1322 66.6014 1394.25 66.6014 1435.92 c 0
 66.6014 1501.74 38 1541 20 1555 c 1
 -148 1437 l 1
 -262 1555 l 1
 -294 1544 -335 1511 -348 1465 c 1
 -323 1484 -295 1493 -264 1493 c 2
 -261.56 1493.02 l 2
 -206.864 1493.02 -175.412 1460.68 -175.412 1407.15 c 0
EndSplineSet
EndChar
StartChar: uni0E4B.low
Encoding: 253 63245 254
Width: 0
Flags: W
HStem: 1348 174<-146 -52 157 243>
VStem: -183 463<1348 1522>
AnchorPoint: "AboveBase" 200.807 1227 mark 0
Fore
243 1348 m 1
 120 1348 l 1
 93 1225 l 1
 -79 1225 l 1
 -52 1348 l 1
 -183 1348 l 1
 -146 1522 l 1
 -15 1522 l 1
 12 1651 l 1
 184 1651 l 1
 157 1522 l 1
 280 1522 l 1
 243 1348 l 1
EndSplineSet
EndChar
StartChar: uni0E4C.low
Encoding: 254 63246 255
Width: 0
Flags: W
HStem: 1250 112<-268.554 -137.631>
VStem: -407 136<1364.79 1454.84> -128 133<1373.62 1484.61>
AnchorPoint: "AboveBase" -39.1934 1227 mark 0
Fore
5 1454 m 0
 5 1354 -95 1250 -214 1250 c 0
 -333 1250 -407 1310 -407 1398 c 0
 -407 1410 -406 1422 -403 1434 c 0
 -337 1747 17 1606 164 1798 c 1
 344 1798 l 1
 259 1651 47 1550 -41 1547 c 1
 -14 1531 5 1497 5 1454 c 0
-212 1362 m 0
 -174 1362 -128 1391 -128 1436 c 0
 -128 1465 -151 1486 -186 1486 c 0
 -225 1486 -271 1457 -271 1412 c 0
 -271 1383 -248 1362 -212 1362 c 0
EndSplineSet
EndChar
StartChar: uni0E0D.descless
Encoding: 255 63247 256
Width: 1745
Flags: W
HStem: -10 120<408.5 595.249> 0 200<1178 1403> 280 111<554.477 645> 949 200<713.421 1016.24>
VStem: 288 201<126.81 249.386> 614 131<124.639 265.94> 1067 227<711.028 897.461>
Fore
745 255 m 0x7e
 745 140 652 -10 482 -10 c 0xbe
 335 -10 288 57 288 165 c 0
 288 205 294 252 305 303 c 2
 319 366 l 2
 352 523 382 560 512 671 c 1
 477 726 419 767 339 792 c 1
 389 912 605 1149 921 1149 c 0
 1159 1149 1294 1028 1294 810 c 0
 1294 768 1288 722 1278 673 c 2
 1178 200 l 1
 1403 200 l 1
 1602 1139 l 1
 1822 1139 l 1
 1580 0 l 1
 915 0 l 1
 1055 657 l 2
 1063 696 1067 732 1067 763 c 0
 1067 885 1005 949 879 949 c 0
 773 949 686 906 620 831 c 1
 686 795 727 739 740 663 c 1
 601 541 574 534 538 363 c 1
 560 383 585 391 619 391 c 0
 671 391 745 353 745 255 c 0x7e
533 110 m 0
 582 110 614 173 614 222 c 0
 614 253 601 280 570 280 c 0
 522 280 489 216 489 174 c 0
 489 141 504 110 533 110 c 0
EndSplineSet
EndChar
StartChar: uniF71B
Encoding: 267 63259 268
Width: 1000
Flags: W
HStem: 1065 20G<441.742 1061>
VStem: 228 833<61 1085>
Fore
1061 1085 m 1
 843 61 l 1
 228 61 l 1
 446 1085 l 1
 1061 1085 l 1
EndSplineSet
EndChar
StartChar: uniF71C
Encoding: 268 63260 269
Width: 700
Flags: W
HStem: -423 269<7 201>
VStem: 7 491<-423 -154>
Fore
7 -423 m 1
 201 -154 l 1
 498 -154 l 1
 200 -423 l 1
 7 -423 l 1
EndSplineSet
EndChar
StartChar: uniF71D
Encoding: 269 63261 270
Width: 800
Flags: W
HStem: -236 211<177 244 476 566> -150 125<262 476>
VStem: 132 479<-236 -25>
Fore
566 -236 m 1xa0
 458 -236 l 1xa0
 476 -150 l 1
 262 -150 l 1x60
 244 -236 l 1
 132 -236 l 1
 177 -25 l 1xa0
 611 -25 l 1x60
 566 -236 l 1xa0
EndSplineSet
EndChar
StartChar: afii61664
Encoding: 210 8204 271
Width: 0
Flags: W
VStem: -94 404<-275 1289>
Fore
310 1289 m 1
 -22 -275 l 1
 -94 -275 l 1
 238 1289 l 1
 310 1289 l 1
EndSplineSet
EndChar
